<?xml version="1.0" encoding="UTF-8" standalone="no"?>
<!DOCTYPE svg PUBLIC "-//W3C//DTD SVG 1.1//EN"
 "http://www.w3.org/Graphics/SVG/1.1/DTD/svg11.dtd">
<!-- Generated by graphviz version 2.40.1 (20161225.0304)
 -->
<!-- Title: backend/include/backend/BufferDescriptor.h Pages: 1 -->
<svg width="679pt" height="297pt"
 viewBox="0.00 0.00 679.33 297.00" xmlns="http://www.w3.org/2000/svg" xmlns:xlink="http://www.w3.org/1999/xlink">
<g id="graph0" class="graph" transform="scale(1 1) rotate(0) translate(4 293)">
<title>backend/include/backend/BufferDescriptor.h</title>
<!-- Node1 -->
<g id="node1" class="node">
<title>Node1</title>
<g id="a_node1"><a xlink:title=" ">
<polygon fill="#bfbfbf" stroke="#000000" points="372.0796,-260.5 372.0796,-288.5 500.9409,-288.5 500.9409,-260.5 372.0796,-260.5"/>
<text text-anchor="start" x="380.0796" y="-276.5" font-family="Helvetica,sans-Serif" font-size="10.00" fill="#000000">backend/include/backend</text>
<text text-anchor="middle" x="436.5103" y="-266.5" font-family="Helvetica,sans-Serif" font-size="10.00" fill="#000000">/BufferDescriptor.h</text>
</a>
</g>
</g>
<!-- Node2 -->
<g id="node2" class="node">
<title>Node2</title>
<g id="a_node2"><a xlink:href="_index_buffer_8h.html" target="_top" xlink:title=" ">
<polygon fill="none" stroke="#000000" points="0,-70.5 0,-88.5 147.0205,-88.5 147.0205,-70.5 0,-70.5"/>
<text text-anchor="middle" x="73.5103" y="-76.5" font-family="Helvetica,sans-Serif" font-size="10.00" fill="#000000">include/filament/IndexBuffer.h</text>
</a>
</g>
</g>
<!-- Node1&#45;&gt;Node2 -->
<g id="edge1" class="edge">
<title>Node1&#45;&gt;Node2</title>
<path fill="none" stroke="#191970" d="M361.4394,-270.3184C283.1049,-264.5365 166.9685,-251.5182 132.5103,-224 88.2566,-188.6593 76.9362,-114.7113 74.2712,-88.7498"/>
<polygon fill="#191970" stroke="#191970" points="361.5274,-273.8335 371.7512,-271.0541 362.0256,-266.8512 361.5274,-273.8335"/>
</g>
<!-- Node4 -->
<g id="node4" class="node">
<title>Node4</title>
<g id="a_node4"><a xlink:href="_vertex_buffer_8h.html" target="_top" xlink:title=" ">
<polygon fill="none" stroke="#000000" points="141.0542,-200.5 141.0542,-218.5 291.9663,-218.5 291.9663,-200.5 141.0542,-200.5"/>
<text text-anchor="middle" x="216.5103" y="-206.5" font-family="Helvetica,sans-Serif" font-size="10.00" fill="#000000">include/filament/VertexBuffer.h</text>
</a>
</g>
</g>
<!-- Node1&#45;&gt;Node4 -->
<g id="edge3" class="edge">
<title>Node1&#45;&gt;Node4</title>
<path fill="none" stroke="#191970" d="M379.4228,-257.6333C337.1093,-245.1315 281.0835,-228.5785 246.9771,-218.5016"/>
<polygon fill="#191970" stroke="#191970" points="378.4625,-260.999 389.0444,-260.476 380.4459,-254.2859 378.4625,-260.999"/>
</g>
<!-- Node5 -->
<g id="node5" class="node">
<title>Node5</title>
<g id="a_node5"><a xlink:href="_pixel_buffer_descriptor_8h.html" target="_top" xlink:title=" ">
<polygon fill="none" stroke="#000000" points="372.0796,-195.5 372.0796,-223.5 500.9409,-223.5 500.9409,-195.5 372.0796,-195.5"/>
<text text-anchor="start" x="380.0796" y="-211.5" font-family="Helvetica,sans-Serif" font-size="10.00" fill="#000000">backend/include/backend</text>
<text text-anchor="middle" x="436.5103" y="-201.5" font-family="Helvetica,sans-Serif" font-size="10.00" fill="#000000">/PixelBufferDescriptor.h</text>
</a>
</g>
</g>
<!-- Node1&#45;&gt;Node5 -->
<g id="edge5" class="edge">
<title>Node1&#45;&gt;Node5</title>
<path fill="none" stroke="#191970" d="M436.5103,-250.1081C436.5103,-241.1539 436.5103,-231.3227 436.5103,-223.5765"/>
<polygon fill="#191970" stroke="#191970" points="433.0104,-250.3959 436.5103,-260.396 440.0104,-250.396 433.0104,-250.3959"/>
</g>
<!-- Node9 -->
<g id="node9" class="node">
<title>Node9</title>
<g id="a_node9"><a xlink:href="_command_stream_8h_source.html" target="_top" xlink:title=" ">
<polygon fill="none" stroke="#000000" points="523.4785,-65.5 523.4785,-93.5 669.542,-93.5 669.542,-65.5 523.4785,-65.5"/>
<text text-anchor="start" x="531.4785" y="-81.5" font-family="Helvetica,sans-Serif" font-size="10.00" fill="#000000">backend/include/private</text>
<text text-anchor="middle" x="596.5103" y="-71.5" font-family="Helvetica,sans-Serif" font-size="10.00" fill="#000000">/backend/CommandStream.h</text>
</a>
</g>
</g>
<!-- Node1&#45;&gt;Node9 -->
<g id="edge15" class="edge">
<title>Node1&#45;&gt;Node9</title>
<path fill="none" stroke="#191970" d="M510.7953,-259.0839C564.4073,-243.6369 633.021,-213.9591 666.5103,-159 673.217,-147.9935 672.3809,-141.4743 666.5103,-130 658.3196,-113.9914 642.4268,-101.8947 627.8524,-93.56"/>
<polygon fill="#191970" stroke="#191970" points="509.6738,-255.7627 500.9712,-261.8055 511.5427,-262.5086 509.6738,-255.7627"/>
</g>
<!-- Node11 -->
<g id="node11" class="node">
<title>Node11</title>
<g id="a_node11"><a xlink:href="_driver_8h_source.html" target="_top" xlink:title=" ">
<polygon fill="none" stroke="#000000" points="535.9761,-130.5 535.9761,-158.5 657.0444,-158.5 657.0444,-130.5 535.9761,-130.5"/>
<text text-anchor="start" x="543.9761" y="-146.5" font-family="Helvetica,sans-Serif" font-size="10.00" fill="#000000">backend/include/private</text>
<text text-anchor="middle" x="596.5103" y="-136.5" font-family="Helvetica,sans-Serif" font-size="10.00" fill="#000000">/backend/Driver.h</text>
</a>
</g>
</g>
<!-- Node1&#45;&gt;Node11 -->
<g id="edge16" class="edge">
<title>Node1&#45;&gt;Node11</title>
<path fill="none" stroke="#191970" d="M466.8683,-254.8419C480.2444,-245.8416 495.9654,-234.7926 509.5103,-224 536.3935,-202.5794 565.4603,-175.0356 582.267,-158.6303"/>
<polygon fill="#191970" stroke="#191970" points="464.8479,-251.9823 458.4633,-260.4373 468.727,-257.8092 464.8479,-251.9823"/>
</g>
<!-- Node3 -->
<g id="node3" class="node">
<title>Node3</title>
<g id="a_node3"><a xlink:href="_renderable_manager_8h_source.html" target="_top" xlink:title=" ">
<polygon fill="none" stroke="#000000" points="105.5278,-.5 105.5278,-28.5 245.4927,-28.5 245.4927,-.5 105.5278,-.5"/>
<text text-anchor="start" x="113.5278" y="-16.5" font-family="Helvetica,sans-Serif" font-size="10.00" fill="#000000">include/filament/Renderable</text>
<text text-anchor="middle" x="175.5103" y="-6.5" font-family="Helvetica,sans-Serif" font-size="10.00" fill="#000000">Manager.h</text>
</a>
</g>
</g>
<!-- Node2&#45;&gt;Node3 -->
<g id="edge2" class="edge">
<title>Node2&#45;&gt;Node3</title>
<path fill="none" stroke="#191970" d="M96.4226,-64.899C113.3922,-54.085 136.3911,-39.4289 153.2126,-28.7093"/>
<polygon fill="#191970" stroke="#191970" points="94.2452,-62.1363 87.6929,-70.462 98.0071,-68.0395 94.2452,-62.1363"/>
</g>
<!-- Node4&#45;&gt;Node3 -->
<g id="edge4" class="edge">
<title>Node4&#45;&gt;Node3</title>
<path fill="none" stroke="#191970" d="M207.1284,-191.3509C202.6425,-181.9309 197.5912,-170.098 194.5103,-159 181.5826,-112.4329 177.369,-54.9159 176.0627,-28.7101"/>
<polygon fill="#191970" stroke="#191970" points="204.0755,-193.0729 211.654,-200.4767 210.3467,-189.9628 204.0755,-193.0729"/>
</g>
<!-- Node6 -->
<g id="node6" class="node">
<title>Node6</title>
<g id="a_node6"><a xlink:href="_stream_8h_source.html" target="_top" xlink:title=" ">
<polygon fill="none" stroke="#000000" points="203.0942,-135.5 203.0942,-153.5 331.9263,-153.5 331.9263,-135.5 203.0942,-135.5"/>
<text text-anchor="middle" x="267.5103" y="-141.5" font-family="Helvetica,sans-Serif" font-size="10.00" fill="#000000">include/filament/Stream.h</text>
</a>
</g>
</g>
<!-- Node5&#45;&gt;Node6 -->
<g id="edge6" class="edge">
<title>Node5&#45;&gt;Node6</title>
<path fill="none" stroke="#191970" d="M390.2017,-191.689C358.092,-179.3391 316.6646,-163.4055 291.1035,-153.5743"/>
<polygon fill="#191970" stroke="#191970" points="389.2499,-195.0728 399.8398,-195.396 391.7628,-188.5394 389.2499,-195.0728"/>
</g>
<!-- Node7 -->
<g id="node7" class="node">
<title>Node7</title>
<g id="a_node7"><a xlink:href="_texture_8h.html" target="_top" xlink:title=" ">
<polygon fill="none" stroke="#000000" points="349.8135,-135.5 349.8135,-153.5 479.207,-153.5 479.207,-135.5 349.8135,-135.5"/>
<text text-anchor="middle" x="414.5103" y="-141.5" font-family="Helvetica,sans-Serif" font-size="10.00" fill="#000000">include/filament/Texture.h</text>
</a>
</g>
</g>
<!-- Node5&#45;&gt;Node7 -->
<g id="edge7" class="edge">
<title>Node5&#45;&gt;Node7</title>
<path fill="none" stroke="#191970" d="M428.4607,-185.7173C424.678,-174.5412 420.3927,-161.88 417.5816,-153.5743"/>
<polygon fill="#191970" stroke="#191970" points="425.2153,-187.0459 431.7366,-195.396 431.8458,-184.8017 425.2153,-187.0459"/>
</g>
<!-- Node5&#45;&gt;Node9 -->
<g id="edge10" class="edge">
<title>Node5&#45;&gt;Node9</title>
<path fill="none" stroke="#191970" d="M459.3457,-188.2057C477.2223,-171.814 502.9249,-148.8492 526.5103,-130 542.6647,-117.0895 561.7438,-103.4235 575.9001,-93.568"/>
<polygon fill="#191970" stroke="#191970" points="456.6993,-185.8851 451.7186,-195.2362 461.4436,-191.0321 456.6993,-185.8851"/>
</g>
<!-- Node5&#45;&gt;Node11 -->
<g id="edge13" class="edge">
<title>Node5&#45;&gt;Node11</title>
<path fill="none" stroke="#191970" d="M480.7092,-191.5442C506.312,-181.143 538.0784,-168.238 561.8604,-158.5765"/>
<polygon fill="#191970" stroke="#191970" points="479.1752,-188.3895 471.2279,-195.396 481.8099,-194.8748 479.1752,-188.3895"/>
</g>
<!-- Node8 -->
<g id="node8" class="node">
<title>Node8</title>
<g id="a_node8"><a xlink:href="_material_8h_source.html" target="_top" xlink:title=" ">
<polygon fill="none" stroke="#000000" points="276.4268,-70.5 276.4268,-88.5 408.5938,-88.5 408.5938,-70.5 276.4268,-70.5"/>
<text text-anchor="middle" x="342.5103" y="-76.5" font-family="Helvetica,sans-Serif" font-size="10.00" fill="#000000">include/filament/Material.h</text>
</a>
</g>
</g>
<!-- Node7&#45;&gt;Node8 -->
<g id="edge8" class="edge">
<title>Node7&#45;&gt;Node8</title>
<path fill="none" stroke="#191970" d="M397.0416,-128.7297C383.2375,-116.2676 364.4354,-99.2936 352.9028,-88.8821"/>
<polygon fill="#191970" stroke="#191970" points="394.7309,-131.3589 404.499,-135.462 399.4216,-126.163 394.7309,-131.3589"/>
</g>
<!-- Node8&#45;&gt;Node3 -->
<g id="edge9" class="edge">
<title>Node8&#45;&gt;Node3</title>
<path fill="none" stroke="#191970" d="M309.8696,-66.7955C281.6502,-55.812 240.9121,-39.9558 211.7018,-28.5865"/>
<polygon fill="#191970" stroke="#191970" points="308.7011,-70.0965 319.2896,-70.462 311.2401,-63.5732 308.7011,-70.0965"/>
</g>
<!-- Node10 -->
<g id="node10" class="node">
<title>Node10</title>
<g id="a_node10"><a xlink:href="_driver_api_8h_source.html" target="_top" xlink:title=" ">
<polygon fill="none" stroke="#000000" points="535.9761,-.5 535.9761,-28.5 657.0444,-28.5 657.0444,-.5 535.9761,-.5"/>
<text text-anchor="start" x="543.9761" y="-16.5" font-family="Helvetica,sans-Serif" font-size="10.00" fill="#000000">backend/include/private</text>
<text text-anchor="middle" x="596.5103" y="-6.5" font-family="Helvetica,sans-Serif" font-size="10.00" fill="#000000">/backend/DriverApi.h</text>
</a>
</g>
</g>
<!-- Node9&#45;&gt;Node10 -->
<g id="edge11" class="edge">
<title>Node9&#45;&gt;Node10</title>
<path fill="none" stroke="#191970" d="M589.9649,-55.4029C589.5157,-46.3703 589.8059,-36.4078 590.8354,-28.5765"/>
<polygon fill="#191970" stroke="#191970" points="586.4806,-55.7359 590.8318,-65.396 593.4544,-55.1309 586.4806,-55.7359"/>
</g>
<!-- Node10&#45;&gt;Node9 -->
<g id="edge12" class="edge">
<title>Node10&#45;&gt;Node9</title>
<path fill="none" stroke="#191970" d="M603.054,-38.5653C603.5049,-47.5958 603.2165,-57.5597 602.1887,-65.396"/>
<polygon fill="#191970" stroke="#191970" points="606.5386,-38.2355 602.1851,-28.5765 599.565,-38.8422 606.5386,-38.2355"/>
</g>
<!-- Node11&#45;&gt;Node9 -->
<g id="edge14" class="edge">
<title>Node11&#45;&gt;Node9</title>
<path fill="none" stroke="#191970" d="M596.5103,-120.1081C596.5103,-111.1539 596.5103,-101.3227 596.5103,-93.5765"/>
<polygon fill="#191970" stroke="#191970" points="593.0104,-120.3959 596.5103,-130.396 600.0104,-120.396 593.0104,-120.3959"/>
</g>
</g>
</svg>
