<?xml version="1.0" encoding="UTF-8" standalone="no"?>
<!DOCTYPE svg PUBLIC "-//W3C//DTD SVG 1.1//EN"
 "http://www.w3.org/Graphics/SVG/1.1/DTD/svg11.dtd">
<!-- Generated by graphviz version 2.40.1 (20161225.0304)
 -->
<!-- Title: backend/include/backend/BufferDescriptor.h Pages: 1 -->
<svg width="226pt" height="92pt"
 viewBox="0.00 0.00 226.19 92.00" xmlns="http://www.w3.org/2000/svg" xmlns:xlink="http://www.w3.org/1999/xlink">
<g id="graph0" class="graph" transform="scale(1 1) rotate(0) translate(4 88)">
<title>backend/include/backend/BufferDescriptor.h</title>
<!-- Node1 -->
<g id="node1" class="node">
<title>Node1</title>
<g id="a_node1"><a xlink:title=" ">
<polygon fill="#bfbfbf" stroke="#000000" points="61.6406,-55.5 61.6406,-83.5 190.502,-83.5 190.502,-55.5 61.6406,-55.5"/>
<text text-anchor="start" x="69.6406" y="-71.5" font-family="Helvetica,sans-Serif" font-size="10.00" fill="#000000">backend/include/backend</text>
<text text-anchor="middle" x="126.0713" y="-61.5" font-family="Helvetica,sans-Serif" font-size="10.00" fill="#000000">/BufferDescriptor.h</text>
</a>
</g>
</g>
<!-- Node2 -->
<g id="node2" class="node">
<title>Node2</title>
<g id="a_node2"><a xlink:title=" ">
<polygon fill="none" stroke="#bfbfbf" points="0,-.5 0,-18.5 82.1426,-18.5 82.1426,-.5 0,-.5"/>
<text text-anchor="middle" x="41.0713" y="-6.5" font-family="Helvetica,sans-Serif" font-size="10.00" fill="#000000">utils/compiler.h</text>
</a>
</g>
</g>
<!-- Node1&#45;&gt;Node2 -->
<g id="edge1" class="edge">
<title>Node1&#45;&gt;Node2</title>
<path fill="none" stroke="#191970" d="M105.9275,-55.2808C92.8442,-46.0456 75.8094,-34.021 62.4814,-24.613"/>
<polygon fill="#191970" stroke="#191970" points="64.1287,-21.4917 53.9406,-18.5842 60.0918,-27.2105 64.1287,-21.4917"/>
</g>
<!-- Node3 -->
<g id="node3" class="node">
<title>Node3</title>
<g id="a_node3"><a xlink:title=" ">
<polygon fill="none" stroke="#bfbfbf" points="100.2808,-.5 100.2808,-18.5 151.8618,-18.5 151.8618,-.5 100.2808,-.5"/>
<text text-anchor="middle" x="126.0713" y="-6.5" font-family="Helvetica,sans-Serif" font-size="10.00" fill="#000000">stddef.h</text>
</a>
</g>
</g>
<!-- Node1&#45;&gt;Node3 -->
<g id="edge2" class="edge">
<title>Node1&#45;&gt;Node3</title>
<path fill="none" stroke="#191970" d="M126.0713,-55.2808C126.0713,-47.3776 126.0713,-37.4316 126.0713,-28.8308"/>
<polygon fill="#191970" stroke="#191970" points="129.5714,-28.5842 126.0713,-18.5842 122.5714,-28.5842 129.5714,-28.5842"/>
</g>
<!-- Node4 -->
<g id="node4" class="node">
<title>Node4</title>
<g id="a_node4"><a xlink:title=" ">
<polygon fill="none" stroke="#bfbfbf" points="169.9507,-.5 169.9507,-18.5 218.1919,-18.5 218.1919,-.5 169.9507,-.5"/>
<text text-anchor="middle" x="194.0713" y="-6.5" font-family="Helvetica,sans-Serif" font-size="10.00" fill="#000000">stdint.h</text>
</a>
</g>
</g>
<!-- Node1&#45;&gt;Node4 -->
<g id="edge3" class="edge">
<title>Node1&#45;&gt;Node4</title>
<path fill="none" stroke="#191970" d="M142.1863,-55.2808C152.3511,-46.312 165.4972,-34.7124 176.0133,-25.4335"/>
<polygon fill="#191970" stroke="#191970" points="178.5932,-27.8249 183.7759,-18.5842 173.9618,-22.576 178.5932,-27.8249"/>
</g>
</g>
</svg>
