<?xml version="1.0" encoding="UTF-8" standalone="no"?>
<!DOCTYPE svg PUBLIC "-//W3C//DTD SVG 1.1//EN"
 "http://www.w3.org/Graphics/SVG/1.1/DTD/svg11.dtd">
<!-- Generated by graphviz version 2.40.1 (20161225.0304)
 -->
<!-- Title: include/filament/Color.h Pages: 1 -->
<svg width="481pt" height="212pt"
 viewBox="0.00 0.00 481.38 212.00" xmlns="http://www.w3.org/2000/svg" xmlns:xlink="http://www.w3.org/1999/xlink">
<g id="graph0" class="graph" transform="scale(1 1) rotate(0) translate(4 208)">
<title>include/filament/Color.h</title>
<!-- Node1 -->
<g id="node1" class="node">
<title>Node1</title>
<g id="a_node1"><a xlink:title=" ">
<polygon fill="#bfbfbf" stroke="#000000" points="170.6279,-185.5 170.6279,-203.5 290.5781,-203.5 290.5781,-185.5 170.6279,-185.5"/>
<text text-anchor="middle" x="230.603" y="-191.5" font-family="Helvetica,sans-Serif" font-size="10.00" fill="#000000">include/filament/Color.h</text>
</a>
</g>
</g>
<!-- Node2 -->
<g id="node2" class="node">
<title>Node2</title>
<g id="a_node2"><a xlink:href="_light_manager_8h_source.html" target="_top" xlink:title=" ">
<polygon fill="none" stroke="#000000" points="0,-125.5 0,-143.5 157.2061,-143.5 157.2061,-125.5 0,-125.5"/>
<text text-anchor="middle" x="78.603" y="-131.5" font-family="Helvetica,sans-Serif" font-size="10.00" fill="#000000">include/filament/LightManager.h</text>
</a>
</g>
</g>
<!-- Node1&#45;&gt;Node2 -->
<g id="edge1" class="edge">
<title>Node1&#45;&gt;Node2</title>
<path fill="none" stroke="#191970" d="M198.1844,-181.7032C169.0838,-170.2161 127.1067,-153.6462 101.4078,-143.5019"/>
<polygon fill="#191970" stroke="#191970" points="196.9308,-184.9711 207.5175,-185.3873 199.501,-178.46 196.9308,-184.9711"/>
</g>
<!-- Node3 -->
<g id="node3" class="node">
<title>Node3</title>
<g id="a_node3"><a xlink:href="_material_8h_source.html" target="_top" xlink:title=" ">
<polygon fill="none" stroke="#000000" points="119.5195,-65.5 119.5195,-83.5 251.6865,-83.5 251.6865,-65.5 119.5195,-65.5"/>
<text text-anchor="middle" x="185.603" y="-71.5" font-family="Helvetica,sans-Serif" font-size="10.00" fill="#000000">include/filament/Material.h</text>
</a>
</g>
</g>
<!-- Node1&#45;&gt;Node3 -->
<g id="edge2" class="edge">
<title>Node1&#45;&gt;Node3</title>
<path fill="none" stroke="#191970" d="M219.0115,-176.8125C214.0312,-168.6118 208.4778,-158.5779 204.603,-149 195.4923,-126.4797 189.7327,-98.3258 187.1642,-83.931"/>
<polygon fill="#191970" stroke="#191970" points="216.1678,-178.865 224.4597,-185.4601 222.0904,-175.1335 216.1678,-178.865"/>
</g>
<!-- Node5 -->
<g id="node5" class="node">
<title>Node5</title>
<g id="a_node5"><a xlink:href="_material_instance_8h_source.html" target="_top" xlink:title=" ">
<polygon fill="none" stroke="#000000" points="213.6895,-120.5 213.6895,-148.5 337.5166,-148.5 337.5166,-120.5 213.6895,-120.5"/>
<text text-anchor="start" x="221.6895" y="-136.5" font-family="Helvetica,sans-Serif" font-size="10.00" fill="#000000">include/filament/Material</text>
<text text-anchor="middle" x="275.603" y="-126.5" font-family="Helvetica,sans-Serif" font-size="10.00" fill="#000000">Instance.h</text>
</a>
</g>
</g>
<!-- Node1&#45;&gt;Node5 -->
<g id="edge4" class="edge">
<title>Node1&#45;&gt;Node5</title>
<path fill="none" stroke="#191970" d="M243.5934,-177.1795C250.3303,-168.1969 258.4612,-157.3558 264.8423,-148.8477"/>
<polygon fill="#191970" stroke="#191970" points="240.6376,-175.2873 237.4376,-185.3873 246.2376,-179.4873 240.6376,-175.2873"/>
</g>
<!-- Node6 -->
<g id="node6" class="node">
<title>Node6</title>
<g id="a_node6"><a xlink:href="_view_8h.html" target="_top" xlink:title=" ">
<polygon fill="none" stroke="#000000" points="355.8267,-125.5 355.8267,-143.5 473.3794,-143.5 473.3794,-125.5 355.8267,-125.5"/>
<text text-anchor="middle" x="414.603" y="-131.5" font-family="Helvetica,sans-Serif" font-size="10.00" fill="#000000">include/filament/View.h</text>
</a>
</g>
</g>
<!-- Node1&#45;&gt;Node6 -->
<g id="edge7" class="edge">
<title>Node1&#45;&gt;Node6</title>
<path fill="none" stroke="#191970" d="M268.4763,-182.15C303.7448,-170.6494 355.4823,-153.7785 386.9973,-143.5019"/>
<polygon fill="#191970" stroke="#191970" points="266.9709,-178.9595 258.5487,-185.3873 269.1411,-185.6146 266.9709,-178.9595"/>
</g>
<!-- Node4 -->
<g id="node4" class="node">
<title>Node4</title>
<g id="a_node4"><a xlink:href="_renderable_manager_8h_source.html" target="_top" xlink:title=" ">
<polygon fill="none" stroke="#000000" points="162.6206,-.5 162.6206,-28.5 302.5854,-28.5 302.5854,-.5 162.6206,-.5"/>
<text text-anchor="start" x="170.6206" y="-16.5" font-family="Helvetica,sans-Serif" font-size="10.00" fill="#000000">include/filament/Renderable</text>
<text text-anchor="middle" x="232.603" y="-6.5" font-family="Helvetica,sans-Serif" font-size="10.00" fill="#000000">Manager.h</text>
</a>
</g>
</g>
<!-- Node3&#45;&gt;Node4 -->
<g id="edge3" class="edge">
<title>Node3&#45;&gt;Node4</title>
<path fill="none" stroke="#191970" d="M198.9514,-57.4596C206.03,-48.423 214.6299,-37.4444 221.364,-28.8477"/>
<polygon fill="#191970" stroke="#191970" points="196.1527,-55.3567 192.7413,-65.3873 201.6633,-59.6733 196.1527,-55.3567"/>
</g>
<!-- Node5&#45;&gt;Node3 -->
<g id="edge5" class="edge">
<title>Node5&#45;&gt;Node3</title>
<path fill="none" stroke="#191970" d="M245.8757,-114.6818C230.1303,-104.1849 211.5546,-91.8011 199.2293,-83.5842"/>
<polygon fill="#191970" stroke="#191970" points="244.0123,-117.646 254.2743,-120.2808 247.8952,-111.8216 244.0123,-117.646"/>
</g>
<!-- Node5&#45;&gt;Node4 -->
<g id="edge6" class="edge">
<title>Node5&#45;&gt;Node4</title>
<path fill="none" stroke="#191970" d="M272.1734,-110.2798C269.8074,-96.6909 266.0843,-79.5883 260.603,-65 255.7372,-52.0497 247.9809,-38.3867 241.8643,-28.5426"/>
<polygon fill="#191970" stroke="#191970" points="268.743,-110.9926 273.7875,-120.3094 275.654,-109.8803 268.743,-110.9926"/>
</g>
</g>
</svg>
