<?xml version="1.0" encoding="UTF-8" standalone="no"?>
<!DOCTYPE svg PUBLIC "-//W3C//DTD SVG 1.1//EN"
 "http://www.w3.org/Graphics/SVG/1.1/DTD/svg11.dtd">
<!-- Generated by graphviz version 2.40.1 (20161225.0304)
 -->
<!-- Title: backend/include/backend/DriverEnums.h Pages: 1 -->
<svg width="383pt" height="92pt"
 viewBox="0.00 0.00 383.31 92.00" xmlns="http://www.w3.org/2000/svg" xmlns:xlink="http://www.w3.org/1999/xlink">
<g id="graph0" class="graph" transform="scale(1 1) rotate(0) translate(4 88)">
<title>backend/include/backend/DriverEnums.h</title>
<!-- Node1 -->
<g id="node1" class="node">
<title>Node1</title>
<g id="a_node1"><a xlink:title=" ">
<polygon fill="#bfbfbf" stroke="#000000" points="155.7563,-55.5 155.7563,-83.5 284.6177,-83.5 284.6177,-55.5 155.7563,-55.5"/>
<text text-anchor="start" x="163.7563" y="-71.5" font-family="Helvetica,sans-Serif" font-size="10.00" fill="#000000">backend/include/backend</text>
<text text-anchor="middle" x="220.187" y="-61.5" font-family="Helvetica,sans-Serif" font-size="10.00" fill="#000000">/DriverEnums.h</text>
</a>
</g>
</g>
<!-- Node2 -->
<g id="node2" class="node">
<title>Node2</title>
<g id="a_node2"><a xlink:title=" ">
<polygon fill="none" stroke="#bfbfbf" points="0,-.5 0,-18.5 94.374,-18.5 94.374,-.5 0,-.5"/>
<text text-anchor="middle" x="47.187" y="-6.5" font-family="Helvetica,sans-Serif" font-size="10.00" fill="#000000">utils/unwindows.h</text>
</a>
</g>
</g>
<!-- Node1&#45;&gt;Node2 -->
<g id="edge1" class="edge">
<title>Node1&#45;&gt;Node2</title>
<path fill="none" stroke="#191970" d="M179.6262,-55.4327C150.2343,-45.2389 110.8735,-31.5878 82.7153,-21.822"/>
<polygon fill="#191970" stroke="#191970" points="83.8521,-18.5118 73.2573,-18.5417 81.5584,-25.1253 83.8521,-18.5118"/>
</g>
<!-- Node3 -->
<g id="node3" class="node">
<title>Node3</title>
<g id="a_node3"><a xlink:title=" ">
<polygon fill="none" stroke="#bfbfbf" points="111.9507,-.5 111.9507,-18.5 182.4233,-18.5 182.4233,-.5 111.9507,-.5"/>
<text text-anchor="middle" x="147.187" y="-6.5" font-family="Helvetica,sans-Serif" font-size="10.00" fill="#000000">math/vec4.h</text>
</a>
</g>
</g>
<!-- Node1&#45;&gt;Node3 -->
<g id="edge2" class="edge">
<title>Node1&#45;&gt;Node3</title>
<path fill="none" stroke="#191970" d="M202.887,-55.2808C191.8669,-46.2232 177.5824,-34.4825 166.2383,-25.1586"/>
<polygon fill="#191970" stroke="#191970" points="168.1873,-22.23 158.2394,-18.5842 163.7425,-27.6378 168.1873,-22.23"/>
</g>
<!-- Node4 -->
<g id="node4" class="node">
<title>Node4</title>
<g id="a_node4"><a xlink:title=" ">
<polygon fill="none" stroke="#bfbfbf" points="200.7954,-.5 200.7954,-18.5 239.5786,-18.5 239.5786,-.5 200.7954,-.5"/>
<text text-anchor="middle" x="220.187" y="-6.5" font-family="Helvetica,sans-Serif" font-size="10.00" fill="#000000">array</text>
</a>
</g>
</g>
<!-- Node1&#45;&gt;Node4 -->
<g id="edge3" class="edge">
<title>Node1&#45;&gt;Node4</title>
<path fill="none" stroke="#191970" d="M220.187,-55.2808C220.187,-47.3776 220.187,-37.4316 220.187,-28.8308"/>
<polygon fill="#191970" stroke="#191970" points="223.6871,-28.5842 220.187,-18.5842 216.6871,-28.5842 223.6871,-28.5842"/>
</g>
<!-- Node5 -->
<g id="node5" class="node">
<title>Node5</title>
<g id="a_node5"><a xlink:title=" ">
<polygon fill="none" stroke="#bfbfbf" points="257.3965,-.5 257.3965,-18.5 308.9775,-18.5 308.9775,-.5 257.3965,-.5"/>
<text text-anchor="middle" x="283.187" y="-6.5" font-family="Helvetica,sans-Serif" font-size="10.00" fill="#000000">stddef.h</text>
</a>
</g>
</g>
<!-- Node1&#45;&gt;Node5 -->
<g id="edge4" class="edge">
<title>Node1&#45;&gt;Node5</title>
<path fill="none" stroke="#191970" d="M235.1171,-55.2808C244.4412,-46.4008 256.4731,-34.9419 266.1667,-25.7098"/>
<polygon fill="#191970" stroke="#191970" points="268.821,-28.0153 273.6486,-18.5842 263.9934,-22.9463 268.821,-28.0153"/>
</g>
<!-- Node6 -->
<g id="node6" class="node">
<title>Node6</title>
<g id="a_node6"><a xlink:title=" ">
<polygon fill="none" stroke="#bfbfbf" points="327.0664,-.5 327.0664,-18.5 375.3076,-18.5 375.3076,-.5 327.0664,-.5"/>
<text text-anchor="middle" x="351.187" y="-6.5" font-family="Helvetica,sans-Serif" font-size="10.00" fill="#000000">stdint.h</text>
</a>
</g>
</g>
<!-- Node1&#45;&gt;Node6 -->
<g id="edge5" class="edge">
<title>Node1&#45;&gt;Node6</title>
<path fill="none" stroke="#191970" d="M250.9007,-55.4327C272.4111,-45.5806 300.9727,-32.4989 322.1123,-22.8167"/>
<polygon fill="#191970" stroke="#191970" points="323.6166,-25.9774 331.2509,-18.6311 320.7016,-19.6132 323.6166,-25.9774"/>
</g>
</g>
</svg>
