<?xml version="1.0" encoding="UTF-8" standalone="no"?>
<!DOCTYPE svg PUBLIC "-//W3C//DTD SVG 1.1//EN"
 "http://www.w3.org/Graphics/SVG/1.1/DTD/svg11.dtd">
<!-- Generated by graphviz version 2.40.1 (20161225.0304)
 -->
<!-- Title: include/filament/Fence.h Pages: 1 -->
<svg width="484pt" height="137pt"
 viewBox="0.00 0.00 484.19 137.00" xmlns="http://www.w3.org/2000/svg" xmlns:xlink="http://www.w3.org/1999/xlink">
<g id="graph0" class="graph" transform="scale(1 1) rotate(0) translate(4 133)">
<title>include/filament/Fence.h</title>
<!-- Node1 -->
<g id="node1" class="node">
<title>Node1</title>
<g id="a_node1"><a xlink:title=" ">
<polygon fill="#bfbfbf" stroke="#000000" points="64.8745,-110.5 64.8745,-128.5 189.2681,-128.5 189.2681,-110.5 64.8745,-110.5"/>
<text text-anchor="middle" x="127.0713" y="-116.5" font-family="Helvetica,sans-Serif" font-size="10.00" fill="#000000">include/filament/Fence.h</text>
</a>
</g>
</g>
<!-- Node2 -->
<g id="node2" class="node">
<title>Node2</title>
<g id="a_node2"><a xlink:href="_filament_a_p_i_8h_source.html" target="_top" xlink:title=" ">
<polygon fill="none" stroke="#000000" points="68.7734,-55.5 68.7734,-73.5 185.3691,-73.5 185.3691,-55.5 68.7734,-55.5"/>
<text text-anchor="middle" x="127.0713" y="-61.5" font-family="Helvetica,sans-Serif" font-size="10.00" fill="#000000">filament/FilamentAPI.h</text>
</a>
</g>
</g>
<!-- Node1&#45;&gt;Node2 -->
<g id="edge1" class="edge">
<title>Node1&#45;&gt;Node2</title>
<path fill="none" stroke="#191970" d="M127.0713,-110.4179C127.0713,-103.2164 127.0713,-92.8962 127.0713,-83.8632"/>
<polygon fill="#191970" stroke="#191970" points="130.5714,-83.7794 127.0713,-73.7795 123.5714,-83.7795 130.5714,-83.7794"/>
</g>
<!-- Node3 -->
<g id="node3" class="node">
<title>Node3</title>
<g id="a_node3"><a xlink:title=" ">
<polygon fill="none" stroke="#bfbfbf" points="0,-.5 0,-18.5 82.1426,-18.5 82.1426,-.5 0,-.5"/>
<text text-anchor="middle" x="41.0713" y="-6.5" font-family="Helvetica,sans-Serif" font-size="10.00" fill="#000000">utils/compiler.h</text>
</a>
</g>
</g>
<!-- Node1&#45;&gt;Node3 -->
<g id="edge10" class="edge">
<title>Node1&#45;&gt;Node3</title>
<path fill="none" stroke="#191970" d="M106.6727,-110.3854C91.7131,-102.7081 72.0056,-90.3562 60.0713,-74 50.3952,-60.7388 45.6163,-42.584 43.2742,-28.9134"/>
<polygon fill="#191970" stroke="#191970" points="46.6941,-28.1008 41.8259,-18.6907 39.7633,-29.0828 46.6941,-28.1008"/>
</g>
<!-- Node5 -->
<g id="node5" class="node">
<title>Node5</title>
<g id="a_node5"><a xlink:href="_driver_enums_8h.html" target="_top" xlink:title=" ">
<polygon fill="none" stroke="#000000" points="229.7144,-55.5 229.7144,-73.5 352.4282,-73.5 352.4282,-55.5 229.7144,-55.5"/>
<text text-anchor="middle" x="291.0713" y="-61.5" font-family="Helvetica,sans-Serif" font-size="10.00" fill="#000000">backend/DriverEnums.h</text>
</a>
</g>
</g>
<!-- Node1&#45;&gt;Node5 -->
<g id="edge4" class="edge">
<title>Node1&#45;&gt;Node5</title>
<path fill="none" stroke="#191970" d="M154.1526,-110.4179C181.5347,-101.2348 224.0378,-86.9807 254.4221,-76.7909"/>
<polygon fill="#191970" stroke="#191970" points="255.8542,-80.0023 264.2224,-73.5042 253.6284,-73.3655 255.8542,-80.0023"/>
</g>
<!-- Node2&#45;&gt;Node3 -->
<g id="edge2" class="edge">
<title>Node2&#45;&gt;Node3</title>
<path fill="none" stroke="#191970" d="M112.8701,-55.4179C99.55,-46.8992 79.4063,-34.0166 63.8421,-24.0627"/>
<polygon fill="#191970" stroke="#191970" points="65.6038,-21.0348 55.2935,-18.5956 61.8323,-26.932 65.6038,-21.0348"/>
</g>
<!-- Node4 -->
<g id="node4" class="node">
<title>Node4</title>
<g id="a_node4"><a xlink:title=" ">
<polygon fill="none" stroke="#bfbfbf" points="100.2808,-.5 100.2808,-18.5 151.8618,-18.5 151.8618,-.5 100.2808,-.5"/>
<text text-anchor="middle" x="126.0713" y="-6.5" font-family="Helvetica,sans-Serif" font-size="10.00" fill="#000000">stddef.h</text>
</a>
</g>
</g>
<!-- Node2&#45;&gt;Node4 -->
<g id="edge3" class="edge">
<title>Node2&#45;&gt;Node4</title>
<path fill="none" stroke="#191970" d="M126.9062,-55.4179C126.7752,-48.2164 126.5876,-37.8962 126.4233,-28.8632"/>
<polygon fill="#191970" stroke="#191970" points="129.9213,-28.7141 126.24,-18.7795 122.9225,-28.8415 129.9213,-28.7141"/>
</g>
<!-- Node5&#45;&gt;Node4 -->
<g id="edge8" class="edge">
<title>Node5&#45;&gt;Node4</title>
<path fill="none" stroke="#191970" d="M263.8249,-55.4179C235.9468,-46.1252 192.4902,-31.6396 161.8542,-21.4276"/>
<polygon fill="#191970" stroke="#191970" points="162.5908,-17.9839 151.9971,-18.142 160.3772,-24.6247 162.5908,-17.9839"/>
</g>
<!-- Node6 -->
<g id="node6" class="node">
<title>Node6</title>
<g id="a_node6"><a xlink:title=" ">
<polygon fill="none" stroke="#bfbfbf" points="169.8843,-.5 169.8843,-18.5 264.2583,-18.5 264.2583,-.5 169.8843,-.5"/>
<text text-anchor="middle" x="217.0713" y="-6.5" font-family="Helvetica,sans-Serif" font-size="10.00" fill="#000000">utils/unwindows.h</text>
</a>
</g>
</g>
<!-- Node5&#45;&gt;Node6 -->
<g id="edge5" class="edge">
<title>Node5&#45;&gt;Node6</title>
<path fill="none" stroke="#191970" d="M278.8517,-55.4179C267.6044,-47.0584 250.7031,-34.4966 237.4198,-24.6239"/>
<polygon fill="#191970" stroke="#191970" points="239.4229,-21.7518 229.309,-18.5956 235.2472,-27.37 239.4229,-21.7518"/>
</g>
<!-- Node7 -->
<g id="node7" class="node">
<title>Node7</title>
<g id="a_node7"><a xlink:title=" ">
<polygon fill="none" stroke="#bfbfbf" points="281.835,-.5 281.835,-18.5 352.3076,-18.5 352.3076,-.5 281.835,-.5"/>
<text text-anchor="middle" x="317.0713" y="-6.5" font-family="Helvetica,sans-Serif" font-size="10.00" fill="#000000">math/vec4.h</text>
</a>
</g>
</g>
<!-- Node5&#45;&gt;Node7 -->
<g id="edge6" class="edge">
<title>Node5&#45;&gt;Node7</title>
<path fill="none" stroke="#191970" d="M295.3647,-55.4179C298.8812,-47.9789 303.9709,-37.2123 308.338,-27.9742"/>
<polygon fill="#191970" stroke="#191970" points="311.575,-29.316 312.6846,-18.7795 305.2465,-26.3243 311.575,-29.316"/>
</g>
<!-- Node8 -->
<g id="node8" class="node">
<title>Node8</title>
<g id="a_node8"><a xlink:title=" ">
<polygon fill="none" stroke="#bfbfbf" points="370.6797,-.5 370.6797,-18.5 409.4629,-18.5 409.4629,-.5 370.6797,-.5"/>
<text text-anchor="middle" x="390.0713" y="-6.5" font-family="Helvetica,sans-Serif" font-size="10.00" fill="#000000">array</text>
</a>
</g>
</g>
<!-- Node5&#45;&gt;Node8 -->
<g id="edge7" class="edge">
<title>Node5&#45;&gt;Node8</title>
<path fill="none" stroke="#191970" d="M307.4191,-55.4179C323.0394,-46.7399 346.8111,-33.5334 364.8575,-23.5077"/>
<polygon fill="#191970" stroke="#191970" points="366.6573,-26.5117 373.6992,-18.5956 363.2578,-20.3925 366.6573,-26.5117"/>
</g>
<!-- Node9 -->
<g id="node9" class="node">
<title>Node9</title>
<g id="a_node9"><a xlink:title=" ">
<polygon fill="none" stroke="#bfbfbf" points="427.9507,-.5 427.9507,-18.5 476.1919,-18.5 476.1919,-.5 427.9507,-.5"/>
<text text-anchor="middle" x="452.0713" y="-6.5" font-family="Helvetica,sans-Serif" font-size="10.00" fill="#000000">stdint.h</text>
</a>
</g>
</g>
<!-- Node5&#45;&gt;Node9 -->
<g id="edge9" class="edge">
<title>Node5&#45;&gt;Node9</title>
<path fill="none" stroke="#191970" d="M317.6572,-55.4179C345.1804,-46.0155 388.2654,-31.2971 418.2087,-21.068"/>
<polygon fill="#191970" stroke="#191970" points="419.4866,-24.3301 427.8182,-17.7852 417.2236,-17.7059 419.4866,-24.3301"/>
</g>
</g>
</svg>
