<?xml version="1.0" encoding="UTF-8" standalone="no"?>
<!DOCTYPE svg PUBLIC "-//W3C//DTD SVG 1.1//EN"
 "http://www.w3.org/Graphics/SVG/1.1/DTD/svg11.dtd">
<!-- Generated by graphviz version 2.40.1 (20161225.0304)
 -->
<!-- Title: include/filament/Frustum.h Pages: 1 -->
<svg width="353pt" height="137pt"
 viewBox="0.00 0.00 353.26 137.00" xmlns="http://www.w3.org/2000/svg" xmlns:xlink="http://www.w3.org/1999/xlink">
<g id="graph0" class="graph" transform="scale(1 1) rotate(0) translate(4 133)">
<title>include/filament/Frustum.h</title>
<!-- Node1 -->
<g id="node1" class="node">
<title>Node1</title>
<g id="a_node1"><a xlink:title=" ">
<polygon fill="#bfbfbf" stroke="#000000" points="122.436,-110.5 122.436,-128.5 255.7065,-128.5 255.7065,-110.5 122.436,-110.5"/>
<text text-anchor="middle" x="189.0713" y="-116.5" font-family="Helvetica,sans-Serif" font-size="10.00" fill="#000000">include/filament/Frustum.h</text>
</a>
</g>
</g>
<!-- Node2 -->
<g id="node2" class="node">
<title>Node2</title>
<g id="a_node2"><a xlink:href="_box_8h.html" target="_top" xlink:title=" ">
<polygon fill="none" stroke="#000000" points="115.3892,-55.5 115.3892,-73.5 194.7534,-73.5 194.7534,-55.5 115.3892,-55.5"/>
<text text-anchor="middle" x="155.0713" y="-61.5" font-family="Helvetica,sans-Serif" font-size="10.00" fill="#000000">filament/Box.h</text>
</a>
</g>
</g>
<!-- Node1&#45;&gt;Node2 -->
<g id="edge1" class="edge">
<title>Node1&#45;&gt;Node2</title>
<path fill="none" stroke="#191970" d="M183.4569,-110.4179C178.7604,-102.8207 171.9184,-91.7527 166.1285,-82.3866"/>
<polygon fill="#191970" stroke="#191970" points="169.043,-80.445 160.8077,-73.7795 163.0889,-84.1258 169.043,-80.445"/>
</g>
<!-- Node3 -->
<g id="node3" class="node">
<title>Node3</title>
<g id="a_node3"><a xlink:title=" ">
<polygon fill="none" stroke="#bfbfbf" points="0,-.5 0,-18.5 82.1426,-18.5 82.1426,-.5 0,-.5"/>
<text text-anchor="middle" x="41.0713" y="-6.5" font-family="Helvetica,sans-Serif" font-size="10.00" fill="#000000">utils/compiler.h</text>
</a>
</g>
</g>
<!-- Node1&#45;&gt;Node3 -->
<g id="edge6" class="edge">
<title>Node1&#45;&gt;Node3</title>
<path fill="none" stroke="#191970" d="M169.0149,-110.4738C151.5921,-102.1847 126.0837,-88.9467 106.0713,-74 87.0848,-59.8195 68.1711,-40.2845 55.6827,-26.4385"/>
<polygon fill="#191970" stroke="#191970" points="58.0413,-23.8222 48.7941,-18.6512 52.7983,-28.4603 58.0413,-23.8222"/>
</g>
<!-- Node5 -->
<g id="node5" class="node">
<title>Node5</title>
<g id="a_node5"><a xlink:title=" ">
<polygon fill="none" stroke="#bfbfbf" points="245.2808,-.5 245.2808,-18.5 316.8618,-18.5 316.8618,-.5 245.2808,-.5"/>
<text text-anchor="middle" x="281.0713" y="-6.5" font-family="Helvetica,sans-Serif" font-size="10.00" fill="#000000">math/mat4.h</text>
</a>
</g>
</g>
<!-- Node1&#45;&gt;Node5 -->
<g id="edge7" class="edge">
<title>Node1&#45;&gt;Node5</title>
<path fill="none" stroke="#191970" d="M196.5595,-110.2646C206.7715,-97.6982 225.6729,-74.5389 242.0713,-55 250.0973,-45.4369 259.1683,-34.8416 266.541,-26.2831"/>
<polygon fill="#191970" stroke="#191970" points="269.3601,-28.3737 273.2461,-18.5172 264.0617,-23.7991 269.3601,-28.3737"/>
</g>
<!-- Node7 -->
<g id="node7" class="node">
<title>Node7</title>
<g id="a_node7"><a xlink:title=" ">
<polygon fill="none" stroke="#bfbfbf" points="250.8843,-55.5 250.8843,-73.5 345.2583,-73.5 345.2583,-55.5 250.8843,-55.5"/>
<text text-anchor="middle" x="298.0713" y="-61.5" font-family="Helvetica,sans-Serif" font-size="10.00" fill="#000000">utils/unwindows.h</text>
</a>
</g>
</g>
<!-- Node1&#45;&gt;Node7 -->
<g id="edge8" class="edge">
<title>Node1&#45;&gt;Node7</title>
<path fill="none" stroke="#191970" d="M207.0704,-110.4179C224.4263,-101.6603 250.9224,-88.2907 270.8559,-78.2326"/>
<polygon fill="#191970" stroke="#191970" points="272.6943,-81.2253 280.0454,-73.5956 269.5409,-74.9758 272.6943,-81.2253"/>
</g>
<!-- Node2&#45;&gt;Node3 -->
<g id="edge2" class="edge">
<title>Node2&#45;&gt;Node3</title>
<path fill="none" stroke="#191970" d="M136.2465,-55.4179C117.9295,-46.5807 89.8784,-33.0473 68.9683,-22.9591"/>
<polygon fill="#191970" stroke="#191970" points="70.4515,-19.7887 59.924,-18.5956 67.4098,-26.0933 70.4515,-19.7887"/>
</g>
<!-- Node4 -->
<g id="node4" class="node">
<title>Node4</title>
<g id="a_node4"><a xlink:title=" ">
<polygon fill="none" stroke="#bfbfbf" points="99.6846,-.5 99.6846,-18.5 138.458,-18.5 138.458,-.5 99.6846,-.5"/>
<text text-anchor="middle" x="119.0713" y="-6.5" font-family="Helvetica,sans-Serif" font-size="10.00" fill="#000000">limits</text>
</a>
</g>
</g>
<!-- Node2&#45;&gt;Node4 -->
<g id="edge3" class="edge">
<title>Node2&#45;&gt;Node4</title>
<path fill="none" stroke="#191970" d="M149.1266,-55.4179C144.1539,-47.8207 136.9094,-36.7527 130.7789,-27.3866"/>
<polygon fill="#191970" stroke="#191970" points="133.5502,-25.2297 125.1451,-18.7795 127.6933,-29.0633 133.5502,-25.2297"/>
</g>
<!-- Node2&#45;&gt;Node5 -->
<g id="edge4" class="edge">
<title>Node2&#45;&gt;Node5</title>
<path fill="none" stroke="#191970" d="M175.8776,-55.4179C196.3052,-46.5011 227.6861,-32.803 250.8605,-22.6873"/>
<polygon fill="#191970" stroke="#191970" points="252.4693,-25.804 260.234,-18.5956 249.6689,-19.3885 252.4693,-25.804"/>
</g>
<!-- Node6 -->
<g id="node6" class="node">
<title>Node6</title>
<g id="a_node6"><a xlink:title=" ">
<polygon fill="none" stroke="#bfbfbf" points="156.835,-.5 156.835,-18.5 227.3076,-18.5 227.3076,-.5 156.835,-.5"/>
<text text-anchor="middle" x="192.0713" y="-6.5" font-family="Helvetica,sans-Serif" font-size="10.00" fill="#000000">math/vec3.h</text>
</a>
</g>
</g>
<!-- Node2&#45;&gt;Node6 -->
<g id="edge5" class="edge">
<title>Node2&#45;&gt;Node6</title>
<path fill="none" stroke="#191970" d="M161.1811,-55.4179C166.3452,-47.7415 173.893,-36.5217 180.235,-27.0945"/>
<polygon fill="#191970" stroke="#191970" points="183.151,-29.0303 185.8287,-18.7795 177.3429,-25.1231 183.151,-29.0303"/>
</g>
</g>
</svg>
