<?xml version="1.0" encoding="UTF-8" standalone="no"?>
<!DOCTYPE svg PUBLIC "-//W3C//DTD SVG 1.1//EN"
 "http://www.w3.org/Graphics/SVG/1.1/DTD/svg11.dtd">
<!-- Generated by graphviz version 2.40.1 (20161225.0304)
 -->
<!-- Title: /Users/lawrie/Project/cppProjects/filament/libs/filabridge/include/filament/MaterialEnums.h Pages: 1 -->
<svg width="310pt" height="177pt"
 viewBox="0.00 0.00 309.54 177.00" xmlns="http://www.w3.org/2000/svg" xmlns:xlink="http://www.w3.org/1999/xlink">
<g id="graph0" class="graph" transform="scale(1 1) rotate(0) translate(4 173)">
<title>/Users/lawrie/Project/cppProjects/filament/libs/filabridge/include/filament/MaterialEnums.h</title>
<!-- Node1 -->
<g id="node1" class="node">
<title>Node1</title>
<g id="a_node1"><a xlink:title=" ">
<polygon fill="#bfbfbf" stroke="#000000" points="80.2832,-120.5 80.2832,-168.5 211.8838,-168.5 211.8838,-120.5 80.2832,-120.5"/>
<text text-anchor="start" x="88.2832" y="-156.5" font-family="Helvetica,sans-Serif" font-size="10.00" fill="#000000">/Users/lawrie/Project</text>
<text text-anchor="start" x="88.2832" y="-146.5" font-family="Helvetica,sans-Serif" font-size="10.00" fill="#000000">/cppProjects/filament</text>
<text text-anchor="start" x="88.2832" y="-136.5" font-family="Helvetica,sans-Serif" font-size="10.00" fill="#000000">/libs/filabridge/include</text>
<text text-anchor="middle" x="146.0835" y="-126.5" font-family="Helvetica,sans-Serif" font-size="10.00" fill="#000000">/filament/MaterialEnums.h</text>
</a>
</g>
</g>
<!-- Node2 -->
<g id="node2" class="node">
<title>Node2</title>
<g id="a_node2"><a xlink:href="_material_8h_source.html" target="_top" xlink:title=" ">
<polygon fill="none" stroke="#000000" points="0,-65.5 0,-83.5 132.167,-83.5 132.167,-65.5 0,-65.5"/>
<text text-anchor="middle" x="66.0835" y="-71.5" font-family="Helvetica,sans-Serif" font-size="10.00" fill="#000000">include/filament/Material.h</text>
</a>
</g>
</g>
<!-- Node1&#45;&gt;Node2 -->
<g id="edge1" class="edge">
<title>Node1&#45;&gt;Node2</title>
<path fill="none" stroke="#191970" d="M110.9243,-113.7357C98.4712,-102.8392 85.3828,-91.3869 76.5832,-83.6872"/>
<polygon fill="#191970" stroke="#191970" points="108.7215,-116.4589 118.552,-120.41 113.331,-111.1909 108.7215,-116.4589"/>
</g>
<!-- Node4 -->
<g id="node4" class="node">
<title>Node4</title>
<g id="a_node4"><a xlink:href="_vertex_buffer_8h.html" target="_top" xlink:title=" ">
<polygon fill="none" stroke="#000000" points="150.6274,-65.5 150.6274,-83.5 301.5396,-83.5 301.5396,-65.5 150.6274,-65.5"/>
<text text-anchor="middle" x="226.0835" y="-71.5" font-family="Helvetica,sans-Serif" font-size="10.00" fill="#000000">include/filament/VertexBuffer.h</text>
</a>
</g>
</g>
<!-- Node1&#45;&gt;Node4 -->
<g id="edge3" class="edge">
<title>Node1&#45;&gt;Node4</title>
<path fill="none" stroke="#191970" d="M181.2427,-113.7357C193.6958,-102.8392 206.7842,-91.3869 215.5838,-83.6872"/>
<polygon fill="#191970" stroke="#191970" points="178.836,-111.1909 173.615,-120.41 183.4455,-116.4589 178.836,-111.1909"/>
</g>
<!-- Node3 -->
<g id="node3" class="node">
<title>Node3</title>
<g id="a_node3"><a xlink:href="_renderable_manager_8h_source.html" target="_top" xlink:title=" ">
<polygon fill="none" stroke="#000000" points="76.1011,-.5 76.1011,-28.5 216.0659,-28.5 216.0659,-.5 76.1011,-.5"/>
<text text-anchor="start" x="84.1011" y="-16.5" font-family="Helvetica,sans-Serif" font-size="10.00" fill="#000000">include/filament/Renderable</text>
<text text-anchor="middle" x="146.0835" y="-6.5" font-family="Helvetica,sans-Serif" font-size="10.00" fill="#000000">Manager.h</text>
</a>
</g>
</g>
<!-- Node2&#45;&gt;Node3 -->
<g id="edge2" class="edge">
<title>Node2&#45;&gt;Node3</title>
<path fill="none" stroke="#191970" d="M86.2966,-59.3402C98.8772,-49.9048 114.9482,-37.8515 127.2591,-28.6183"/>
<polygon fill="#191970" stroke="#191970" points="84.1338,-56.5872 78.2338,-65.3873 88.3338,-62.1873 84.1338,-56.5872"/>
</g>
<!-- Node4&#45;&gt;Node3 -->
<g id="edge4" class="edge">
<title>Node4&#45;&gt;Node3</title>
<path fill="none" stroke="#191970" d="M205.8704,-59.3402C193.2898,-49.9048 177.2188,-37.8515 164.9079,-28.6183"/>
<polygon fill="#191970" stroke="#191970" points="203.8332,-62.1873 213.9332,-65.3873 208.0332,-56.5872 203.8332,-62.1873"/>
</g>
</g>
</svg>
