<?xml version="1.0" encoding="UTF-8" standalone="no"?>
<!DOCTYPE svg PUBLIC "-//W3C//DTD SVG 1.1//EN"
 "http://www.w3.org/Graphics/SVG/1.1/DTD/svg11.dtd">
<!-- Generated by graphviz version 2.40.1 (20161225.0304)
 -->
<!-- Title: backend/include/backend/PixelBufferDescriptor.h Pages: 1 -->
<svg width="462pt" height="232pt"
 viewBox="0.00 0.00 461.95 232.00" xmlns="http://www.w3.org/2000/svg" xmlns:xlink="http://www.w3.org/1999/xlink">
<g id="graph0" class="graph" transform="scale(1 1) rotate(0) translate(4 228)">
<title>backend/include/backend/PixelBufferDescriptor.h</title>
<!-- Node1 -->
<g id="node1" class="node">
<title>Node1</title>
<g id="a_node1"><a xlink:title=" ">
<polygon fill="#bfbfbf" stroke="#000000" points="192.9854,-195.5 192.9854,-223.5 321.8467,-223.5 321.8467,-195.5 192.9854,-195.5"/>
<text text-anchor="start" x="200.9854" y="-211.5" font-family="Helvetica,sans-Serif" font-size="10.00" fill="#000000">backend/include/backend</text>
<text text-anchor="middle" x="257.416" y="-201.5" font-family="Helvetica,sans-Serif" font-size="10.00" fill="#000000">/PixelBufferDescriptor.h</text>
</a>
</g>
</g>
<!-- Node2 -->
<g id="node2" class="node">
<title>Node2</title>
<g id="a_node2"><a xlink:href="_stream_8h_source.html" target="_top" xlink:title=" ">
<polygon fill="none" stroke="#000000" points="0,-135.5 0,-153.5 128.832,-153.5 128.832,-135.5 0,-135.5"/>
<text text-anchor="middle" x="64.416" y="-141.5" font-family="Helvetica,sans-Serif" font-size="10.00" fill="#000000">include/filament/Stream.h</text>
</a>
</g>
</g>
<!-- Node1&#45;&gt;Node2 -->
<g id="edge1" class="edge">
<title>Node1&#45;&gt;Node2</title>
<path fill="none" stroke="#191970" d="M205.9483,-192.1663C169.0881,-179.7522 120.9283,-163.5326 91.3597,-153.5743"/>
<polygon fill="#191970" stroke="#191970" points="204.9438,-195.5211 215.5379,-195.396 207.178,-188.8872 204.9438,-195.5211"/>
</g>
<!-- Node3 -->
<g id="node3" class="node">
<title>Node3</title>
<g id="a_node3"><a xlink:href="_texture_8h.html" target="_top" xlink:title=" ">
<polygon fill="none" stroke="#000000" points="146.7192,-135.5 146.7192,-153.5 276.1128,-153.5 276.1128,-135.5 146.7192,-135.5"/>
<text text-anchor="middle" x="211.416" y="-141.5" font-family="Helvetica,sans-Serif" font-size="10.00" fill="#000000">include/filament/Texture.h</text>
</a>
</g>
</g>
<!-- Node1&#45;&gt;Node3 -->
<g id="edge2" class="edge">
<title>Node1&#45;&gt;Node3</title>
<path fill="none" stroke="#191970" d="M241.5481,-187.0779C233.4125,-175.582 223.9556,-162.219 217.8378,-153.5743"/>
<polygon fill="#191970" stroke="#191970" points="238.801,-189.2551 247.4347,-195.396 244.5149,-185.2114 238.801,-189.2551"/>
</g>
<!-- Node6 -->
<g id="node6" class="node">
<title>Node6</title>
<g id="a_node6"><a xlink:href="_command_stream_8h_source.html" target="_top" xlink:title=" ">
<polygon fill="none" stroke="#000000" points="307.3843,-65.5 307.3843,-93.5 453.4478,-93.5 453.4478,-65.5 307.3843,-65.5"/>
<text text-anchor="start" x="315.3843" y="-81.5" font-family="Helvetica,sans-Serif" font-size="10.00" fill="#000000">backend/include/private</text>
<text text-anchor="middle" x="380.416" y="-71.5" font-family="Helvetica,sans-Serif" font-size="10.00" fill="#000000">/backend/CommandStream.h</text>
</a>
</g>
</g>
<!-- Node1&#45;&gt;Node6 -->
<g id="edge5" class="edge">
<title>Node1&#45;&gt;Node6</title>
<path fill="none" stroke="#191970" d="M274.1942,-187.4982C287.0522,-171.0942 305.5631,-148.4358 323.416,-130 336.0163,-116.9883 351.4547,-103.4404 363.0849,-93.6566"/>
<polygon fill="#191970" stroke="#191970" points="271.3876,-185.4058 268.0189,-195.4508 276.9165,-189.699 271.3876,-185.4058"/>
</g>
<!-- Node8 -->
<g id="node8" class="node">
<title>Node8</title>
<g id="a_node8"><a xlink:href="_driver_8h_source.html" target="_top" xlink:title=" ">
<polygon fill="none" stroke="#000000" points="332.8818,-130.5 332.8818,-158.5 453.9502,-158.5 453.9502,-130.5 332.8818,-130.5"/>
<text text-anchor="start" x="340.8818" y="-146.5" font-family="Helvetica,sans-Serif" font-size="10.00" fill="#000000">backend/include/private</text>
<text text-anchor="middle" x="393.416" y="-136.5" font-family="Helvetica,sans-Serif" font-size="10.00" fill="#000000">/backend/Driver.h</text>
</a>
</g>
</g>
<!-- Node1&#45;&gt;Node8 -->
<g id="edge8" class="edge">
<title>Node1&#45;&gt;Node8</title>
<path fill="none" stroke="#191970" d="M296.1403,-190.9921C317.697,-180.6892 344.1051,-168.0677 363.9636,-158.5765"/>
<polygon fill="#191970" stroke="#191970" points="294.4392,-187.9258 286.926,-195.396 297.4578,-194.2416 294.4392,-187.9258"/>
</g>
<!-- Node4 -->
<g id="node4" class="node">
<title>Node4</title>
<g id="a_node4"><a xlink:href="_material_8h_source.html" target="_top" xlink:title=" ">
<polygon fill="none" stroke="#000000" points="145.3325,-70.5 145.3325,-88.5 277.4995,-88.5 277.4995,-70.5 145.3325,-70.5"/>
<text text-anchor="middle" x="211.416" y="-76.5" font-family="Helvetica,sans-Serif" font-size="10.00" fill="#000000">include/filament/Material.h</text>
</a>
</g>
</g>
<!-- Node3&#45;&gt;Node4 -->
<g id="edge3" class="edge">
<title>Node3&#45;&gt;Node4</title>
<path fill="none" stroke="#191970" d="M211.416,-125.1265C211.416,-113.1522 211.416,-98.3205 211.416,-88.8821"/>
<polygon fill="#191970" stroke="#191970" points="207.9161,-125.462 211.416,-135.462 214.9161,-125.4621 207.9161,-125.462"/>
</g>
<!-- Node5 -->
<g id="node5" class="node">
<title>Node5</title>
<g id="a_node5"><a xlink:href="_renderable_manager_8h_source.html" target="_top" xlink:title=" ">
<polygon fill="none" stroke="#000000" points="141.4336,-.5 141.4336,-28.5 281.3984,-28.5 281.3984,-.5 141.4336,-.5"/>
<text text-anchor="start" x="149.4336" y="-16.5" font-family="Helvetica,sans-Serif" font-size="10.00" fill="#000000">include/filament/Renderable</text>
<text text-anchor="middle" x="211.416" y="-6.5" font-family="Helvetica,sans-Serif" font-size="10.00" fill="#000000">Manager.h</text>
</a>
</g>
</g>
<!-- Node4&#45;&gt;Node5 -->
<g id="edge4" class="edge">
<title>Node4&#45;&gt;Node5</title>
<path fill="none" stroke="#191970" d="M211.416,-60.2652C211.416,-50.2384 211.416,-38.1782 211.416,-28.9559"/>
<polygon fill="#191970" stroke="#191970" points="207.9161,-60.462 211.416,-70.462 214.9161,-60.4621 207.9161,-60.462"/>
</g>
<!-- Node7 -->
<g id="node7" class="node">
<title>Node7</title>
<g id="a_node7"><a xlink:href="_driver_api_8h_source.html" target="_top" xlink:title=" ">
<polygon fill="none" stroke="#000000" points="319.8818,-.5 319.8818,-28.5 440.9502,-28.5 440.9502,-.5 319.8818,-.5"/>
<text text-anchor="start" x="327.8818" y="-16.5" font-family="Helvetica,sans-Serif" font-size="10.00" fill="#000000">backend/include/private</text>
<text text-anchor="middle" x="380.416" y="-6.5" font-family="Helvetica,sans-Serif" font-size="10.00" fill="#000000">/backend/DriverApi.h</text>
</a>
</g>
</g>
<!-- Node6&#45;&gt;Node7 -->
<g id="edge6" class="edge">
<title>Node6&#45;&gt;Node7</title>
<path fill="none" stroke="#191970" d="M373.8707,-55.4029C373.4215,-46.3703 373.7117,-36.4078 374.7412,-28.5765"/>
<polygon fill="#191970" stroke="#191970" points="370.3863,-55.7359 374.7376,-65.396 377.3601,-55.1309 370.3863,-55.7359"/>
</g>
<!-- Node7&#45;&gt;Node6 -->
<g id="edge7" class="edge">
<title>Node7&#45;&gt;Node6</title>
<path fill="none" stroke="#191970" d="M386.9598,-38.5653C387.4107,-47.5958 387.1222,-57.5597 386.0944,-65.396"/>
<polygon fill="#191970" stroke="#191970" points="390.4444,-38.2355 386.0908,-28.5765 383.4707,-38.8422 390.4444,-38.2355"/>
</g>
<!-- Node8&#45;&gt;Node6 -->
<g id="edge9" class="edge">
<title>Node8&#45;&gt;Node6</title>
<path fill="none" stroke="#191970" d="M388.5966,-120.4029C386.7901,-111.3703 384.7976,-101.4078 383.2313,-93.5765"/>
<polygon fill="#191970" stroke="#191970" points="385.2019,-121.2766 390.5952,-130.396 392.066,-119.9037 385.2019,-121.2766"/>
</g>
</g>
</svg>
