<?xml version="1.0" encoding="UTF-8" standalone="no"?>
<!DOCTYPE svg PUBLIC "-//W3C//DTD SVG 1.1//EN"
 "http://www.w3.org/Graphics/SVG/1.1/DTD/svg11.dtd">
<!-- Generated by graphviz version 2.40.1 (20161225.0304)
 -->
<!-- Title: backend/include/backend/PixelBufferDescriptor.h Pages: 1 -->
<svg width="521pt" height="147pt"
 viewBox="0.00 0.00 521.46 147.00" xmlns="http://www.w3.org/2000/svg" xmlns:xlink="http://www.w3.org/1999/xlink">
<g id="graph0" class="graph" transform="scale(1 1) rotate(0) translate(4 143)">
<title>backend/include/backend/PixelBufferDescriptor.h</title>
<!-- Node1 -->
<g id="node1" class="node">
<title>Node1</title>
<g id="a_node1"><a xlink:title=" ">
<polygon fill="#bfbfbf" stroke="#000000" points="148.6406,-110.5 148.6406,-138.5 277.502,-138.5 277.502,-110.5 148.6406,-110.5"/>
<text text-anchor="start" x="156.6406" y="-126.5" font-family="Helvetica,sans-Serif" font-size="10.00" fill="#000000">backend/include/backend</text>
<text text-anchor="middle" x="213.0713" y="-116.5" font-family="Helvetica,sans-Serif" font-size="10.00" fill="#000000">/PixelBufferDescriptor.h</text>
</a>
</g>
</g>
<!-- Node2 -->
<g id="node2" class="node">
<title>Node2</title>
<g id="a_node2"><a xlink:href="_buffer_descriptor_8h.html" target="_top" xlink:title=" ">
<polygon fill="none" stroke="#000000" points="29.8467,-55.5 29.8467,-73.5 166.2959,-73.5 166.2959,-55.5 29.8467,-55.5"/>
<text text-anchor="middle" x="98.0713" y="-61.5" font-family="Helvetica,sans-Serif" font-size="10.00" fill="#000000">backend/BufferDescriptor.h</text>
</a>
</g>
</g>
<!-- Node1&#45;&gt;Node2 -->
<g id="edge1" class="edge">
<title>Node1&#45;&gt;Node2</title>
<path fill="none" stroke="#191970" d="M186.1089,-110.4327C167.566,-100.7581 143.0541,-87.9693 124.6043,-78.3433"/>
<polygon fill="#191970" stroke="#191970" points="126.0573,-75.1537 115.5725,-73.6311 122.8193,-81.3598 126.0573,-75.1537"/>
</g>
<!-- Node3 -->
<g id="node3" class="node">
<title>Node3</title>
<g id="a_node3"><a xlink:title=" ">
<polygon fill="none" stroke="#bfbfbf" points="0,-.5 0,-18.5 82.1426,-18.5 82.1426,-.5 0,-.5"/>
<text text-anchor="middle" x="41.0713" y="-6.5" font-family="Helvetica,sans-Serif" font-size="10.00" fill="#000000">utils/compiler.h</text>
</a>
</g>
</g>
<!-- Node1&#45;&gt;Node3 -->
<g id="edge11" class="edge">
<title>Node1&#45;&gt;Node3</title>
<path fill="none" stroke="#191970" d="M148.2028,-115.9856C98.8009,-108.0142 36.6973,-94.2674 21.0713,-74 10.5014,-60.2905 18.7781,-40.9381 27.677,-27.0131"/>
<polygon fill="#191970" stroke="#191970" points="30.5816,-28.9667 33.4229,-18.7599 24.8367,-24.9671 30.5816,-28.9667"/>
</g>
<!-- Node4 -->
<g id="node4" class="node">
<title>Node4</title>
<g id="a_node4"><a xlink:title=" ">
<polygon fill="none" stroke="#bfbfbf" points="138.2808,-.5 138.2808,-18.5 189.8618,-18.5 189.8618,-.5 138.2808,-.5"/>
<text text-anchor="middle" x="164.0713" y="-6.5" font-family="Helvetica,sans-Serif" font-size="10.00" fill="#000000">stddef.h</text>
</a>
</g>
</g>
<!-- Node1&#45;&gt;Node4 -->
<g id="edge13" class="edge">
<title>Node1&#45;&gt;Node4</title>
<path fill="none" stroke="#191970" d="M207.0629,-110.3987C198.2427,-89.6982 181.7779,-51.0564 171.9831,-28.0684"/>
<polygon fill="#191970" stroke="#191970" points="175.1433,-26.5564 168.0035,-18.7286 168.7035,-29.3003 175.1433,-26.5564"/>
</g>
<!-- Node5 -->
<g id="node5" class="node">
<title>Node5</title>
<g id="a_node5"><a xlink:title=" ">
<polygon fill="none" stroke="#bfbfbf" points="207.9507,-.5 207.9507,-18.5 256.1919,-18.5 256.1919,-.5 207.9507,-.5"/>
<text text-anchor="middle" x="232.0713" y="-6.5" font-family="Helvetica,sans-Serif" font-size="10.00" fill="#000000">stdint.h</text>
</a>
</g>
</g>
<!-- Node1&#45;&gt;Node5 -->
<g id="edge14" class="edge">
<title>Node1&#45;&gt;Node5</title>
<path fill="none" stroke="#191970" d="M215.4011,-110.3987C218.7903,-89.8847 225.0907,-51.7512 228.9002,-28.6935"/>
<polygon fill="#191970" stroke="#191970" points="232.3696,-29.1654 230.5466,-18.7286 225.4632,-28.0243 232.3696,-29.1654"/>
</g>
<!-- Node6 -->
<g id="node6" class="node">
<title>Node6</title>
<g id="a_node6"><a xlink:href="_driver_enums_8h.html" target="_top" xlink:title=" ">
<polygon fill="none" stroke="#000000" points="259.7144,-55.5 259.7144,-73.5 382.4282,-73.5 382.4282,-55.5 259.7144,-55.5"/>
<text text-anchor="middle" x="321.0713" y="-61.5" font-family="Helvetica,sans-Serif" font-size="10.00" fill="#000000">backend/DriverEnums.h</text>
</a>
</g>
</g>
<!-- Node1&#45;&gt;Node6 -->
<g id="edge5" class="edge">
<title>Node1&#45;&gt;Node6</title>
<path fill="none" stroke="#191970" d="M238.3925,-110.4327C255.647,-100.8468 278.4047,-88.2037 295.6751,-78.609"/>
<polygon fill="#191970" stroke="#191970" points="297.5936,-81.5471 304.6354,-73.6311 294.194,-75.428 297.5936,-81.5471"/>
</g>
<!-- Node10 -->
<g id="node10" class="node">
<title>Node10</title>
<g id="a_node10"><a xlink:title=" ">
<polygon fill="none" stroke="#bfbfbf" points="400.2856,-55.5 400.2856,-73.5 451.8569,-73.5 451.8569,-55.5 400.2856,-55.5"/>
<text text-anchor="middle" x="426.0713" y="-61.5" font-family="Helvetica,sans-Serif" font-size="10.00" fill="#000000">assert.h</text>
</a>
</g>
</g>
<!-- Node1&#45;&gt;Node10 -->
<g id="edge12" class="edge">
<title>Node1&#45;&gt;Node10</title>
<path fill="none" stroke="#191970" d="M263.0103,-110.4327C302.0684,-99.4304 355.4247,-84.4004 390.3047,-74.5751"/>
<polygon fill="#191970" stroke="#191970" points="391.386,-77.9068 400.0624,-71.8265 389.4879,-71.169 391.386,-77.9068"/>
</g>
<!-- Node2&#45;&gt;Node3 -->
<g id="edge2" class="edge">
<title>Node2&#45;&gt;Node3</title>
<path fill="none" stroke="#191970" d="M88.6589,-55.4179C80.3754,-47.425 68.1104,-35.5903 58.1068,-25.9377"/>
<polygon fill="#191970" stroke="#191970" points="60.3147,-23.2045 50.6882,-18.7795 55.4541,-28.2419 60.3147,-23.2045"/>
</g>
<!-- Node2&#45;&gt;Node4 -->
<g id="edge3" class="edge">
<title>Node2&#45;&gt;Node4</title>
<path fill="none" stroke="#191970" d="M108.9698,-55.4179C118.7512,-47.2667 133.3271,-35.1201 145.031,-25.3669"/>
<polygon fill="#191970" stroke="#191970" points="147.4944,-27.8701 152.9359,-18.7795 143.013,-22.4926 147.4944,-27.8701"/>
</g>
<!-- Node2&#45;&gt;Node5 -->
<g id="edge4" class="edge">
<title>Node2&#45;&gt;Node5</title>
<path fill="none" stroke="#191970" d="M120.1987,-55.4179C142.1172,-46.4215 175.8935,-32.5581 200.6004,-22.4172"/>
<polygon fill="#191970" stroke="#191970" points="201.989,-25.6306 209.911,-18.5956 199.331,-19.1549 201.989,-25.6306"/>
</g>
<!-- Node6&#45;&gt;Node4 -->
<g id="edge9" class="edge">
<title>Node6&#45;&gt;Node4</title>
<path fill="none" stroke="#191970" d="M295.1459,-55.4179C269.0465,-46.2748 228.5971,-32.1046 199.5363,-21.924"/>
<polygon fill="#191970" stroke="#191970" points="200.3691,-18.5073 189.7742,-18.5042 198.0547,-25.1136 200.3691,-18.5073"/>
</g>
<!-- Node6&#45;&gt;Node5 -->
<g id="edge10" class="edge">
<title>Node6&#45;&gt;Node5</title>
<path fill="none" stroke="#191970" d="M306.3747,-55.4179C292.5899,-46.8992 271.7435,-34.0166 255.6364,-24.0627"/>
<polygon fill="#191970" stroke="#191970" points="257.1364,-20.8753 246.7897,-18.5956 253.4564,-26.83 257.1364,-20.8753"/>
</g>
<!-- Node7 -->
<g id="node7" class="node">
<title>Node7</title>
<g id="a_node7"><a xlink:title=" ">
<polygon fill="none" stroke="#bfbfbf" points="273.8843,-.5 273.8843,-18.5 368.2583,-18.5 368.2583,-.5 273.8843,-.5"/>
<text text-anchor="middle" x="321.0713" y="-6.5" font-family="Helvetica,sans-Serif" font-size="10.00" fill="#000000">utils/unwindows.h</text>
</a>
</g>
</g>
<!-- Node6&#45;&gt;Node7 -->
<g id="edge6" class="edge">
<title>Node6&#45;&gt;Node7</title>
<path fill="none" stroke="#191970" d="M321.0713,-55.4179C321.0713,-48.2164 321.0713,-37.8962 321.0713,-28.8632"/>
<polygon fill="#191970" stroke="#191970" points="324.5714,-28.7794 321.0713,-18.7795 317.5714,-28.7795 324.5714,-28.7794"/>
</g>
<!-- Node8 -->
<g id="node8" class="node">
<title>Node8</title>
<g id="a_node8"><a xlink:title=" ">
<polygon fill="none" stroke="#bfbfbf" points="385.835,-.5 385.835,-18.5 456.3076,-18.5 456.3076,-.5 385.835,-.5"/>
<text text-anchor="middle" x="421.0713" y="-6.5" font-family="Helvetica,sans-Serif" font-size="10.00" fill="#000000">math/vec4.h</text>
</a>
</g>
</g>
<!-- Node6&#45;&gt;Node8 -->
<g id="edge7" class="edge">
<title>Node6&#45;&gt;Node8</title>
<path fill="none" stroke="#191970" d="M337.5843,-55.4179C353.3623,-46.7399 377.3741,-33.5334 395.6028,-23.5077"/>
<polygon fill="#191970" stroke="#191970" points="397.4584,-26.4816 404.5338,-18.5956 394.0849,-20.3481 397.4584,-26.4816"/>
</g>
<!-- Node9 -->
<g id="node9" class="node">
<title>Node9</title>
<g id="a_node9"><a xlink:title=" ">
<polygon fill="none" stroke="#bfbfbf" points="474.6797,-.5 474.6797,-18.5 513.4629,-18.5 513.4629,-.5 474.6797,-.5"/>
<text text-anchor="middle" x="494.0713" y="-6.5" font-family="Helvetica,sans-Serif" font-size="10.00" fill="#000000">array</text>
</a>
</g>
</g>
<!-- Node6&#45;&gt;Node9 -->
<g id="edge8" class="edge">
<title>Node6&#45;&gt;Node9</title>
<path fill="none" stroke="#191970" d="M350.0603,-55.4387C377.2282,-46.9249 419.2151,-33.7124 464.6756,-19.1041"/>
<polygon fill="#191970" stroke="#191970" points="465.9778,-22.3618 474.425,-15.9668 463.8335,-15.6983 465.9778,-22.3618"/>
</g>
</g>
</svg>
