<?xml version="1.0" encoding="UTF-8" standalone="no"?>
<!DOCTYPE svg PUBLIC "-//W3C//DTD SVG 1.1//EN"
 "http://www.w3.org/Graphics/SVG/1.1/DTD/svg11.dtd">
<!-- Generated by graphviz version 2.40.1 (20161225.0304)
 -->
<!-- Title: include/filament/Renderer.h Pages: 1 -->
<svg width="557pt" height="192pt"
 viewBox="0.00 0.00 557.42 192.00" xmlns="http://www.w3.org/2000/svg" xmlns:xlink="http://www.w3.org/1999/xlink">
<g id="graph0" class="graph" transform="scale(1 1) rotate(0) translate(4 188)">
<title>include/filament/Renderer.h</title>
<!-- Node1 -->
<g id="node1" class="node">
<title>Node1</title>
<g id="a_node1"><a xlink:title=" ">
<polygon fill="#bfbfbf" stroke="#000000" points="138.4263,-165.5 138.4263,-183.5 276.1694,-183.5 276.1694,-165.5 138.4263,-165.5"/>
<text text-anchor="middle" x="207.2979" y="-171.5" font-family="Helvetica,sans-Serif" font-size="10.00" fill="#000000">include/filament/Renderer.h</text>
</a>
</g>
</g>
<!-- Node2 -->
<g id="node2" class="node">
<title>Node2</title>
<g id="a_node2"><a xlink:href="_filament_a_p_i_8h_source.html" target="_top" xlink:title=" ">
<polygon fill="none" stroke="#000000" points="0,-110.5 0,-128.5 116.5957,-128.5 116.5957,-110.5 0,-110.5"/>
<text text-anchor="middle" x="58.2979" y="-116.5" font-family="Helvetica,sans-Serif" font-size="10.00" fill="#000000">filament/FilamentAPI.h</text>
</a>
</g>
</g>
<!-- Node1&#45;&gt;Node2 -->
<g id="edge1" class="edge">
<title>Node1&#45;&gt;Node2</title>
<path fill="none" stroke="#191970" d="M182.6935,-165.4179C158.1058,-156.3419 120.0985,-142.3123 92.5646,-132.1488"/>
<polygon fill="#191970" stroke="#191970" points="93.532,-128.7751 82.9387,-128.5956 91.108,-135.342 93.532,-128.7751"/>
</g>
<!-- Node3 -->
<g id="node3" class="node">
<title>Node3</title>
<g id="a_node3"><a xlink:title=" ">
<polygon fill="none" stroke="#bfbfbf" points="17.2266,-55.5 17.2266,-73.5 99.3691,-73.5 99.3691,-55.5 17.2266,-55.5"/>
<text text-anchor="middle" x="58.2979" y="-61.5" font-family="Helvetica,sans-Serif" font-size="10.00" fill="#000000">utils/compiler.h</text>
</a>
</g>
</g>
<!-- Node1&#45;&gt;Node3 -->
<g id="edge16" class="edge">
<title>Node1&#45;&gt;Node3</title>
<path fill="none" stroke="#191970" d="M196.3465,-165.4864C180.7985,-152.782 151.3196,-129.0341 125.2979,-110 110.729,-99.3434 93.9234,-87.9328 80.788,-79.2043"/>
<polygon fill="#191970" stroke="#191970" points="82.6261,-76.2239 72.3531,-73.6322 78.7677,-82.0645 82.6261,-76.2239"/>
</g>
<!-- Node5 -->
<g id="node5" class="node">
<title>Node5</title>
<g id="a_node5"><a xlink:href="_viewport_8h.html" target="_top" xlink:title=" ">
<polygon fill="none" stroke="#000000" points="195.8662,-110.5 195.8662,-128.5 296.7295,-128.5 296.7295,-110.5 195.8662,-110.5"/>
<text text-anchor="middle" x="246.2979" y="-116.5" font-family="Helvetica,sans-Serif" font-size="10.00" fill="#000000">filament/Viewport.h</text>
</a>
</g>
</g>
<!-- Node1&#45;&gt;Node5 -->
<g id="edge4" class="edge">
<title>Node1&#45;&gt;Node5</title>
<path fill="none" stroke="#191970" d="M213.7379,-165.4179C219.1811,-157.7415 227.137,-146.5217 233.8218,-137.0945"/>
<polygon fill="#191970" stroke="#191970" points="236.7886,-138.9613 239.7179,-128.7795 231.0785,-134.9123 236.7886,-138.9613"/>
</g>
<!-- Node10 -->
<g id="node10" class="node">
<title>Node10</title>
<g id="a_node10"><a xlink:title=" ">
<polygon fill="none" stroke="#bfbfbf" points="501.1772,-.5 501.1772,-18.5 549.4185,-18.5 549.4185,-.5 501.1772,-.5"/>
<text text-anchor="middle" x="525.2979" y="-6.5" font-family="Helvetica,sans-Serif" font-size="10.00" fill="#000000">stdint.h</text>
</a>
</g>
</g>
<!-- Node1&#45;&gt;Node10 -->
<g id="edge17" class="edge">
<title>Node1&#45;&gt;Node10</title>
<path fill="none" stroke="#191970" d="M275.3652,-165.483C338.4515,-153.973 431.5981,-128.5626 493.2979,-74 506.8786,-61.9902 515.3421,-42.8866 520.1278,-28.5815"/>
<polygon fill="#191970" stroke="#191970" points="523.5489,-29.3597 523.0943,-18.7746 516.8487,-27.3329 523.5489,-29.3597"/>
</g>
<!-- Node2&#45;&gt;Node3 -->
<g id="edge2" class="edge">
<title>Node2&#45;&gt;Node3</title>
<path fill="none" stroke="#191970" d="M58.2979,-110.4179C58.2979,-103.2164 58.2979,-92.8962 58.2979,-83.8632"/>
<polygon fill="#191970" stroke="#191970" points="61.798,-83.7794 58.2979,-73.7795 54.798,-83.7795 61.798,-83.7794"/>
</g>
<!-- Node4 -->
<g id="node4" class="node">
<title>Node4</title>
<g id="a_node4"><a xlink:title=" ">
<polygon fill="none" stroke="#bfbfbf" points="174.5073,-.5 174.5073,-18.5 226.0884,-18.5 226.0884,-.5 174.5073,-.5"/>
<text text-anchor="middle" x="200.2979" y="-6.5" font-family="Helvetica,sans-Serif" font-size="10.00" fill="#000000">stddef.h</text>
</a>
</g>
</g>
<!-- Node2&#45;&gt;Node4 -->
<g id="edge3" class="edge">
<title>Node2&#45;&gt;Node4</title>
<path fill="none" stroke="#191970" d="M42.5083,-110.4839C22.5999,-97.9748 -7.2568,-74.6715 8.2979,-55 27.3905,-30.8541 114.2997,-18.1861 164.3991,-12.7805"/>
<polygon fill="#191970" stroke="#191970" points="164.9069,-16.2468 174.4934,-11.7357 164.1862,-9.284 164.9069,-16.2468"/>
</g>
<!-- Node5&#45;&gt;Node3 -->
<g id="edge11" class="edge">
<title>Node5&#45;&gt;Node3</title>
<path fill="none" stroke="#191970" d="M215.2535,-110.4179C183.4547,-101.115 133.8671,-86.608 98.9546,-76.3943"/>
<polygon fill="#191970" stroke="#191970" points="99.6564,-72.9529 89.0759,-73.5042 97.6908,-79.6713 99.6564,-72.9529"/>
</g>
<!-- Node5&#45;&gt;Node4 -->
<g id="edge14" class="edge">
<title>Node5&#45;&gt;Node4</title>
<path fill="none" stroke="#191970" d="M260.1643,-110.494C277.3119,-98.1876 302.7954,-75.322 290.2979,-55 283.7975,-44.4298 256.9021,-31.6152 234.1907,-22.2824"/>
<polygon fill="#191970" stroke="#191970" points="235.3693,-18.9842 224.785,-18.5125 232.765,-25.4818 235.3693,-18.9842"/>
</g>
<!-- Node6 -->
<g id="node6" class="node">
<title>Node6</title>
<g id="a_node6"><a xlink:href="_driver_enums_8h.html" target="_top" xlink:title=" ">
<polygon fill="none" stroke="#000000" points="336.9409,-55.5 336.9409,-73.5 459.6548,-73.5 459.6548,-55.5 336.9409,-55.5"/>
<text text-anchor="middle" x="398.2979" y="-61.5" font-family="Helvetica,sans-Serif" font-size="10.00" fill="#000000">backend/DriverEnums.h</text>
</a>
</g>
</g>
<!-- Node5&#45;&gt;Node6 -->
<g id="edge5" class="edge">
<title>Node5&#45;&gt;Node6</title>
<path fill="none" stroke="#191970" d="M271.3976,-110.4179C296.6658,-101.2748 335.827,-87.1046 363.9623,-76.924"/>
<polygon fill="#191970" stroke="#191970" points="365.201,-80.198 373.4135,-73.5042 362.8192,-73.6156 365.201,-80.198"/>
</g>
<!-- Node5&#45;&gt;Node10 -->
<g id="edge15" class="edge">
<title>Node5&#45;&gt;Node10</title>
<path fill="none" stroke="#191970" d="M296.8205,-112.9347C353.0253,-104.9752 439.694,-90.5527 468.2979,-74 487.8206,-62.7024 504.1369,-42.305 514.2412,-27.4655"/>
<polygon fill="#191970" stroke="#191970" points="517.4434,-28.9608 519.9553,-18.668 511.573,-25.1478 517.4434,-28.9608"/>
</g>
<!-- Node11 -->
<g id="node11" class="node">
<title>Node11</title>
<g id="a_node11"><a xlink:title=" ">
<polygon fill="none" stroke="#bfbfbf" points="117.5591,-55.5 117.5591,-73.5 193.0366,-73.5 193.0366,-55.5 117.5591,-55.5"/>
<text text-anchor="middle" x="155.2979" y="-61.5" font-family="Helvetica,sans-Serif" font-size="10.00" fill="#000000">math/scalar.h</text>
</a>
</g>
</g>
<!-- Node5&#45;&gt;Node11 -->
<g id="edge12" class="edge">
<title>Node5&#45;&gt;Node11</title>
<path fill="none" stroke="#191970" d="M231.2711,-110.4179C217.0447,-101.8195 195.4626,-88.7754 178.9321,-78.7844"/>
<polygon fill="#191970" stroke="#191970" points="180.7157,-75.7729 170.347,-73.5956 177.0949,-81.7637 180.7157,-75.7729"/>
</g>
<!-- Node12 -->
<g id="node12" class="node">
<title>Node12</title>
<g id="a_node12"><a xlink:title=" ">
<polygon fill="none" stroke="#bfbfbf" points="211.0615,-55.5 211.0615,-73.5 281.5342,-73.5 281.5342,-55.5 211.0615,-55.5"/>
<text text-anchor="middle" x="246.2979" y="-61.5" font-family="Helvetica,sans-Serif" font-size="10.00" fill="#000000">math/vec2.h</text>
</a>
</g>
</g>
<!-- Node5&#45;&gt;Node12 -->
<g id="edge13" class="edge">
<title>Node5&#45;&gt;Node12</title>
<path fill="none" stroke="#191970" d="M246.2979,-110.4179C246.2979,-103.2164 246.2979,-92.8962 246.2979,-83.8632"/>
<polygon fill="#191970" stroke="#191970" points="249.798,-83.7794 246.2979,-73.7795 242.798,-83.7795 249.798,-83.7794"/>
</g>
<!-- Node6&#45;&gt;Node4 -->
<g id="edge9" class="edge">
<title>Node6&#45;&gt;Node4</title>
<path fill="none" stroke="#191970" d="M365.6022,-55.4179C329.8599,-45.4895 272.778,-29.6334 235.9193,-19.3948"/>
<polygon fill="#191970" stroke="#191970" points="236.666,-15.9698 226.094,-16.6656 234.7924,-22.7144 236.666,-15.9698"/>
</g>
<!-- Node7 -->
<g id="node7" class="node">
<title>Node7</title>
<g id="a_node7"><a xlink:title=" ">
<polygon fill="none" stroke="#bfbfbf" points="301.1108,-.5 301.1108,-18.5 395.4849,-18.5 395.4849,-.5 301.1108,-.5"/>
<text text-anchor="middle" x="348.2979" y="-6.5" font-family="Helvetica,sans-Serif" font-size="10.00" fill="#000000">utils/unwindows.h</text>
</a>
</g>
</g>
<!-- Node6&#45;&gt;Node7 -->
<g id="edge6" class="edge">
<title>Node6&#45;&gt;Node7</title>
<path fill="none" stroke="#191970" d="M390.0414,-55.4179C382.8471,-47.5041 372.229,-35.8243 363.5025,-26.2251"/>
<polygon fill="#191970" stroke="#191970" points="366.0503,-23.8245 356.7337,-18.7795 360.8707,-28.5332 366.0503,-23.8245"/>
</g>
<!-- Node8 -->
<g id="node8" class="node">
<title>Node8</title>
<g id="a_node8"><a xlink:title=" ">
<polygon fill="none" stroke="#bfbfbf" points="413.0615,-.5 413.0615,-18.5 483.5342,-18.5 483.5342,-.5 413.0615,-.5"/>
<text text-anchor="middle" x="448.2979" y="-6.5" font-family="Helvetica,sans-Serif" font-size="10.00" fill="#000000">math/vec4.h</text>
</a>
</g>
</g>
<!-- Node6&#45;&gt;Node8 -->
<g id="edge7" class="edge">
<title>Node6&#45;&gt;Node8</title>
<path fill="none" stroke="#191970" d="M406.5543,-55.4179C413.7486,-47.5041 424.3667,-35.8243 433.0932,-26.2251"/>
<polygon fill="#191970" stroke="#191970" points="435.725,-28.5332 439.862,-18.7795 430.5454,-23.8245 435.725,-28.5332"/>
</g>
<!-- Node9 -->
<g id="node9" class="node">
<title>Node9</title>
<g id="a_node9"><a xlink:title=" ">
<polygon fill="none" stroke="#bfbfbf" points="243.9063,-.5 243.9063,-18.5 282.6895,-18.5 282.6895,-.5 243.9063,-.5"/>
<text text-anchor="middle" x="263.2979" y="-6.5" font-family="Helvetica,sans-Serif" font-size="10.00" fill="#000000">array</text>
</a>
</g>
</g>
<!-- Node6&#45;&gt;Node9 -->
<g id="edge8" class="edge">
<title>Node6&#45;&gt;Node9</title>
<path fill="none" stroke="#191970" d="M376.0053,-55.4179C353.1299,-46.0982 317.4343,-31.5556 292.3571,-21.3389"/>
<polygon fill="#191970" stroke="#191970" points="293.5682,-18.0531 282.9867,-17.5214 290.9271,-24.5357 293.5682,-18.0531"/>
</g>
<!-- Node6&#45;&gt;Node10 -->
<g id="edge10" class="edge">
<title>Node6&#45;&gt;Node10</title>
<path fill="none" stroke="#191970" d="M419.2693,-55.4179C439.859,-46.5011 471.489,-32.803 494.8473,-22.6873"/>
<polygon fill="#191970" stroke="#191970" points="496.5097,-25.7815 504.2952,-18.5956 493.7278,-19.358 496.5097,-25.7815"/>
</g>
</g>
</svg>
