<?xml version="1.0" encoding="UTF-8" standalone="no"?>
<!DOCTYPE svg PUBLIC "-//W3C//DTD SVG 1.1//EN"
 "http://www.w3.org/Graphics/SVG/1.1/DTD/svg11.dtd">
<!-- Generated by graphviz version 2.40.1 (20161225.0304)
 -->
<!-- Title: include/filament/RenderTarget.h Pages: 1 -->
<svg width="484pt" height="137pt"
 viewBox="0.00 0.00 484.19 137.00" xmlns="http://www.w3.org/2000/svg" xmlns:xlink="http://www.w3.org/1999/xlink">
<g id="graph0" class="graph" transform="scale(1 1) rotate(0) translate(4 133)">
<title>include/filament/RenderTarget.h</title>
<!-- Node1 -->
<g id="node1" class="node">
<title>Node1</title>
<g id="a_node1"><a xlink:title=" ">
<polygon fill="#bfbfbf" stroke="#000000" points="91.4756,-110.5 91.4756,-128.5 248.667,-128.5 248.667,-110.5 91.4756,-110.5"/>
<text text-anchor="middle" x="170.0713" y="-116.5" font-family="Helvetica,sans-Serif" font-size="10.00" fill="#000000">include/filament/RenderTarget.h</text>
</a>
</g>
</g>
<!-- Node2 -->
<g id="node2" class="node">
<title>Node2</title>
<g id="a_node2"><a xlink:href="_filament_a_p_i_8h_source.html" target="_top" xlink:title=" ">
<polygon fill="none" stroke="#000000" points="25.7734,-55.5 25.7734,-73.5 142.3691,-73.5 142.3691,-55.5 25.7734,-55.5"/>
<text text-anchor="middle" x="84.0713" y="-61.5" font-family="Helvetica,sans-Serif" font-size="10.00" fill="#000000">filament/FilamentAPI.h</text>
</a>
</g>
</g>
<!-- Node1&#45;&gt;Node2 -->
<g id="edge1" class="edge">
<title>Node1&#45;&gt;Node2</title>
<path fill="none" stroke="#191970" d="M155.8701,-110.4179C142.55,-101.8992 122.4063,-89.0166 106.8421,-79.0627"/>
<polygon fill="#191970" stroke="#191970" points="108.6038,-76.0348 98.2935,-73.5956 104.8323,-81.932 108.6038,-76.0348"/>
</g>
<!-- Node4 -->
<g id="node4" class="node">
<title>Node4</title>
<g id="a_node4"><a xlink:title=" ">
<polygon fill="none" stroke="#bfbfbf" points="100.2808,-.5 100.2808,-18.5 151.8618,-18.5 151.8618,-.5 100.2808,-.5"/>
<text text-anchor="middle" x="126.0713" y="-6.5" font-family="Helvetica,sans-Serif" font-size="10.00" fill="#000000">stddef.h</text>
</a>
</g>
</g>
<!-- Node1&#45;&gt;Node4 -->
<g id="edge10" class="edge">
<title>Node1&#45;&gt;Node4</title>
<path fill="none" stroke="#191970" d="M167.9777,-110.0973C164.9865,-97.3413 158.9669,-73.9679 151.0713,-55 147.1378,-45.5504 141.7745,-35.5309 137.024,-27.3066"/>
<polygon fill="#191970" stroke="#191970" points="139.9744,-25.4203 131.8512,-18.6184 133.9597,-29.0013 139.9744,-25.4203"/>
</g>
<!-- Node5 -->
<g id="node5" class="node">
<title>Node5</title>
<g id="a_node5"><a xlink:href="_driver_enums_8h.html" target="_top" xlink:title=" ">
<polygon fill="none" stroke="#000000" points="197.7144,-55.5 197.7144,-73.5 320.4282,-73.5 320.4282,-55.5 197.7144,-55.5"/>
<text text-anchor="middle" x="259.0713" y="-61.5" font-family="Helvetica,sans-Serif" font-size="10.00" fill="#000000">backend/DriverEnums.h</text>
</a>
</g>
</g>
<!-- Node1&#45;&gt;Node5 -->
<g id="edge4" class="edge">
<title>Node1&#45;&gt;Node5</title>
<path fill="none" stroke="#191970" d="M184.7678,-110.4179C198.5527,-101.8992 219.399,-89.0166 235.5062,-79.0627"/>
<polygon fill="#191970" stroke="#191970" points="237.6861,-81.83 244.3529,-73.5956 234.0062,-75.8753 237.6861,-81.83"/>
</g>
<!-- Node3 -->
<g id="node3" class="node">
<title>Node3</title>
<g id="a_node3"><a xlink:title=" ">
<polygon fill="none" stroke="#bfbfbf" points="0,-.5 0,-18.5 82.1426,-18.5 82.1426,-.5 0,-.5"/>
<text text-anchor="middle" x="41.0713" y="-6.5" font-family="Helvetica,sans-Serif" font-size="10.00" fill="#000000">utils/compiler.h</text>
</a>
</g>
</g>
<!-- Node2&#45;&gt;Node3 -->
<g id="edge2" class="edge">
<title>Node2&#45;&gt;Node3</title>
<path fill="none" stroke="#191970" d="M76.9707,-55.4179C70.9073,-47.6624 62.0162,-36.29 54.5995,-26.8035"/>
<polygon fill="#191970" stroke="#191970" points="57.2427,-24.5018 48.3261,-18.7795 51.7281,-28.8133 57.2427,-24.5018"/>
</g>
<!-- Node2&#45;&gt;Node4 -->
<g id="edge3" class="edge">
<title>Node2&#45;&gt;Node4</title>
<path fill="none" stroke="#191970" d="M91.0067,-55.4179C96.9291,-47.6624 105.6135,-36.29 112.8577,-26.8035"/>
<polygon fill="#191970" stroke="#191970" points="115.6977,-28.8514 118.9852,-18.7795 110.1343,-24.6029 115.6977,-28.8514"/>
</g>
<!-- Node5&#45;&gt;Node4 -->
<g id="edge8" class="edge">
<title>Node5&#45;&gt;Node4</title>
<path fill="none" stroke="#191970" d="M237.109,-55.4179C215.3541,-46.4215 181.8299,-32.5581 157.3073,-22.4172"/>
<polygon fill="#191970" stroke="#191970" points="158.6447,-19.1828 148.0662,-18.5956 155.9696,-25.6515 158.6447,-19.1828"/>
</g>
<!-- Node6 -->
<g id="node6" class="node">
<title>Node6</title>
<g id="a_node6"><a xlink:title=" ">
<polygon fill="none" stroke="#bfbfbf" points="169.8843,-.5 169.8843,-18.5 264.2583,-18.5 264.2583,-.5 169.8843,-.5"/>
<text text-anchor="middle" x="217.0713" y="-6.5" font-family="Helvetica,sans-Serif" font-size="10.00" fill="#000000">utils/unwindows.h</text>
</a>
</g>
</g>
<!-- Node5&#45;&gt;Node6 -->
<g id="edge5" class="edge">
<title>Node5&#45;&gt;Node6</title>
<path fill="none" stroke="#191970" d="M252.1358,-55.4179C246.2135,-47.6624 237.5291,-36.29 230.2849,-26.8035"/>
<polygon fill="#191970" stroke="#191970" points="233.0083,-24.6029 224.1574,-18.7795 227.4449,-28.8514 233.0083,-24.6029"/>
</g>
<!-- Node7 -->
<g id="node7" class="node">
<title>Node7</title>
<g id="a_node7"><a xlink:title=" ">
<polygon fill="none" stroke="#bfbfbf" points="281.835,-.5 281.835,-18.5 352.3076,-18.5 352.3076,-.5 281.835,-.5"/>
<text text-anchor="middle" x="317.0713" y="-6.5" font-family="Helvetica,sans-Serif" font-size="10.00" fill="#000000">math/vec4.h</text>
</a>
</g>
</g>
<!-- Node5&#45;&gt;Node7 -->
<g id="edge6" class="edge">
<title>Node5&#45;&gt;Node7</title>
<path fill="none" stroke="#191970" d="M268.6488,-55.4179C277.0777,-47.425 289.5578,-35.5903 299.7369,-25.9377"/>
<polygon fill="#191970" stroke="#191970" points="302.4377,-28.2001 307.2857,-18.7795 297.6211,-23.1207 302.4377,-28.2001"/>
</g>
<!-- Node8 -->
<g id="node8" class="node">
<title>Node8</title>
<g id="a_node8"><a xlink:title=" ">
<polygon fill="none" stroke="#bfbfbf" points="370.6797,-.5 370.6797,-18.5 409.4629,-18.5 409.4629,-.5 370.6797,-.5"/>
<text text-anchor="middle" x="390.0713" y="-6.5" font-family="Helvetica,sans-Serif" font-size="10.00" fill="#000000">array</text>
</a>
</g>
</g>
<!-- Node5&#45;&gt;Node8 -->
<g id="edge7" class="edge">
<title>Node5&#45;&gt;Node8</title>
<path fill="none" stroke="#191970" d="M280.7033,-55.4179C302.675,-46.1931 336.8349,-31.8511 361.1268,-21.6523"/>
<polygon fill="#191970" stroke="#191970" points="362.6823,-24.7952 370.5477,-17.6969 359.9725,-18.341 362.6823,-24.7952"/>
</g>
<!-- Node9 -->
<g id="node9" class="node">
<title>Node9</title>
<g id="a_node9"><a xlink:title=" ">
<polygon fill="none" stroke="#bfbfbf" points="427.9507,-.5 427.9507,-18.5 476.1919,-18.5 476.1919,-.5 427.9507,-.5"/>
<text text-anchor="middle" x="452.0713" y="-6.5" font-family="Helvetica,sans-Serif" font-size="10.00" fill="#000000">stdint.h</text>
</a>
</g>
</g>
<!-- Node5&#45;&gt;Node9 -->
<g id="edge9" class="edge">
<title>Node5&#45;&gt;Node9</title>
<path fill="none" stroke="#191970" d="M290.9413,-55.4179C325.9245,-45.4486 381.88,-29.5027 417.7922,-19.2687"/>
<polygon fill="#191970" stroke="#191970" points="419.1439,-22.5229 427.8018,-16.4162 417.2254,-15.7909 419.1439,-22.5229"/>
</g>
</g>
</svg>
