<?xml version="1.0" encoding="UTF-8" standalone="no"?>
<!DOCTYPE svg PUBLIC "-//W3C//DTD SVG 1.1//EN"
 "http://www.w3.org/Graphics/SVG/1.1/DTD/svg11.dtd">
<!-- Generated by graphviz version 2.40.1 (20161225.0304)
 -->
<!-- Title: include/filament/Texture.h Pages: 1 -->
<svg width="148pt" height="147pt"
 viewBox="0.00 0.00 147.96 147.00" xmlns="http://www.w3.org/2000/svg" xmlns:xlink="http://www.w3.org/1999/xlink">
<g id="graph0" class="graph" transform="scale(1 1) rotate(0) translate(4 143)">
<title>include/filament/Texture.h</title>
<!-- Node1 -->
<g id="node1" class="node">
<title>Node1</title>
<g id="a_node1"><a xlink:title=" ">
<polygon fill="#bfbfbf" stroke="#000000" points="5.2856,-120.5 5.2856,-138.5 134.6792,-138.5 134.6792,-120.5 5.2856,-120.5"/>
<text text-anchor="middle" x="69.9824" y="-126.5" font-family="Helvetica,sans-Serif" font-size="10.00" fill="#000000">include/filament/Texture.h</text>
</a>
</g>
</g>
<!-- Node2 -->
<g id="node2" class="node">
<title>Node2</title>
<g id="a_node2"><a xlink:href="_material_8h_source.html" target="_top" xlink:title=" ">
<polygon fill="none" stroke="#000000" points="3.8989,-65.5 3.8989,-83.5 136.0659,-83.5 136.0659,-65.5 3.8989,-65.5"/>
<text text-anchor="middle" x="69.9824" y="-71.5" font-family="Helvetica,sans-Serif" font-size="10.00" fill="#000000">include/filament/Material.h</text>
</a>
</g>
</g>
<!-- Node1&#45;&gt;Node2 -->
<g id="edge1" class="edge">
<title>Node1&#45;&gt;Node2</title>
<path fill="none" stroke="#191970" d="M69.9824,-110.383C69.9824,-101.3738 69.9824,-91.0373 69.9824,-83.7795"/>
<polygon fill="#191970" stroke="#191970" points="66.4825,-110.4178 69.9824,-120.4179 73.4825,-110.4179 66.4825,-110.4178"/>
</g>
<!-- Node3 -->
<g id="node3" class="node">
<title>Node3</title>
<g id="a_node3"><a xlink:href="_renderable_manager_8h_source.html" target="_top" xlink:title=" ">
<polygon fill="none" stroke="#000000" points="0,-.5 0,-28.5 139.9648,-28.5 139.9648,-.5 0,-.5"/>
<text text-anchor="start" x="8" y="-16.5" font-family="Helvetica,sans-Serif" font-size="10.00" fill="#000000">include/filament/Renderable</text>
<text text-anchor="middle" x="69.9824" y="-6.5" font-family="Helvetica,sans-Serif" font-size="10.00" fill="#000000">Manager.h</text>
</a>
</g>
</g>
<!-- Node2&#45;&gt;Node3 -->
<g id="edge2" class="edge">
<title>Node2&#45;&gt;Node3</title>
<path fill="none" stroke="#191970" d="M69.9824,-55.1865C69.9824,-46.6283 69.9824,-36.7354 69.9824,-28.8477"/>
<polygon fill="#191970" stroke="#191970" points="66.4825,-55.3873 69.9824,-65.3873 73.4825,-55.3873 66.4825,-55.3873"/>
</g>
</g>
</svg>
