<?xml version="1.0" encoding="UTF-8" standalone="no"?>
<!DOCTYPE svg PUBLIC "-//W3C//DTD SVG 1.1//EN"
 "http://www.w3.org/Graphics/SVG/1.1/DTD/svg11.dtd">
<!-- Generated by graphviz version 2.40.1 (20161225.0304)
 -->
<!-- Title: include/filament/TextureSampler.h Pages: 1 -->
<svg width="226pt" height="222pt"
 viewBox="0.00 0.00 226.00 222.00" xmlns="http://www.w3.org/2000/svg" xmlns:xlink="http://www.w3.org/1999/xlink">
<g id="graph0" class="graph" transform="scale(1 1) rotate(0) translate(4 218)">
<title>include/filament/TextureSampler.h</title>
<!-- Node1 -->
<g id="node1" class="node">
<title>Node1</title>
<g id="a_node1"><a xlink:title=" ">
<polygon fill="#bfbfbf" stroke="#000000" points="50.5566,-185.5 50.5566,-213.5 171.6104,-213.5 171.6104,-185.5 50.5566,-185.5"/>
<text text-anchor="start" x="58.5566" y="-201.5" font-family="Helvetica,sans-Serif" font-size="10.00" fill="#000000">include/filament/Texture</text>
<text text-anchor="middle" x="111.0835" y="-191.5" font-family="Helvetica,sans-Serif" font-size="10.00" fill="#000000">Sampler.h</text>
</a>
</g>
</g>
<!-- Node2 -->
<g id="node2" class="node">
<title>Node2</title>
<g id="a_node2"><a xlink:href="_material_8h_source.html" target="_top" xlink:title=" ">
<polygon fill="none" stroke="#000000" points="0,-65.5 0,-83.5 132.167,-83.5 132.167,-65.5 0,-65.5"/>
<text text-anchor="middle" x="66.0835" y="-71.5" font-family="Helvetica,sans-Serif" font-size="10.00" fill="#000000">include/filament/Material.h</text>
</a>
</g>
</g>
<!-- Node1&#45;&gt;Node2 -->
<g id="edge1" class="edge">
<title>Node1&#45;&gt;Node2</title>
<path fill="none" stroke="#191970" d="M97.818,-176.4353C93.3387,-167.9942 88.5904,-158.2445 85.0835,-149 76.4668,-126.2861 70.4988,-98.2138 67.7685,-83.8825"/>
<polygon fill="#191970" stroke="#191970" points="94.8068,-178.2236 102.6804,-185.3129 100.9462,-174.8609 94.8068,-178.2236"/>
</g>
<!-- Node4 -->
<g id="node4" class="node">
<title>Node4</title>
<g id="a_node4"><a xlink:href="_material_instance_8h_source.html" target="_top" xlink:title=" ">
<polygon fill="none" stroke="#000000" points="94.1699,-120.5 94.1699,-148.5 217.9971,-148.5 217.9971,-120.5 94.1699,-120.5"/>
<text text-anchor="start" x="102.1699" y="-136.5" font-family="Helvetica,sans-Serif" font-size="10.00" fill="#000000">include/filament/Material</text>
<text text-anchor="middle" x="156.0835" y="-126.5" font-family="Helvetica,sans-Serif" font-size="10.00" fill="#000000">Instance.h</text>
</a>
</g>
</g>
<!-- Node1&#45;&gt;Node4 -->
<g id="edge3" class="edge">
<title>Node1&#45;&gt;Node4</title>
<path fill="none" stroke="#191970" d="M126.5514,-177.1575C133.1136,-167.6788 140.563,-156.9186 146.3382,-148.5765"/>
<polygon fill="#191970" stroke="#191970" points="123.6623,-175.1818 120.8478,-185.396 129.4176,-179.1663 123.6623,-175.1818"/>
</g>
<!-- Node3 -->
<g id="node3" class="node">
<title>Node3</title>
<g id="a_node3"><a xlink:href="_renderable_manager_8h_source.html" target="_top" xlink:title=" ">
<polygon fill="none" stroke="#000000" points="43.1011,-.5 43.1011,-28.5 183.0659,-28.5 183.0659,-.5 43.1011,-.5"/>
<text text-anchor="start" x="51.1011" y="-16.5" font-family="Helvetica,sans-Serif" font-size="10.00" fill="#000000">include/filament/Renderable</text>
<text text-anchor="middle" x="113.0835" y="-6.5" font-family="Helvetica,sans-Serif" font-size="10.00" fill="#000000">Manager.h</text>
</a>
</g>
</g>
<!-- Node2&#45;&gt;Node3 -->
<g id="edge2" class="edge">
<title>Node2&#45;&gt;Node3</title>
<path fill="none" stroke="#191970" d="M79.4318,-57.4596C86.5105,-48.423 95.1104,-37.4444 101.8445,-28.8477"/>
<polygon fill="#191970" stroke="#191970" points="76.6331,-55.3567 73.2218,-65.3873 82.1437,-59.6733 76.6331,-55.3567"/>
</g>
<!-- Node4&#45;&gt;Node2 -->
<g id="edge4" class="edge">
<title>Node4&#45;&gt;Node2</title>
<path fill="none" stroke="#191970" d="M126.3562,-114.6818C110.6108,-104.1849 92.0351,-91.8011 79.7098,-83.5842"/>
<polygon fill="#191970" stroke="#191970" points="124.4928,-117.646 134.7548,-120.2808 128.3757,-111.8216 124.4928,-117.646"/>
</g>
<!-- Node4&#45;&gt;Node3 -->
<g id="edge5" class="edge">
<title>Node4&#45;&gt;Node3</title>
<path fill="none" stroke="#191970" d="M152.6538,-110.2798C150.2879,-96.6909 146.5648,-79.5883 141.0835,-65 136.2177,-52.0497 128.4613,-38.3867 122.3448,-28.5426"/>
<polygon fill="#191970" stroke="#191970" points="149.2234,-110.9926 154.268,-120.3094 156.1345,-109.8803 149.2234,-110.9926"/>
</g>
</g>
</svg>
