<?xml version="1.0" encoding="UTF-8" standalone="no"?>
<!DOCTYPE svg PUBLIC "-//W3C//DTD SVG 1.1//EN"
 "http://www.w3.org/Graphics/SVG/1.1/DTD/svg11.dtd">
<!-- Generated by graphviz version 2.40.1 (20161225.0304)
 -->
<!-- Title: include/filament/Texture.h Pages: 1 -->
<svg width="699pt" height="192pt"
 viewBox="0.00 0.00 699.46 192.00" xmlns="http://www.w3.org/2000/svg" xmlns:xlink="http://www.w3.org/1999/xlink">
<g id="graph0" class="graph" transform="scale(1 1) rotate(0) translate(4 188)">
<title>include/filament/Texture.h</title>
<!-- Node1 -->
<g id="node1" class="node">
<title>Node1</title>
<g id="a_node1"><a xlink:title=" ">
<polygon fill="#bfbfbf" stroke="#000000" points="92.371,-165.5 92.371,-183.5 221.7645,-183.5 221.7645,-165.5 92.371,-165.5"/>
<text text-anchor="middle" x="157.0678" y="-171.5" font-family="Helvetica,sans-Serif" font-size="10.00" fill="#000000">include/filament/Texture.h</text>
</a>
</g>
</g>
<!-- Node2 -->
<g id="node2" class="node">
<title>Node2</title>
<g id="a_node2"><a xlink:href="_filament_a_p_i_8h_source.html" target="_top" xlink:title=" ">
<polygon fill="none" stroke="#000000" points="12.7699,-55.5 12.7699,-73.5 129.3656,-73.5 129.3656,-55.5 12.7699,-55.5"/>
<text text-anchor="middle" x="71.0678" y="-61.5" font-family="Helvetica,sans-Serif" font-size="10.00" fill="#000000">filament/FilamentAPI.h</text>
</a>
</g>
</g>
<!-- Node1&#45;&gt;Node2 -->
<g id="edge1" class="edge">
<title>Node1&#45;&gt;Node2</title>
<path fill="none" stroke="#191970" d="M150.03,-165.4982C135.7303,-147.2079 103.0679,-105.4304 84.5427,-81.7354"/>
<polygon fill="#191970" stroke="#191970" points="87.1193,-79.3485 78.2028,-73.6261 81.6047,-83.66 87.1193,-79.3485"/>
</g>
<!-- Node3 -->
<g id="node3" class="node">
<title>Node3</title>
<g id="a_node3"><a xlink:title=" ">
<polygon fill="none" stroke="#bfbfbf" points="91.9965,-.5 91.9965,-18.5 174.1391,-18.5 174.1391,-.5 91.9965,-.5"/>
<text text-anchor="middle" x="133.0678" y="-6.5" font-family="Helvetica,sans-Serif" font-size="10.00" fill="#000000">utils/compiler.h</text>
</a>
</g>
</g>
<!-- Node1&#45;&gt;Node3 -->
<g id="edge20" class="edge">
<title>Node1&#45;&gt;Node3</title>
<path fill="none" stroke="#191970" d="M129.0527,-165.4979C92.6306,-152.1024 30.553,-123.0851 4.0678,-74 -14.6297,-39.348 38.3171,-22.9298 81.9463,-15.4196"/>
<polygon fill="#191970" stroke="#191970" points="82.6121,-18.8577 91.9339,-13.8223 81.5066,-11.9455 82.6121,-18.8577"/>
</g>
<!-- Node4 -->
<g id="node4" class="node">
<title>Node4</title>
<g id="a_node4"><a xlink:title=" ">
<polygon fill="none" stroke="#bfbfbf" points="265.2772,-.5 265.2772,-18.5 316.8583,-18.5 316.8583,-.5 265.2772,-.5"/>
<text text-anchor="middle" x="291.0678" y="-6.5" font-family="Helvetica,sans-Serif" font-size="10.00" fill="#000000">stddef.h</text>
</a>
</g>
</g>
<!-- Node1&#45;&gt;Node4 -->
<g id="edge21" class="edge">
<title>Node1&#45;&gt;Node4</title>
<path fill="none" stroke="#191970" d="M159.4223,-165.3642C165.3548,-143.8541 182.7228,-89.2542 214.0678,-55 226.568,-41.3396 244.1306,-30.5328 259.3269,-22.8852"/>
<polygon fill="#191970" stroke="#191970" points="260.9076,-26.0089 268.4165,-18.5345 257.8854,-19.6949 260.9076,-26.0089"/>
</g>
<!-- Node5 -->
<g id="node5" class="node">
<title>Node5</title>
<g id="a_node5"><a xlink:href="_driver_enums_8h.html" target="_top" xlink:title=" ">
<polygon fill="none" stroke="#000000" points="522.7108,-55.5 522.7108,-73.5 645.4247,-73.5 645.4247,-55.5 522.7108,-55.5"/>
<text text-anchor="middle" x="584.0678" y="-61.5" font-family="Helvetica,sans-Serif" font-size="10.00" fill="#000000">backend/DriverEnums.h</text>
</a>
</g>
</g>
<!-- Node1&#45;&gt;Node5 -->
<g id="edge4" class="edge">
<title>Node1&#45;&gt;Node5</title>
<path fill="none" stroke="#191970" d="M222.0096,-168.2299C301.0803,-160.0709 429.6908,-144.9608 475.0678,-129 508.6452,-117.1896 543.3409,-94.5259 564.3152,-79.4567"/>
<polygon fill="#191970" stroke="#191970" points="566.4233,-82.2511 572.4209,-73.5173 562.2859,-76.6047 566.4233,-82.2511"/>
</g>
<!-- Node10 -->
<g id="node10" class="node">
<title>Node10</title>
<g id="a_node10"><a xlink:href="_pixel_buffer_descriptor_8h.html" target="_top" xlink:title=" ">
<polygon fill="none" stroke="#000000" points="308.0058,-110.5 308.0058,-128.5 466.1298,-128.5 466.1298,-110.5 308.0058,-110.5"/>
<text text-anchor="middle" x="387.0678" y="-116.5" font-family="Helvetica,sans-Serif" font-size="10.00" fill="#000000">backend/PixelBufferDescriptor.h</text>
</a>
</g>
</g>
<!-- Node1&#45;&gt;Node10 -->
<g id="edge10" class="edge">
<title>Node1&#45;&gt;Node10</title>
<path fill="none" stroke="#191970" d="M194.79,-165.4795C234.3145,-156.0279 296.506,-141.1561 339.4018,-130.8984"/>
<polygon fill="#191970" stroke="#191970" points="340.4131,-134.2553 349.3249,-128.5255 338.7851,-127.4473 340.4131,-134.2553"/>
</g>
<!-- Node2&#45;&gt;Node3 -->
<g id="edge2" class="edge">
<title>Node2&#45;&gt;Node3</title>
<path fill="none" stroke="#191970" d="M81.3058,-55.4179C90.4052,-47.3458 103.9214,-35.3556 114.8604,-25.6517"/>
<polygon fill="#191970" stroke="#191970" points="117.4492,-28.0339 122.6073,-18.7795 112.8039,-22.7974 117.4492,-28.0339"/>
</g>
<!-- Node2&#45;&gt;Node4 -->
<g id="edge3" class="edge">
<title>Node2&#45;&gt;Node4</title>
<path fill="none" stroke="#191970" d="M107.3963,-55.4179C148.3495,-45.1796 214.5164,-28.6378 255.256,-18.4529"/>
<polygon fill="#191970" stroke="#191970" points="256.1823,-21.8292 265.0349,-16.0082 254.4845,-15.0382 256.1823,-21.8292"/>
</g>
<!-- Node5&#45;&gt;Node4 -->
<g id="edge8" class="edge">
<title>Node5&#45;&gt;Node4</title>
<path fill="none" stroke="#191970" d="M536.0129,-55.4795C477.2624,-44.4512 379.1982,-26.0433 326.7419,-16.1965"/>
<polygon fill="#191970" stroke="#191970" points="327.358,-12.7511 316.8839,-14.346 326.0665,-19.6309 327.358,-12.7511"/>
</g>
<!-- Node6 -->
<g id="node6" class="node">
<title>Node6</title>
<g id="a_node6"><a xlink:title=" ">
<polygon fill="none" stroke="#bfbfbf" points="451.8808,-.5 451.8808,-18.5 546.2548,-18.5 546.2548,-.5 451.8808,-.5"/>
<text text-anchor="middle" x="499.0678" y="-6.5" font-family="Helvetica,sans-Serif" font-size="10.00" fill="#000000">utils/unwindows.h</text>
</a>
</g>
</g>
<!-- Node5&#45;&gt;Node6 -->
<g id="edge5" class="edge">
<title>Node5&#45;&gt;Node6</title>
<path fill="none" stroke="#191970" d="M570.0318,-55.4179C556.8665,-46.8992 536.957,-34.0166 521.5738,-24.0627"/>
<polygon fill="#191970" stroke="#191970" points="523.4218,-21.0897 513.1246,-18.5956 519.619,-26.9667 523.4218,-21.0897"/>
</g>
<!-- Node7 -->
<g id="node7" class="node">
<title>Node7</title>
<g id="a_node7"><a xlink:title=" ">
<polygon fill="none" stroke="#bfbfbf" points="563.8314,-.5 563.8314,-18.5 634.3041,-18.5 634.3041,-.5 563.8314,-.5"/>
<text text-anchor="middle" x="599.0678" y="-6.5" font-family="Helvetica,sans-Serif" font-size="10.00" fill="#000000">math/vec4.h</text>
</a>
</g>
</g>
<!-- Node5&#45;&gt;Node7 -->
<g id="edge6" class="edge">
<title>Node5&#45;&gt;Node7</title>
<path fill="none" stroke="#191970" d="M586.5447,-55.4179C588.5303,-48.1372 591.3853,-37.669 593.868,-28.5659"/>
<polygon fill="#191970" stroke="#191970" points="597.2824,-29.348 596.537,-18.7795 590.5291,-27.5062 597.2824,-29.348"/>
</g>
<!-- Node8 -->
<g id="node8" class="node">
<title>Node8</title>
<g id="a_node8"><a xlink:title=" ">
<polygon fill="none" stroke="#bfbfbf" points="652.6762,-.5 652.6762,-18.5 691.4594,-18.5 691.4594,-.5 652.6762,-.5"/>
<text text-anchor="middle" x="672.0678" y="-6.5" font-family="Helvetica,sans-Serif" font-size="10.00" fill="#000000">array</text>
</a>
</g>
</g>
<!-- Node5&#45;&gt;Node8 -->
<g id="edge7" class="edge">
<title>Node5&#45;&gt;Node8</title>
<path fill="none" stroke="#191970" d="M598.5992,-55.4179C612.2291,-46.8992 632.8413,-34.0166 648.7674,-24.0627"/>
<polygon fill="#191970" stroke="#191970" points="650.8898,-26.8637 657.5148,-18.5956 647.1798,-20.9277 650.8898,-26.8637"/>
</g>
<!-- Node9 -->
<g id="node9" class="node">
<title>Node9</title>
<g id="a_node9"><a xlink:title=" ">
<polygon fill="none" stroke="#bfbfbf" points="385.9472,-.5 385.9472,-18.5 434.1884,-18.5 434.1884,-.5 385.9472,-.5"/>
<text text-anchor="middle" x="410.0678" y="-6.5" font-family="Helvetica,sans-Serif" font-size="10.00" fill="#000000">stdint.h</text>
</a>
</g>
</g>
<!-- Node5&#45;&gt;Node9 -->
<g id="edge9" class="edge">
<title>Node5&#45;&gt;Node9</title>
<path fill="none" stroke="#191970" d="M555.3352,-55.4179C524.8506,-45.7819 476.7016,-30.5624 444.2793,-20.314"/>
<polygon fill="#191970" stroke="#191970" points="444.9374,-16.8514 434.3475,-17.1746 442.8276,-23.5259 444.9374,-16.8514"/>
</g>
<!-- Node10&#45;&gt;Node3 -->
<g id="edge16" class="edge">
<title>Node10&#45;&gt;Node3</title>
<path fill="none" stroke="#191970" d="M328.8227,-110.4358C294.2053,-103.5485 250.1571,-92.098 214.0678,-74 189.1634,-61.511 164.7256,-40.5034 149.3174,-25.8691"/>
<polygon fill="#191970" stroke="#191970" points="151.7369,-23.34 142.1283,-18.8762 146.8561,-28.3577 151.7369,-23.34"/>
</g>
<!-- Node10&#45;&gt;Node4 -->
<g id="edge18" class="edge">
<title>Node10&#45;&gt;Node4</title>
<path fill="none" stroke="#191970" d="M386.4525,-110.2042C385.128,-96.7303 380.9805,-71.5768 368.0678,-55 357.084,-40.8995 340.4099,-30.2802 325.3834,-22.8624"/>
<polygon fill="#191970" stroke="#191970" points="326.8505,-19.6847 316.3058,-18.6549 323.9068,-26.0357 326.8505,-19.6847"/>
</g>
<!-- Node10&#45;&gt;Node5 -->
<g id="edge15" class="edge">
<title>Node10&#45;&gt;Node5</title>
<path fill="none" stroke="#191970" d="M419.5983,-110.4179C453.0623,-101.0751 505.3272,-86.4834 541.9349,-76.263"/>
<polygon fill="#191970" stroke="#191970" points="543.1258,-79.5644 551.8163,-73.5042 541.2435,-72.8222 543.1258,-79.5644"/>
</g>
<!-- Node10&#45;&gt;Node9 -->
<g id="edge19" class="edge">
<title>Node10&#45;&gt;Node9</title>
<path fill="none" stroke="#191970" d="M390.4071,-110.2059C393.567,-101.0918 398.2363,-86.7477 401.0678,-74 404.405,-58.9753 406.7379,-41.692 408.1909,-28.8001"/>
<polygon fill="#191970" stroke="#191970" points="411.6808,-29.0795 409.2445,-18.7686 404.719,-28.3483 411.6808,-29.0795"/>
</g>
<!-- Node11 -->
<g id="node11" class="node">
<title>Node11</title>
<g id="a_node11"><a xlink:href="_buffer_descriptor_8h.html" target="_top" xlink:title=" ">
<polygon fill="none" stroke="#000000" points="222.8432,-55.5 222.8432,-73.5 359.2924,-73.5 359.2924,-55.5 222.8432,-55.5"/>
<text text-anchor="middle" x="291.0678" y="-61.5" font-family="Helvetica,sans-Serif" font-size="10.00" fill="#000000">backend/BufferDescriptor.h</text>
</a>
</g>
</g>
<!-- Node10&#45;&gt;Node11 -->
<g id="edge11" class="edge">
<title>Node10&#45;&gt;Node11</title>
<path fill="none" stroke="#191970" d="M371.2153,-110.4179C356.2073,-101.8195 333.4393,-88.7754 316.0006,-78.7844"/>
<polygon fill="#191970" stroke="#191970" points="317.3606,-75.5299 306.9438,-73.5956 313.8807,-81.6037 317.3606,-75.5299"/>
</g>
<!-- Node12 -->
<g id="node12" class="node">
<title>Node12</title>
<g id="a_node12"><a xlink:title=" ">
<polygon fill="none" stroke="#bfbfbf" points="453.2821,-55.5 453.2821,-73.5 504.8534,-73.5 504.8534,-55.5 453.2821,-55.5"/>
<text text-anchor="middle" x="479.0678" y="-61.5" font-family="Helvetica,sans-Serif" font-size="10.00" fill="#000000">assert.h</text>
</a>
</g>
</g>
<!-- Node10&#45;&gt;Node12 -->
<g id="edge17" class="edge">
<title>Node10&#45;&gt;Node12</title>
<path fill="none" stroke="#191970" d="M402.2597,-110.4179C416.6424,-101.8195 438.4617,-88.7754 455.1738,-78.7844"/>
<polygon fill="#191970" stroke="#191970" points="457.0661,-81.731 463.8533,-73.5956 453.4742,-75.7228 457.0661,-81.731"/>
</g>
<!-- Node11&#45;&gt;Node3 -->
<g id="edge12" class="edge">
<title>Node11&#45;&gt;Node3</title>
<path fill="none" stroke="#191970" d="M264.9773,-55.4179C238.7116,-46.2748 198.0046,-32.1046 168.7586,-21.924"/>
<polygon fill="#191970" stroke="#191970" points="169.5292,-18.4863 158.9344,-18.5042 167.2279,-25.0973 169.5292,-18.4863"/>
</g>
<!-- Node11&#45;&gt;Node4 -->
<g id="edge13" class="edge">
<title>Node11&#45;&gt;Node4</title>
<path fill="none" stroke="#191970" d="M291.0678,-55.4179C291.0678,-48.2164 291.0678,-37.8962 291.0678,-28.8632"/>
<polygon fill="#191970" stroke="#191970" points="294.5679,-28.7794 291.0678,-18.7795 287.5679,-28.7795 294.5679,-28.7794"/>
</g>
<!-- Node11&#45;&gt;Node9 -->
<g id="edge14" class="edge">
<title>Node11&#45;&gt;Node9</title>
<path fill="none" stroke="#191970" d="M310.7182,-55.4179C329.9248,-46.5409 359.384,-32.9253 381.2418,-22.823"/>
<polygon fill="#191970" stroke="#191970" points="382.7792,-25.9682 390.3881,-18.5956 379.8424,-19.614 382.7792,-25.9682"/>
</g>
</g>
</svg>
