<?xml version="1.0" encoding="UTF-8" standalone="no"?>
<!DOCTYPE svg PUBLIC "-//W3C//DTD SVG 1.1//EN"
 "http://www.w3.org/Graphics/SVG/1.1/DTD/svg11.dtd">
<!-- Generated by graphviz version 2.40.1 (20161225.0304)
 -->
<!-- Title: include/filament/TextureSampler.h Pages: 1 -->
<svg width="453pt" height="147pt"
 viewBox="0.00 0.00 453.47 147.00" xmlns="http://www.w3.org/2000/svg" xmlns:xlink="http://www.w3.org/1999/xlink">
<g id="graph0" class="graph" transform="scale(1 1) rotate(0) translate(4 143)">
<title>include/filament/TextureSampler.h</title>
<!-- Node1 -->
<g id="node1" class="node">
<title>Node1</title>
<g id="a_node1"><a xlink:title=" ">
<polygon fill="#bfbfbf" stroke="#000000" points="279.6602,-110.5 279.6602,-138.5 400.7139,-138.5 400.7139,-110.5 279.6602,-110.5"/>
<text text-anchor="start" x="287.6602" y="-126.5" font-family="Helvetica,sans-Serif" font-size="10.00" fill="#000000">include/filament/Texture</text>
<text text-anchor="middle" x="340.187" y="-116.5" font-family="Helvetica,sans-Serif" font-size="10.00" fill="#000000">Sampler.h</text>
</a>
</g>
</g>
<!-- Node2 -->
<g id="node2" class="node">
<title>Node2</title>
<g id="a_node2"><a xlink:href="_driver_enums_8h.html" target="_top" xlink:title=" ">
<polygon fill="none" stroke="#000000" points="158.8301,-55.5 158.8301,-73.5 281.5439,-73.5 281.5439,-55.5 158.8301,-55.5"/>
<text text-anchor="middle" x="220.187" y="-61.5" font-family="Helvetica,sans-Serif" font-size="10.00" fill="#000000">backend/DriverEnums.h</text>
</a>
</g>
</g>
<!-- Node1&#45;&gt;Node2 -->
<g id="edge1" class="edge">
<title>Node1&#45;&gt;Node2</title>
<path fill="none" stroke="#191970" d="M312.0523,-110.4327C292.6144,-100.7137 266.8908,-87.8519 247.6091,-78.211"/>
<polygon fill="#191970" stroke="#191970" points="248.9587,-74.9728 238.4491,-73.6311 245.8281,-81.2337 248.9587,-74.9728"/>
</g>
<!-- Node8 -->
<g id="node8" class="node">
<title>Node8</title>
<g id="a_node8"><a xlink:title=" ">
<polygon fill="none" stroke="#bfbfbf" points="299.1157,-55.5 299.1157,-73.5 381.2583,-73.5 381.2583,-55.5 299.1157,-55.5"/>
<text text-anchor="middle" x="340.187" y="-61.5" font-family="Helvetica,sans-Serif" font-size="10.00" fill="#000000">utils/compiler.h</text>
</a>
</g>
</g>
<!-- Node1&#45;&gt;Node8 -->
<g id="edge7" class="edge">
<title>Node1&#45;&gt;Node8</title>
<path fill="none" stroke="#191970" d="M340.187,-110.2808C340.187,-102.3776 340.187,-92.4316 340.187,-83.8308"/>
<polygon fill="#191970" stroke="#191970" points="343.6871,-83.5842 340.187,-73.5842 336.6871,-83.5842 343.6871,-83.5842"/>
</g>
<!-- Node9 -->
<g id="node9" class="node">
<title>Node9</title>
<g id="a_node9"><a xlink:title=" ">
<polygon fill="none" stroke="#bfbfbf" points="398.9014,-55.5 398.9014,-73.5 445.4727,-73.5 445.4727,-55.5 398.9014,-55.5"/>
<text text-anchor="middle" x="422.187" y="-61.5" font-family="Helvetica,sans-Serif" font-size="10.00" fill="#000000">math.h</text>
</a>
</g>
</g>
<!-- Node1&#45;&gt;Node9 -->
<g id="edge8" class="edge">
<title>Node1&#45;&gt;Node9</title>
<path fill="none" stroke="#191970" d="M359.6199,-110.2808C372.2414,-101.0456 388.6749,-89.021 401.5326,-79.613"/>
<polygon fill="#191970" stroke="#191970" points="403.7684,-82.3139 409.772,-73.5842 399.6348,-76.6647 403.7684,-82.3139"/>
</g>
<!-- Node3 -->
<g id="node3" class="node">
<title>Node3</title>
<g id="a_node3"><a xlink:title=" ">
<polygon fill="none" stroke="#bfbfbf" points="0,-.5 0,-18.5 94.374,-18.5 94.374,-.5 0,-.5"/>
<text text-anchor="middle" x="47.187" y="-6.5" font-family="Helvetica,sans-Serif" font-size="10.00" fill="#000000">utils/unwindows.h</text>
</a>
</g>
</g>
<!-- Node2&#45;&gt;Node3 -->
<g id="edge2" class="edge">
<title>Node2&#45;&gt;Node3</title>
<path fill="none" stroke="#191970" d="M191.6196,-55.4179C162.6091,-46.1949 117.509,-31.8567 85.4301,-21.6582"/>
<polygon fill="#191970" stroke="#191970" points="86.0998,-18.1985 75.5093,-18.5042 83.9789,-24.8695 86.0998,-18.1985"/>
</g>
<!-- Node4 -->
<g id="node4" class="node">
<title>Node4</title>
<g id="a_node4"><a xlink:title=" ">
<polygon fill="none" stroke="#bfbfbf" points="111.9507,-.5 111.9507,-18.5 182.4233,-18.5 182.4233,-.5 111.9507,-.5"/>
<text text-anchor="middle" x="147.187" y="-6.5" font-family="Helvetica,sans-Serif" font-size="10.00" fill="#000000">math/vec4.h</text>
</a>
</g>
</g>
<!-- Node2&#45;&gt;Node4 -->
<g id="edge3" class="edge">
<title>Node2&#45;&gt;Node4</title>
<path fill="none" stroke="#191970" d="M208.1325,-55.4179C197.1037,-47.1084 180.5638,-34.6469 167.4963,-24.8015"/>
<polygon fill="#191970" stroke="#191970" points="169.5964,-22.0016 159.5034,-18.7795 165.3841,-27.5924 169.5964,-22.0016"/>
</g>
<!-- Node5 -->
<g id="node5" class="node">
<title>Node5</title>
<g id="a_node5"><a xlink:title=" ">
<polygon fill="none" stroke="#bfbfbf" points="200.7954,-.5 200.7954,-18.5 239.5786,-18.5 239.5786,-.5 200.7954,-.5"/>
<text text-anchor="middle" x="220.187" y="-6.5" font-family="Helvetica,sans-Serif" font-size="10.00" fill="#000000">array</text>
</a>
</g>
</g>
<!-- Node2&#45;&gt;Node5 -->
<g id="edge4" class="edge">
<title>Node2&#45;&gt;Node5</title>
<path fill="none" stroke="#191970" d="M220.187,-55.4179C220.187,-48.2164 220.187,-37.8962 220.187,-28.8632"/>
<polygon fill="#191970" stroke="#191970" points="223.6871,-28.7794 220.187,-18.7795 216.6871,-28.7795 223.6871,-28.7794"/>
</g>
<!-- Node6 -->
<g id="node6" class="node">
<title>Node6</title>
<g id="a_node6"><a xlink:title=" ">
<polygon fill="none" stroke="#bfbfbf" points="257.3965,-.5 257.3965,-18.5 308.9775,-18.5 308.9775,-.5 257.3965,-.5"/>
<text text-anchor="middle" x="283.187" y="-6.5" font-family="Helvetica,sans-Serif" font-size="10.00" fill="#000000">stddef.h</text>
</a>
</g>
</g>
<!-- Node2&#45;&gt;Node6 -->
<g id="edge5" class="edge">
<title>Node2&#45;&gt;Node6</title>
<path fill="none" stroke="#191970" d="M230.5902,-55.4179C239.927,-47.2667 253.8403,-35.1201 265.0122,-25.3669"/>
<polygon fill="#191970" stroke="#191970" points="267.3264,-27.9927 272.5578,-18.7795 262.7228,-22.7194 267.3264,-27.9927"/>
</g>
<!-- Node7 -->
<g id="node7" class="node">
<title>Node7</title>
<g id="a_node7"><a xlink:title=" ">
<polygon fill="none" stroke="#bfbfbf" points="327.0664,-.5 327.0664,-18.5 375.3076,-18.5 375.3076,-.5 327.0664,-.5"/>
<text text-anchor="middle" x="351.187" y="-6.5" font-family="Helvetica,sans-Serif" font-size="10.00" fill="#000000">stdint.h</text>
</a>
</g>
</g>
<!-- Node2&#45;&gt;Node7 -->
<g id="edge6" class="edge">
<title>Node2&#45;&gt;Node7</title>
<path fill="none" stroke="#191970" d="M241.819,-55.4179C263.152,-46.4613 295.9749,-32.6806 320.0995,-22.552"/>
<polygon fill="#191970" stroke="#191970" points="321.6575,-25.6939 329.5229,-18.5956 318.9476,-19.2397 321.6575,-25.6939"/>
</g>
</g>
</svg>
