<?xml version="1.0" encoding="UTF-8" standalone="no"?>
<!DOCTYPE svg PUBLIC "-//W3C//DTD SVG 1.1//EN"
 "http://www.w3.org/Graphics/SVG/1.1/DTD/svg11.dtd">
<!-- Generated by graphviz version 2.40.1 (20161225.0304)
 -->
<!-- Title: include/filament/View.h Pages: 1 -->
<svg width="1010pt" height="247pt"
 viewBox="0.00 0.00 1009.90 247.00" xmlns="http://www.w3.org/2000/svg" xmlns:xlink="http://www.w3.org/1999/xlink">
<g id="graph0" class="graph" transform="scale(1 1) rotate(0) translate(4 243)">
<title>include/filament/View.h</title>
<!-- Node1 -->
<g id="node1" class="node">
<title>Node1</title>
<g id="a_node1"><a xlink:title=" ">
<polygon fill="#bfbfbf" stroke="#000000" points="518.9756,-220.5 518.9756,-238.5 636.5284,-238.5 636.5284,-220.5 518.9756,-220.5"/>
<text text-anchor="middle" x="577.752" y="-226.5" font-family="Helvetica,sans-Serif" font-size="10.00" fill="#000000">include/filament/View.h</text>
</a>
</g>
</g>
<!-- Node2 -->
<g id="node2" class="node">
<title>Node2</title>
<g id="a_node2"><a xlink:href="_camera_8h.html" target="_top" xlink:title=" ">
<polygon fill="none" stroke="#000000" points="131.9024,-165.5 131.9024,-183.5 229.6016,-183.5 229.6016,-165.5 131.9024,-165.5"/>
<text text-anchor="middle" x="180.752" y="-171.5" font-family="Helvetica,sans-Serif" font-size="10.00" fill="#000000">filament/Camera.h</text>
</a>
</g>
</g>
<!-- Node1&#45;&gt;Node2 -->
<g id="edge1" class="edge">
<title>Node1&#45;&gt;Node2</title>
<path fill="none" stroke="#191970" d="M518.7458,-221.3253C443.7569,-210.9364 315.0616,-193.1071 239.9712,-182.7042"/>
<polygon fill="#191970" stroke="#191970" points="240.1283,-179.1926 229.7426,-181.2871 239.1676,-186.1264 240.1283,-179.1926"/>
</g>
<!-- Node5 -->
<g id="node5" class="node">
<title>Node5</title>
<g id="a_node5"><a xlink:title=" ">
<polygon fill="none" stroke="#bfbfbf" points="228.6807,-.5 228.6807,-18.5 310.8233,-18.5 310.8233,-.5 228.6807,-.5"/>
<text text-anchor="middle" x="269.752" y="-6.5" font-family="Helvetica,sans-Serif" font-size="10.00" fill="#000000">utils/compiler.h</text>
</a>
</g>
</g>
<!-- Node1&#45;&gt;Node5 -->
<g id="edge35" class="edge">
<title>Node1&#45;&gt;Node5</title>
<path fill="none" stroke="#191970" d="M518.9288,-223.4865C456.8349,-214.018 360.2852,-189.9013 303.752,-129 277.8023,-101.0453 271.4795,-54.6923 270.0506,-28.6964"/>
<polygon fill="#191970" stroke="#191970" points="273.5454,-28.4871 269.69,-18.6187 266.5499,-28.7375 273.5454,-28.4871"/>
</g>
<!-- Node8 -->
<g id="node8" class="node">
<title>Node8</title>
<g id="a_node8"><a xlink:title=" ">
<polygon fill="none" stroke="#bfbfbf" points="460.5157,-.5 460.5157,-18.5 530.9883,-18.5 530.9883,-.5 460.5157,-.5"/>
<text text-anchor="middle" x="495.752" y="-6.5" font-family="Helvetica,sans-Serif" font-size="10.00" fill="#000000">math/vec3.h</text>
</a>
</g>
</g>
<!-- Node1&#45;&gt;Node8 -->
<g id="edge37" class="edge">
<title>Node1&#45;&gt;Node8</title>
<path fill="none" stroke="#191970" d="M636.5511,-223.4547C762.1665,-209.299 1041.778,-170.548 996.752,-110 942.53,-37.0858 654.275,-16.5111 541.2605,-11.2004"/>
<polygon fill="#191970" stroke="#191970" points="541.3485,-7.7009 531.2009,-10.7465 541.0329,-14.6938 541.3485,-7.7009"/>
</g>
<!-- Node10 -->
<g id="node10" class="node">
<title>Node10</title>
<g id="a_node10"><a xlink:href="_filament_a_p_i_8h_source.html" target="_top" xlink:title=" ">
<polygon fill="none" stroke="#000000" points="312.4542,-110.5 312.4542,-128.5 429.0499,-128.5 429.0499,-110.5 312.4542,-110.5"/>
<text text-anchor="middle" x="370.752" y="-116.5" font-family="Helvetica,sans-Serif" font-size="10.00" fill="#000000">filament/FilamentAPI.h</text>
</a>
</g>
</g>
<!-- Node1&#45;&gt;Node10 -->
<g id="edge33" class="edge">
<title>Node1&#45;&gt;Node10</title>
<path fill="none" stroke="#191970" d="M560.8123,-220.4982C524.7253,-201.3216 440.0525,-156.3263 396.9524,-133.4229"/>
<polygon fill="#191970" stroke="#191970" points="398.3988,-130.2281 387.9257,-128.6261 395.1139,-136.4095 398.3988,-130.2281"/>
</g>
<!-- Node13 -->
<g id="node13" class="node">
<title>Node13</title>
<g id="a_node13"><a xlink:href="_color_8h.html" target="_top" xlink:title=" ">
<polygon fill="none" stroke="#000000" points="457.0108,-110.5 457.0108,-128.5 542.4932,-128.5 542.4932,-110.5 457.0108,-110.5"/>
<text text-anchor="middle" x="499.752" y="-116.5" font-family="Helvetica,sans-Serif" font-size="10.00" fill="#000000">filament/Color.h</text>
</a>
</g>
</g>
<!-- Node1&#45;&gt;Node13 -->
<g id="edge17" class="edge">
<title>Node1&#45;&gt;Node13</title>
<path fill="none" stroke="#191970" d="M571.3689,-220.4982C558.4565,-202.2885 529.0361,-160.798 512.1963,-137.0496"/>
<polygon fill="#191970" stroke="#191970" points="514.8627,-134.759 506.2233,-128.6261 509.1525,-138.808 514.8627,-134.759"/>
</g>
<!-- Node15 -->
<g id="node15" class="node">
<title>Node15</title>
<g id="a_node15"><a xlink:href="_viewport_8h.html" target="_top" xlink:title=" ">
<polygon fill="none" stroke="#000000" points="707.3204,-165.5 707.3204,-183.5 808.1836,-183.5 808.1836,-165.5 707.3204,-165.5"/>
<text text-anchor="middle" x="757.752" y="-171.5" font-family="Helvetica,sans-Serif" font-size="10.00" fill="#000000">filament/Viewport.h</text>
</a>
</g>
</g>
<!-- Node1&#45;&gt;Node15 -->
<g id="edge21" class="edge">
<title>Node1&#45;&gt;Node15</title>
<path fill="none" stroke="#191970" d="M607.4753,-220.4179C637.7903,-211.155 684.9912,-196.7325 718.3942,-186.526"/>
<polygon fill="#191970" stroke="#191970" points="719.7429,-189.7737 728.2837,-183.5042 717.6974,-183.0792 719.7429,-189.7737"/>
</g>
<!-- Node16 -->
<g id="node16" class="node">
<title>Node16</title>
<g id="a_node16"><a xlink:href="_driver_enums_8h.html" target="_top" xlink:title=" ">
<polygon fill="none" stroke="#000000" points="569.3951,-110.5 569.3951,-128.5 692.1089,-128.5 692.1089,-110.5 569.3951,-110.5"/>
<text text-anchor="middle" x="630.752" y="-116.5" font-family="Helvetica,sans-Serif" font-size="10.00" fill="#000000">backend/DriverEnums.h</text>
</a>
</g>
</g>
<!-- Node1&#45;&gt;Node16 -->
<g id="edge34" class="edge">
<title>Node1&#45;&gt;Node16</title>
<path fill="none" stroke="#191970" d="M582.0892,-220.4982C590.7854,-202.4496 610.5009,-161.5306 621.9905,-137.6843"/>
<polygon fill="#191970" stroke="#191970" points="625.1673,-139.1542 626.3549,-128.6261 618.8611,-136.1157 625.1673,-139.1542"/>
</g>
<!-- Node20 -->
<g id="node20" class="node">
<title>Node20</title>
<g id="a_node20"><a xlink:title=" ">
<polygon fill="none" stroke="#bfbfbf" points="917.5157,-110.5 917.5157,-128.5 987.9883,-128.5 987.9883,-110.5 917.5157,-110.5"/>
<text text-anchor="middle" x="952.752" y="-116.5" font-family="Helvetica,sans-Serif" font-size="10.00" fill="#000000">math/vec2.h</text>
</a>
</g>
</g>
<!-- Node1&#45;&gt;Node20 -->
<g id="edge36" class="edge">
<title>Node1&#45;&gt;Node20</title>
<path fill="none" stroke="#191970" d="M636.7517,-222.5326C685.775,-215.7373 756.9231,-203.5274 816.752,-184 857.2409,-170.7849 901.3,-148.2528 927.9717,-133.6237"/>
<polygon fill="#191970" stroke="#191970" points="929.9307,-136.5394 936.9727,-128.6235 926.5313,-130.4201 929.9307,-136.5394"/>
</g>
<!-- Node3 -->
<g id="node3" class="node">
<title>Node3</title>
<g id="a_node3"><a xlink:href="_frustum_8h.html" target="_top" xlink:title=" ">
<polygon fill="none" stroke="#000000" points="17.3506,-110.5 17.3506,-128.5 116.1534,-128.5 116.1534,-110.5 17.3506,-110.5"/>
<text text-anchor="middle" x="66.752" y="-116.5" font-family="Helvetica,sans-Serif" font-size="10.00" fill="#000000">filament/Frustum.h</text>
</a>
</g>
</g>
<!-- Node2&#45;&gt;Node3 -->
<g id="edge2" class="edge">
<title>Node2&#45;&gt;Node3</title>
<path fill="none" stroke="#191970" d="M161.9272,-165.4179C143.6102,-156.5807 115.5591,-143.0473 94.649,-132.9591"/>
<polygon fill="#191970" stroke="#191970" points="96.1322,-129.7887 85.6047,-128.5956 93.0905,-136.0933 96.1322,-129.7887"/>
</g>
<!-- Node2&#45;&gt;Node5 -->
<g id="edge15" class="edge">
<title>Node2&#45;&gt;Node5</title>
<path fill="none" stroke="#191970" d="M187.8446,-165.3929C194.6668,-156.4173 205.0515,-142.1728 212.752,-129 232.8608,-94.6011 251.8722,-51.995 262.0521,-28.0691"/>
<polygon fill="#191970" stroke="#191970" points="265.316,-29.3365 265.9662,-18.7616 258.8633,-26.6229 265.316,-29.3365"/>
</g>
<!-- Node7 -->
<g id="node7" class="node">
<title>Node7</title>
<g id="a_node7"><a xlink:title=" ">
<polygon fill="none" stroke="#bfbfbf" points="17.9615,-.5 17.9615,-18.5 89.5425,-18.5 89.5425,-.5 17.9615,-.5"/>
<text text-anchor="middle" x="53.752" y="-6.5" font-family="Helvetica,sans-Serif" font-size="10.00" fill="#000000">math/mat4.h</text>
</a>
</g>
</g>
<!-- Node2&#45;&gt;Node7 -->
<g id="edge16" class="edge">
<title>Node2&#45;&gt;Node7</title>
<path fill="none" stroke="#191970" d="M131.8353,-168.2338C86.4542,-161.2974 23.7319,-148.4579 8.752,-129 -15.6695,-97.2781 16.7559,-50.8461 37.9794,-26.2425"/>
<polygon fill="#191970" stroke="#191970" points="40.5894,-28.5744 44.6492,-18.7883 35.3728,-23.9068 40.5894,-28.5744"/>
</g>
<!-- Node2&#45;&gt;Node10 -->
<g id="edge11" class="edge">
<title>Node2&#45;&gt;Node10</title>
<path fill="none" stroke="#191970" d="M212.1266,-165.4179C244.2637,-156.115 294.3788,-141.608 329.6628,-131.3943"/>
<polygon fill="#191970" stroke="#191970" points="331.0141,-134.6468 339.6465,-128.5042 329.0677,-127.9229 331.0141,-134.6468"/>
</g>
<!-- Node12 -->
<g id="node12" class="node">
<title>Node12</title>
<g id="a_node12"><a xlink:title=" ">
<polygon fill="none" stroke="#bfbfbf" points="134.1651,-110.5 134.1651,-128.5 203.3389,-128.5 203.3389,-110.5 134.1651,-110.5"/>
<text text-anchor="middle" x="168.752" y="-116.5" font-family="Helvetica,sans-Serif" font-size="10.00" fill="#000000">utils/Entity.h</text>
</a>
</g>
</g>
<!-- Node2&#45;&gt;Node12 -->
<g id="edge14" class="edge">
<title>Node2&#45;&gt;Node12</title>
<path fill="none" stroke="#191970" d="M178.7704,-165.4179C177.1819,-158.1372 174.898,-147.669 172.9118,-138.5659"/>
<polygon fill="#191970" stroke="#191970" points="176.3279,-137.8035 170.7766,-128.7795 169.4888,-139.2957 176.3279,-137.8035"/>
</g>
<!-- Node4 -->
<g id="node4" class="node">
<title>Node4</title>
<g id="a_node4"><a xlink:href="_box_8h.html" target="_top" xlink:title=" ">
<polygon fill="none" stroke="#000000" points="86.0699,-55.5 86.0699,-73.5 165.4341,-73.5 165.4341,-55.5 86.0699,-55.5"/>
<text text-anchor="middle" x="125.752" y="-61.5" font-family="Helvetica,sans-Serif" font-size="10.00" fill="#000000">filament/Box.h</text>
</a>
</g>
</g>
<!-- Node3&#45;&gt;Node4 -->
<g id="edge3" class="edge">
<title>Node3&#45;&gt;Node4</title>
<path fill="none" stroke="#191970" d="M76.4947,-110.4179C85.1537,-102.3458 98.016,-90.3556 108.4256,-80.6517"/>
<polygon fill="#191970" stroke="#191970" points="110.8696,-83.1584 115.7977,-73.7795 106.0964,-78.0381 110.8696,-83.1584"/>
</g>
<!-- Node3&#45;&gt;Node5 -->
<g id="edge8" class="edge">
<title>Node3&#45;&gt;Node5</title>
<path fill="none" stroke="#191970" d="M92.2873,-110.382C114.5975,-102.0341 147.5763,-88.7613 174.752,-74 201.973,-59.2141 231.15,-38.6136 249.8791,-24.7051"/>
<polygon fill="#191970" stroke="#191970" points="252.0475,-27.4538 257.9421,-18.6502 247.844,-21.8563 252.0475,-27.4538"/>
</g>
<!-- Node3&#45;&gt;Node7 -->
<g id="edge9" class="edge">
<title>Node3&#45;&gt;Node7</title>
<path fill="none" stroke="#191970" d="M65.6882,-110.4982C63.5837,-92.6913 58.8483,-52.6225 56.0154,-28.6515"/>
<polygon fill="#191970" stroke="#191970" points="59.4801,-28.1462 54.8305,-18.6261 52.5285,-28.9678 59.4801,-28.1462"/>
</g>
<!-- Node9 -->
<g id="node9" class="node">
<title>Node9</title>
<g id="a_node9"><a xlink:title=" ">
<polygon fill="none" stroke="#bfbfbf" points="373.565,-55.5 373.565,-73.5 467.939,-73.5 467.939,-55.5 373.565,-55.5"/>
<text text-anchor="middle" x="420.752" y="-61.5" font-family="Helvetica,sans-Serif" font-size="10.00" fill="#000000">utils/unwindows.h</text>
</a>
</g>
</g>
<!-- Node3&#45;&gt;Node9 -->
<g id="edge10" class="edge">
<title>Node3&#45;&gt;Node9</title>
<path fill="none" stroke="#191970" d="M116.4209,-111.3316C119.239,-110.8785 122.0311,-110.4319 124.752,-110 207.6362,-96.8421 303.6757,-82.1882 363.3306,-73.1557"/>
<polygon fill="#191970" stroke="#191970" points="363.9452,-76.6026 373.309,-71.6459 362.8979,-69.6814 363.9452,-76.6026"/>
</g>
<!-- Node4&#45;&gt;Node5 -->
<g id="edge4" class="edge">
<title>Node4&#45;&gt;Node5</title>
<path fill="none" stroke="#191970" d="M149.5307,-55.4179C173.1891,-46.3817 209.7033,-32.4353 236.2844,-22.2828"/>
<polygon fill="#191970" stroke="#191970" points="237.845,-25.4334 245.938,-18.5956 235.3474,-18.8941 237.845,-25.4334"/>
</g>
<!-- Node6 -->
<g id="node6" class="node">
<title>Node6</title>
<g id="a_node6"><a xlink:title=" ">
<polygon fill="none" stroke="#bfbfbf" points="107.3653,-.5 107.3653,-18.5 146.1387,-18.5 146.1387,-.5 107.3653,-.5"/>
<text text-anchor="middle" x="126.752" y="-6.5" font-family="Helvetica,sans-Serif" font-size="10.00" fill="#000000">limits</text>
</a>
</g>
</g>
<!-- Node4&#45;&gt;Node6 -->
<g id="edge5" class="edge">
<title>Node4&#45;&gt;Node6</title>
<path fill="none" stroke="#191970" d="M125.9171,-55.4179C126.0481,-48.2164 126.2357,-37.8962 126.3999,-28.8632"/>
<polygon fill="#191970" stroke="#191970" points="129.9008,-28.8415 126.5833,-18.7795 122.902,-28.7141 129.9008,-28.8415"/>
</g>
<!-- Node4&#45;&gt;Node7 -->
<g id="edge6" class="edge">
<title>Node4&#45;&gt;Node7</title>
<path fill="none" stroke="#191970" d="M113.8627,-55.4179C103.0885,-47.1876 86.9818,-34.8839 74.1523,-25.0836"/>
<polygon fill="#191970" stroke="#191970" points="75.971,-22.0685 65.8997,-18.7795 71.7217,-27.6313 75.971,-22.0685"/>
</g>
<!-- Node4&#45;&gt;Node8 -->
<g id="edge7" class="edge">
<title>Node4&#45;&gt;Node8</title>
<path fill="none" stroke="#191970" d="M165.7,-58.5618C234.9824,-48.263 377.0007,-27.1522 450.0799,-16.2891"/>
<polygon fill="#191970" stroke="#191970" points="450.9683,-19.6956 460.3449,-14.7632 449.939,-12.7717 450.9683,-19.6956"/>
</g>
<!-- Node10&#45;&gt;Node5 -->
<g id="edge12" class="edge">
<title>Node10&#45;&gt;Node5</title>
<path fill="none" stroke="#191970" d="M362.4867,-110.4982C345.5449,-92.0467 306.6559,-49.6924 285.0061,-26.1134"/>
<polygon fill="#191970" stroke="#191970" points="287.4729,-23.625 278.1315,-18.6261 282.3167,-28.3593 287.4729,-23.625"/>
</g>
<!-- Node11 -->
<g id="node11" class="node">
<title>Node11</title>
<g id="a_node11"><a xlink:title=" ">
<polygon fill="none" stroke="#bfbfbf" points="611.9615,-55.5 611.9615,-73.5 663.5425,-73.5 663.5425,-55.5 611.9615,-55.5"/>
<text text-anchor="middle" x="637.752" y="-61.5" font-family="Helvetica,sans-Serif" font-size="10.00" fill="#000000">stddef.h</text>
</a>
</g>
</g>
<!-- Node10&#45;&gt;Node11 -->
<g id="edge13" class="edge">
<title>Node10&#45;&gt;Node11</title>
<path fill="none" stroke="#191970" d="M422.5787,-110.4304C467.5345,-102.316 534.5525,-89.6294 601.8777,-74.0776"/>
<polygon fill="#191970" stroke="#191970" points="602.8661,-77.4412 611.8106,-71.7625 601.2771,-70.6239 602.8661,-77.4412"/>
</g>
<!-- Node13&#45;&gt;Node5 -->
<g id="edge18" class="edge">
<title>Node13&#45;&gt;Node5</title>
<path fill="none" stroke="#191970" d="M464.5974,-110.4905C436.727,-102.683 397.2069,-90.1108 364.752,-74 349.7894,-66.5725 313.7037,-41.2274 290.5637,-24.6073"/>
<polygon fill="#191970" stroke="#191970" points="292.5582,-21.7305 282.4,-18.7203 288.4638,-27.4082 292.5582,-21.7305"/>
</g>
<!-- Node13&#45;&gt;Node8 -->
<g id="edge19" class="edge">
<title>Node13&#45;&gt;Node8</title>
<path fill="none" stroke="#191970" d="M499.4247,-110.4982C498.7771,-92.6913 497.3201,-52.6225 496.4484,-28.6515"/>
<polygon fill="#191970" stroke="#191970" points="499.945,-28.4923 496.0839,-18.6261 492.9497,-28.7468 499.945,-28.4923"/>
</g>
<!-- Node14 -->
<g id="node14" class="node">
<title>Node14</title>
<g id="a_node14"><a xlink:title=" ">
<polygon fill="none" stroke="#bfbfbf" points="523.5157,-55.5 523.5157,-73.5 593.9883,-73.5 593.9883,-55.5 523.5157,-55.5"/>
<text text-anchor="middle" x="558.752" y="-61.5" font-family="Helvetica,sans-Serif" font-size="10.00" fill="#000000">math/vec4.h</text>
</a>
</g>
</g>
<!-- Node13&#45;&gt;Node14 -->
<g id="edge20" class="edge">
<title>Node13&#45;&gt;Node14</title>
<path fill="none" stroke="#191970" d="M509.4947,-110.4179C518.1537,-102.3458 531.016,-90.3556 541.4256,-80.6517"/>
<polygon fill="#191970" stroke="#191970" points="543.8696,-83.1584 548.7977,-73.7795 539.0964,-78.0381 543.8696,-83.1584"/>
</g>
<!-- Node15&#45;&gt;Node5 -->
<g id="edge28" class="edge">
<title>Node15&#45;&gt;Node5</title>
<path fill="none" stroke="#191970" d="M765.8051,-165.4426C784.2268,-143.6268 825.6247,-87.5683 795.752,-55 779.8226,-37.6332 449.9508,-18.8019 320.8852,-12.0698"/>
<polygon fill="#191970" stroke="#191970" points="321.0192,-8.5722 310.8514,-11.5498 320.6568,-15.5628 321.0192,-8.5722"/>
</g>
<!-- Node15&#45;&gt;Node11 -->
<g id="edge31" class="edge">
<title>Node15&#45;&gt;Node11</title>
<path fill="none" stroke="#191970" d="M750.5912,-165.1602C740.3201,-152.0682 720.4622,-127.8627 700.752,-110 688.2829,-98.6997 673.0093,-87.61 660.6238,-79.2082"/>
<polygon fill="#191970" stroke="#191970" points="662.4614,-76.2269 652.1971,-73.6009 658.5834,-82.0546 662.4614,-76.2269"/>
</g>
<!-- Node15&#45;&gt;Node16 -->
<g id="edge22" class="edge">
<title>Node15&#45;&gt;Node16</title>
<path fill="none" stroke="#191970" d="M736.7805,-165.4179C716.1909,-156.5011 684.5609,-142.803 661.2026,-132.6873"/>
<polygon fill="#191970" stroke="#191970" points="662.322,-129.358 651.7546,-128.5956 659.5401,-135.7815 662.322,-129.358"/>
</g>
<!-- Node18 -->
<g id="node18" class="node">
<title>Node18</title>
<g id="a_node18"><a xlink:title=" ">
<polygon fill="none" stroke="#bfbfbf" points="738.6314,-55.5 738.6314,-73.5 786.8726,-73.5 786.8726,-55.5 738.6314,-55.5"/>
<text text-anchor="middle" x="762.752" y="-61.5" font-family="Helvetica,sans-Serif" font-size="10.00" fill="#000000">stdint.h</text>
</a>
</g>
</g>
<!-- Node15&#45;&gt;Node18 -->
<g id="edge32" class="edge">
<title>Node15&#45;&gt;Node18</title>
<path fill="none" stroke="#191970" d="M758.1612,-165.4982C758.9706,-147.6913 760.7919,-107.6225 761.8815,-83.6515"/>
<polygon fill="#191970" stroke="#191970" points="765.3794,-83.7748 762.3372,-73.6261 758.3866,-83.4569 765.3794,-83.7748"/>
</g>
<!-- Node19 -->
<g id="node19" class="node">
<title>Node19</title>
<g id="a_node19"><a xlink:title=" ">
<polygon fill="none" stroke="#bfbfbf" points="824.0132,-110.5 824.0132,-128.5 899.4908,-128.5 899.4908,-110.5 824.0132,-110.5"/>
<text text-anchor="middle" x="861.752" y="-116.5" font-family="Helvetica,sans-Serif" font-size="10.00" fill="#000000">math/scalar.h</text>
</a>
</g>
</g>
<!-- Node15&#45;&gt;Node19 -->
<g id="edge29" class="edge">
<title>Node15&#45;&gt;Node19</title>
<path fill="none" stroke="#191970" d="M774.9255,-165.4179C791.41,-156.7001 816.5362,-143.4122 835.5253,-133.3699"/>
<polygon fill="#191970" stroke="#191970" points="837.3493,-136.3646 844.553,-128.5956 834.0768,-130.1767 837.3493,-136.3646"/>
</g>
<!-- Node15&#45;&gt;Node20 -->
<g id="edge30" class="edge">
<title>Node15&#45;&gt;Node20</title>
<path fill="none" stroke="#191970" d="M789.9523,-165.4179C823.0766,-156.0751 874.8108,-141.4834 911.0469,-131.263"/>
<polygon fill="#191970" stroke="#191970" points="912.1536,-134.5875 920.828,-128.5042 910.2533,-127.8503 912.1536,-134.5875"/>
</g>
<!-- Node16&#45;&gt;Node9 -->
<g id="edge23" class="edge">
<title>Node16&#45;&gt;Node9</title>
<path fill="none" stroke="#191970" d="M596.0748,-110.4179C560.25,-101.0352 504.2121,-86.3586 465.1658,-76.1322"/>
<polygon fill="#191970" stroke="#191970" points="465.6922,-72.6521 455.1317,-73.5042 463.9187,-79.4237 465.6922,-72.6521"/>
</g>
<!-- Node16&#45;&gt;Node11 -->
<g id="edge26" class="edge">
<title>Node16&#45;&gt;Node11</title>
<path fill="none" stroke="#191970" d="M631.9079,-110.4179C632.8245,-103.2164 634.1379,-92.8962 635.2876,-83.8632"/>
<polygon fill="#191970" stroke="#191970" points="638.7803,-84.1414 636.571,-73.7795 631.8364,-83.2575 638.7803,-84.1414"/>
</g>
<!-- Node16&#45;&gt;Node14 -->
<g id="edge24" class="edge">
<title>Node16&#45;&gt;Node14</title>
<path fill="none" stroke="#191970" d="M618.8627,-110.4179C608.0885,-102.1876 591.9818,-89.8839 579.1523,-80.0836"/>
<polygon fill="#191970" stroke="#191970" points="580.971,-77.0685 570.8997,-73.7795 576.7217,-82.6313 580.971,-77.0685"/>
</g>
<!-- Node17 -->
<g id="node17" class="node">
<title>Node17</title>
<g id="a_node17"><a xlink:title=" ">
<polygon fill="none" stroke="#bfbfbf" points="681.3604,-55.5 681.3604,-73.5 720.1436,-73.5 720.1436,-55.5 681.3604,-55.5"/>
<text text-anchor="middle" x="700.752" y="-61.5" font-family="Helvetica,sans-Serif" font-size="10.00" fill="#000000">array</text>
</a>
</g>
</g>
<!-- Node16&#45;&gt;Node17 -->
<g id="edge25" class="edge">
<title>Node16&#45;&gt;Node17</title>
<path fill="none" stroke="#191970" d="M642.3111,-110.4179C652.786,-102.1876 668.4452,-89.8839 680.9184,-80.0836"/>
<polygon fill="#191970" stroke="#191970" points="683.241,-82.7098 688.9418,-73.7795 678.9162,-77.2056 683.241,-82.7098"/>
</g>
<!-- Node16&#45;&gt;Node18 -->
<g id="edge27" class="edge">
<title>Node16&#45;&gt;Node18</title>
<path fill="none" stroke="#191970" d="M652.5491,-110.4179C674.0449,-101.4613 707.1184,-87.6806 731.4272,-77.552"/>
<polygon fill="#191970" stroke="#191970" points="733.0379,-80.6726 740.9225,-73.5956 730.3456,-74.2111 733.0379,-80.6726"/>
</g>
</g>
</svg>
