<?xml version="1.0" encoding="UTF-8" standalone="no"?>
<!DOCTYPE svg PUBLIC "-//W3C//DTD SVG 1.1//EN"
 "http://www.w3.org/Graphics/SVG/1.1/DTD/svg11.dtd">
<!-- Generated by graphviz version 2.40.1 (20161225.0304)
 -->
<!-- Title: include/filament/Viewport.h Pages: 1 -->
<svg width="283pt" height="147pt"
 viewBox="0.00 0.00 282.76 147.00" xmlns="http://www.w3.org/2000/svg" xmlns:xlink="http://www.w3.org/1999/xlink">
<g id="graph0" class="graph" transform="scale(1 1) rotate(0) translate(4 143)">
<title>include/filament/Viewport.h</title>
<!-- Node1 -->
<g id="node1" class="node">
<title>Node1</title>
<g id="a_node1"><a xlink:title=" ">
<polygon fill="#bfbfbf" stroke="#000000" points="75.3169,-120.5 75.3169,-138.5 210.6479,-138.5 210.6479,-120.5 75.3169,-120.5"/>
<text text-anchor="middle" x="142.9824" y="-126.5" font-family="Helvetica,sans-Serif" font-size="10.00" fill="#000000">include/filament/Viewport.h</text>
</a>
</g>
</g>
<!-- Node2 -->
<g id="node2" class="node">
<title>Node2</title>
<g id="a_node2"><a xlink:href="_renderer_8h.html" target="_top" xlink:title=" ">
<polygon fill="none" stroke="#000000" points="1.1108,-65.5 1.1108,-83.5 138.854,-83.5 138.854,-65.5 1.1108,-65.5"/>
<text text-anchor="middle" x="69.9824" y="-71.5" font-family="Helvetica,sans-Serif" font-size="10.00" fill="#000000">include/filament/Renderer.h</text>
</a>
</g>
</g>
<!-- Node1&#45;&gt;Node2 -->
<g id="edge1" class="edge">
<title>Node1&#45;&gt;Node2</title>
<path fill="none" stroke="#191970" d="M122.6088,-114.15C109.6545,-104.3899 93.3082,-92.0742 82.2988,-83.7795"/>
<polygon fill="#191970" stroke="#191970" points="120.835,-117.1957 130.928,-120.4179 125.0472,-111.6049 120.835,-117.1957"/>
</g>
<!-- Node4 -->
<g id="node4" class="node">
<title>Node4</title>
<g id="a_node4"><a xlink:href="_view_8h.html" target="_top" xlink:title=" ">
<polygon fill="none" stroke="#000000" points="157.2061,-65.5 157.2061,-83.5 274.7588,-83.5 274.7588,-65.5 157.2061,-65.5"/>
<text text-anchor="middle" x="215.9824" y="-71.5" font-family="Helvetica,sans-Serif" font-size="10.00" fill="#000000">include/filament/View.h</text>
</a>
</g>
</g>
<!-- Node1&#45;&gt;Node4 -->
<g id="edge3" class="edge">
<title>Node1&#45;&gt;Node4</title>
<path fill="none" stroke="#191970" d="M163.356,-114.15C176.3103,-104.3899 192.6567,-92.0742 203.6661,-83.7795"/>
<polygon fill="#191970" stroke="#191970" points="160.9176,-111.6049 155.0369,-120.4179 165.1299,-117.1957 160.9176,-111.6049"/>
</g>
<!-- Node3 -->
<g id="node3" class="node">
<title>Node3</title>
<g id="a_node3"><a xlink:href="_renderable_manager_8h_source.html" target="_top" xlink:title=" ">
<polygon fill="none" stroke="#000000" points="0,-.5 0,-28.5 139.9648,-28.5 139.9648,-.5 0,-.5"/>
<text text-anchor="start" x="8" y="-16.5" font-family="Helvetica,sans-Serif" font-size="10.00" fill="#000000">include/filament/Renderable</text>
<text text-anchor="middle" x="69.9824" y="-6.5" font-family="Helvetica,sans-Serif" font-size="10.00" fill="#000000">Manager.h</text>
</a>
</g>
</g>
<!-- Node2&#45;&gt;Node3 -->
<g id="edge2" class="edge">
<title>Node2&#45;&gt;Node3</title>
<path fill="none" stroke="#191970" d="M69.9824,-55.1865C69.9824,-46.6283 69.9824,-36.7354 69.9824,-28.8477"/>
<polygon fill="#191970" stroke="#191970" points="66.4825,-55.3873 69.9824,-65.3873 73.4825,-55.3873 66.4825,-55.3873"/>
</g>
</g>
</svg>
