<?xml version="1.0" encoding="UTF-8" standalone="no"?>
<!DOCTYPE svg PUBLIC "-//W3C//DTD SVG 1.1//EN"
 "http://www.w3.org/Graphics/SVG/1.1/DTD/svg11.dtd">
<!-- Generated by graphviz version 2.40.1 (20161225.0304)
 -->
<!-- Title: Graphical Class Hierarchy Pages: 1 -->
<svg width="309pt" height="27pt"
 viewBox="0.00 0.00 309.18 27.00" xmlns="http://www.w3.org/2000/svg" xmlns:xlink="http://www.w3.org/1999/xlink">
<g id="graph0" class="graph" transform="scale(1 1) rotate(0) translate(4 23)">
<title>Graphical Class Hierarchy</title>
<!-- Node0 -->
<g id="node1" class="node">
<title>Node0</title>
<g id="a_node1"><a xlink:href="classfilament_1_1backend_1_1_platform.html" target="_top" xlink:title=" ">
<polygon fill="none" stroke="#000000" points="0,-.5 0,-18.5 53.2314,-18.5 53.2314,-.5 0,-.5"/>
<text text-anchor="middle" x="26.6157" y="-6.5" font-family="Helvetica,sans-Serif" font-size="10.00" fill="#000000">Platform</text>
</a>
</g>
</g>
<!-- Node1 -->
<g id="node2" class="node">
<title>Node1</title>
<g id="a_node2"><a xlink:href="classfilament_1_1backend_1_1_default_platform.html" target="_top" xlink:title=" ">
<polygon fill="none" stroke="#000000" points="89.2314,-.5 89.2314,-18.5 174.1475,-18.5 174.1475,-.5 89.2314,-.5"/>
<text text-anchor="middle" x="131.6895" y="-6.5" font-family="Helvetica,sans-Serif" font-size="10.00" fill="#000000">DefaultPlatform</text>
</a>
</g>
</g>
<!-- Node0&#45;&gt;Node1 -->
<g id="edge1" class="edge">
<title>Node0&#45;&gt;Node1</title>
<path fill="none" stroke="#191970" d="M63.4839,-9.5C71.7378,-9.5 80.5596,-9.5 89.0265,-9.5"/>
<polygon fill="#191970" stroke="#191970" points="63.4022,-6.0001 53.4021,-9.5 63.4021,-13.0001 63.4022,-6.0001"/>
</g>
<!-- Node2 -->
<g id="node3" class="node">
<title>Node2</title>
<g id="a_node3"><a xlink:href="classfilament_1_1backend_1_1_open_g_l_platform.html" target="_top" xlink:title=" ">
<polygon fill="none" stroke="#000000" points="210.1475,-.5 210.1475,-18.5 301.1816,-18.5 301.1816,-.5 210.1475,-.5"/>
<text text-anchor="middle" x="255.6646" y="-6.5" font-family="Helvetica,sans-Serif" font-size="10.00" fill="#000000">OpenGLPlatform</text>
</a>
</g>
</g>
<!-- Node1&#45;&gt;Node2 -->
<g id="edge2" class="edge">
<title>Node1&#45;&gt;Node2</title>
<path fill="none" stroke="#191970" d="M184.5188,-9.5C192.9821,-9.5 201.6783,-9.5 209.9575,-9.5"/>
<polygon fill="#191970" stroke="#191970" points="184.3547,-6.0001 174.3546,-9.5 184.3546,-13.0001 184.3547,-6.0001"/>
</g>
</g>
</svg>
