<?xml version="1.0" encoding="UTF-8" standalone="no"?>
<!DOCTYPE svg PUBLIC "-//W3C//DTD SVG 1.1//EN"
 "http://www.w3.org/Graphics/SVG/1.1/DTD/svg11.dtd">
<!-- Generated by graphviz version 2.40.1 (20161225.0304)
 -->
<!-- Title: Graphical Class Hierarchy Pages: 1 -->
<svg width="281pt" height="111pt"
 viewBox="0.00 0.00 281.35 111.00" xmlns="http://www.w3.org/2000/svg" xmlns:xlink="http://www.w3.org/1999/xlink">
<g id="graph0" class="graph" transform="scale(1 1) rotate(0) translate(4 107)">
<title>Graphical Class Hierarchy</title>
<!-- Node0 -->
<g id="node1" class="node">
<title>Node0</title>
<g id="a_node1"><a xlink:href="classfilament_1_1backend_1_1_command_base.html" target="_top" xlink:title=" ">
<polygon fill="none" stroke="#000000" points="0,-37.5 0,-55.5 84.9209,-55.5 84.9209,-37.5 0,-37.5"/>
<text text-anchor="middle" x="42.4604" y="-43.5" font-family="Helvetica,sans-Serif" font-size="10.00" fill="#000000">CommandBase</text>
</a>
</g>
</g>
<!-- Node1 -->
<g id="node2" class="node">
<title>Node1</title>
<g id="a_node2"><a xlink:href="classfilament_1_1backend_1_1_command_type_3_01void_07_driver_1_1_5_08_07_a_r_g_s_8_8_8_08_4_1_1_command.html" target="_top" xlink:title=" ">
<polygon fill="none" stroke="#000000" points="120.9209,-74.5 120.9209,-102.5 273.3516,-102.5 273.3516,-74.5 120.9209,-74.5"/>
<text text-anchor="start" x="128.9209" y="-90.5" font-family="Helvetica,sans-Serif" font-size="10.00" fill="#000000">CommandType&lt; void(Driver</text>
<text text-anchor="middle" x="197.1362" y="-80.5" font-family="Helvetica,sans-Serif" font-size="10.00" fill="#000000">::*)(ARGS...)&gt;::Command&lt;... &gt;</text>
</a>
</g>
</g>
<!-- Node0&#45;&gt;Node1 -->
<g id="edge1" class="edge">
<title>Node0&#45;&gt;Node1</title>
<path fill="none" stroke="#191970" d="M85.3251,-58.1393C103.9491,-63.1964 125.9265,-69.164 145.4458,-74.4642"/>
<polygon fill="#191970" stroke="#191970" points="86.21,-54.7529 75.6423,-55.5101 84.3756,-61.5083 86.21,-54.7529"/>
</g>
<!-- Node2 -->
<g id="node3" class="node">
<title>Node2</title>
<g id="a_node3"><a xlink:href="classfilament_1_1backend_1_1_custom_command.html" target="_top" xlink:title=" ">
<polygon fill="none" stroke="#000000" points="148.8457,-37.5 148.8457,-55.5 245.4268,-55.5 245.4268,-37.5 148.8457,-37.5"/>
<text text-anchor="middle" x="197.1362" y="-43.5" font-family="Helvetica,sans-Serif" font-size="10.00" fill="#000000">CustomCommand</text>
</a>
</g>
</g>
<!-- Node0&#45;&gt;Node2 -->
<g id="edge2" class="edge">
<title>Node0&#45;&gt;Node2</title>
<path fill="none" stroke="#191970" d="M95.5788,-46.5C112.7758,-46.5 131.75,-46.5 148.597,-46.5"/>
<polygon fill="#191970" stroke="#191970" points="95.1358,-43.0001 85.1357,-46.5 95.1357,-50.0001 95.1358,-43.0001"/>
</g>
<!-- Node3 -->
<g id="node4" class="node">
<title>Node3</title>
<g id="a_node4"><a xlink:href="classfilament_1_1backend_1_1_noop_command.html" target="_top" xlink:title=" ">
<polygon fill="none" stroke="#000000" points="154.1191,-.5 154.1191,-18.5 240.1533,-18.5 240.1533,-.5 154.1191,-.5"/>
<text text-anchor="middle" x="197.1362" y="-6.5" font-family="Helvetica,sans-Serif" font-size="10.00" fill="#000000">NoopCommand</text>
</a>
</g>
</g>
<!-- Node0&#45;&gt;Node3 -->
<g id="edge3" class="edge">
<title>Node0&#45;&gt;Node3</title>
<path fill="none" stroke="#191970" d="M90.2204,-35.0753C112.4757,-29.7516 138.5786,-23.5076 159.4212,-18.5218"/>
<polygon fill="#191970" stroke="#191970" points="89.2097,-31.7183 80.2984,-37.4488 90.8383,-38.5262 89.2097,-31.7183"/>
</g>
</g>
</svg>
