<?xml version="1.0" encoding="UTF-8" standalone="no"?>
<!DOCTYPE svg PUBLIC "-//W3C//DTD SVG 1.1//EN"
 "http://www.w3.org/Graphics/SVG/1.1/DTD/svg11.dtd">
<!-- Generated by graphviz version 2.40.1 (20161225.0304)
 -->
<!-- Title: include/filament/Box.h Pages: 1 -->
<svg width="367pt" height="202pt"
 viewBox="0.00 0.00 366.85 202.00" xmlns="http://www.w3.org/2000/svg" xmlns:xlink="http://www.w3.org/1999/xlink">
<g id="graph0" class="graph" transform="scale(1 1) rotate(0) translate(4 198)">
<title>include/filament/Box.h</title>
<!-- Node1 -->
<g id="node1" class="node">
<title>Node1</title>
<g id="a_node1"><a xlink:title=" ">
<polygon fill="#bfbfbf" stroke="#000000" points="153.9531,-175.5 153.9531,-193.5 267.7852,-193.5 267.7852,-175.5 153.9531,-175.5"/>
<text text-anchor="middle" x="210.8691" y="-181.5" font-family="Helvetica,sans-Serif" font-size="10.00" fill="#000000">include/filament/Box.h</text>
</a>
</g>
</g>
<!-- Node2 -->
<g id="node2" class="node">
<title>Node2</title>
<g id="a_node2"><a xlink:href="_frustum_8h.html" target="_top" xlink:title=" ">
<polygon fill="none" stroke="#000000" points="67.2339,-115.5 67.2339,-133.5 200.5044,-133.5 200.5044,-115.5 67.2339,-115.5"/>
<text text-anchor="middle" x="133.8691" y="-121.5" font-family="Helvetica,sans-Serif" font-size="10.00" fill="#000000">include/filament/Frustum.h</text>
</a>
</g>
</g>
<!-- Node1&#45;&gt;Node2 -->
<g id="edge1" class="edge">
<title>Node1&#45;&gt;Node2</title>
<path fill="none" stroke="#191970" d="M191.2803,-169.2359C176.7861,-157.9418 157.5344,-142.9405 145.4215,-133.5019"/>
<polygon fill="#191970" stroke="#191970" points="189.1352,-172.0016 199.1745,-175.3873 193.4378,-166.4799 189.1352,-172.0016"/>
</g>
<!-- Node6 -->
<g id="node6" class="node">
<title>Node6</title>
<g id="a_node6"><a xlink:href="_renderable_manager_8h_source.html" target="_top" xlink:title=" ">
<polygon fill="none" stroke="#000000" points="218.8867,-110.5 218.8867,-138.5 358.8516,-138.5 358.8516,-110.5 218.8867,-110.5"/>
<text text-anchor="start" x="226.8867" y="-126.5" font-family="Helvetica,sans-Serif" font-size="10.00" fill="#000000">include/filament/Renderable</text>
<text text-anchor="middle" x="288.8691" y="-116.5" font-family="Helvetica,sans-Serif" font-size="10.00" fill="#000000">Manager.h</text>
</a>
</g>
</g>
<!-- Node1&#45;&gt;Node6 -->
<g id="edge5" class="edge">
<title>Node1&#45;&gt;Node6</title>
<path fill="none" stroke="#191970" d="M230.9317,-169.0673C243.144,-159.6732 258.6277,-147.7627 270.5154,-138.6183"/>
<polygon fill="#191970" stroke="#191970" points="228.5079,-166.516 222.7157,-175.3873 232.7759,-172.0643 228.5079,-166.516"/>
</g>
<!-- Node3 -->
<g id="node3" class="node">
<title>Node3</title>
<g id="a_node3"><a xlink:href="_camera_8h.html" target="_top" xlink:title=" ">
<polygon fill="none" stroke="#000000" points="67.7856,-55.5 67.7856,-73.5 199.9526,-73.5 199.9526,-55.5 67.7856,-55.5"/>
<text text-anchor="middle" x="133.8691" y="-61.5" font-family="Helvetica,sans-Serif" font-size="10.00" fill="#000000">include/filament/Camera.h</text>
</a>
</g>
</g>
<!-- Node2&#45;&gt;Node3 -->
<g id="edge2" class="edge">
<title>Node2&#45;&gt;Node3</title>
<path fill="none" stroke="#191970" d="M133.8691,-105.3734C133.8691,-94.7812 133.8691,-82.0976 133.8691,-73.6985"/>
<polygon fill="#191970" stroke="#191970" points="130.3692,-105.3873 133.8691,-115.3873 137.3692,-105.3873 130.3692,-105.3873"/>
</g>
<!-- Node4 -->
<g id="node4" class="node">
<title>Node4</title>
<g id="a_node4"><a xlink:href="_engine_8h_source.html" target="_top" xlink:title=" ">
<polygon fill="none" stroke="#000000" points="0,-.5 0,-18.5 127.7383,-18.5 127.7383,-.5 0,-.5"/>
<text text-anchor="middle" x="63.8691" y="-6.5" font-family="Helvetica,sans-Serif" font-size="10.00" fill="#000000">include/filament/Engine.h</text>
</a>
</g>
</g>
<!-- Node3&#45;&gt;Node4 -->
<g id="edge3" class="edge">
<title>Node3&#45;&gt;Node4</title>
<path fill="none" stroke="#191970" d="M114.3328,-49.15C101.9109,-39.3899 86.2363,-27.0742 75.6794,-18.7795"/>
<polygon fill="#191970" stroke="#191970" points="112.2845,-51.9917 122.3101,-55.4179 116.6092,-46.4875 112.2845,-51.9917"/>
</g>
<!-- Node5 -->
<g id="node5" class="node">
<title>Node5</title>
<g id="a_node5"><a xlink:href="_view_8h.html" target="_top" xlink:title=" ">
<polygon fill="none" stroke="#000000" points="146.0928,-.5 146.0928,-18.5 263.6455,-18.5 263.6455,-.5 146.0928,-.5"/>
<text text-anchor="middle" x="204.8691" y="-6.5" font-family="Helvetica,sans-Serif" font-size="10.00" fill="#000000">include/filament/View.h</text>
</a>
</g>
</g>
<!-- Node3&#45;&gt;Node5 -->
<g id="edge4" class="edge">
<title>Node3&#45;&gt;Node5</title>
<path fill="none" stroke="#191970" d="M153.6846,-49.15C166.2839,-39.3899 182.1825,-27.0742 192.8902,-18.7795"/>
<polygon fill="#191970" stroke="#191970" points="151.3555,-46.5269 145.5933,-55.4179 155.6423,-52.0608 151.3555,-46.5269"/>
</g>
</g>
</svg>
