<?xml version="1.0" encoding="UTF-8" standalone="no"?>
<!DOCTYPE svg PUBLIC "-//W3C//DTD SVG 1.1//EN"
 "http://www.w3.org/Graphics/SVG/1.1/DTD/svg11.dtd">
<!-- Generated by graphviz version 2.40.1 (20161225.0304)
 -->
<!-- Title: include/filament/Camera.h Pages: 1 -->
<svg width="528pt" height="192pt"
 viewBox="0.00 0.00 527.66 192.00" xmlns="http://www.w3.org/2000/svg" xmlns:xlink="http://www.w3.org/1999/xlink">
<g id="graph0" class="graph" transform="scale(1 1) rotate(0) translate(4 188)">
<title>include/filament/Camera.h</title>
<!-- Node1 -->
<g id="node1" class="node">
<title>Node1</title>
<g id="a_node1"><a xlink:title=" ">
<polygon fill="#bfbfbf" stroke="#000000" points="173.9878,-165.5 173.9878,-183.5 306.1548,-183.5 306.1548,-165.5 173.9878,-165.5"/>
<text text-anchor="middle" x="240.0713" y="-171.5" font-family="Helvetica,sans-Serif" font-size="10.00" fill="#000000">include/filament/Camera.h</text>
</a>
</g>
</g>
<!-- Node2 -->
<g id="node2" class="node">
<title>Node2</title>
<g id="a_node2"><a xlink:href="_frustum_8h.html" target="_top" xlink:title=" ">
<polygon fill="none" stroke="#000000" points="190.6699,-110.5 190.6699,-128.5 289.4727,-128.5 289.4727,-110.5 190.6699,-110.5"/>
<text text-anchor="middle" x="240.0713" y="-116.5" font-family="Helvetica,sans-Serif" font-size="10.00" fill="#000000">filament/Frustum.h</text>
</a>
</g>
</g>
<!-- Node1&#45;&gt;Node2 -->
<g id="edge1" class="edge">
<title>Node1&#45;&gt;Node2</title>
<path fill="none" stroke="#191970" d="M240.0713,-165.4179C240.0713,-158.2164 240.0713,-147.8962 240.0713,-138.8632"/>
<polygon fill="#191970" stroke="#191970" points="243.5714,-138.7794 240.0713,-128.7795 236.5714,-138.7795 243.5714,-138.7794"/>
</g>
<!-- Node4 -->
<g id="node4" class="node">
<title>Node4</title>
<g id="a_node4"><a xlink:title=" ">
<polygon fill="none" stroke="#bfbfbf" points="0,-.5 0,-18.5 82.1426,-18.5 82.1426,-.5 0,-.5"/>
<text text-anchor="middle" x="41.0713" y="-6.5" font-family="Helvetica,sans-Serif" font-size="10.00" fill="#000000">utils/compiler.h</text>
</a>
</g>
</g>
<!-- Node1&#45;&gt;Node4 -->
<g id="edge14" class="edge">
<title>Node1&#45;&gt;Node4</title>
<path fill="none" stroke="#191970" d="M173.7545,-170.1876C114.7624,-164.8049 34.8481,-153.1764 15.0713,-129 -9.0079,-99.5641 13.3364,-52.8185 28.9293,-27.3959"/>
<polygon fill="#191970" stroke="#191970" points="32.0056,-29.0827 34.464,-18.777 26.1154,-25.3003 32.0056,-29.0827"/>
</g>
<!-- Node6 -->
<g id="node6" class="node">
<title>Node6</title>
<g id="a_node6"><a xlink:title=" ">
<polygon fill="none" stroke="#bfbfbf" points="257.2808,-.5 257.2808,-18.5 328.8618,-18.5 328.8618,-.5 257.2808,-.5"/>
<text text-anchor="middle" x="293.0713" y="-6.5" font-family="Helvetica,sans-Serif" font-size="10.00" fill="#000000">math/mat4.h</text>
</a>
</g>
</g>
<!-- Node1&#45;&gt;Node6 -->
<g id="edge15" class="edge">
<title>Node1&#45;&gt;Node6</title>
<path fill="none" stroke="#191970" d="M271.5228,-165.4941C310.4541,-152.4604 375.0372,-124.2192 403.0713,-74 419.8117,-44.0118 375.8663,-26.6825 338.6389,-17.6823"/>
<polygon fill="#191970" stroke="#191970" points="339.3944,-14.2648 328.8678,-15.466 337.8458,-21.0914 339.3944,-14.2648"/>
</g>
<!-- Node9 -->
<g id="node9" class="node">
<title>Node9</title>
<g id="a_node9"><a xlink:href="_filament_a_p_i_8h_source.html" target="_top" xlink:title=" ">
<polygon fill="none" stroke="#000000" points="23.7734,-110.5 23.7734,-128.5 140.3691,-128.5 140.3691,-110.5 23.7734,-110.5"/>
<text text-anchor="middle" x="82.0713" y="-116.5" font-family="Helvetica,sans-Serif" font-size="10.00" fill="#000000">filament/FilamentAPI.h</text>
</a>
</g>
</g>
<!-- Node1&#45;&gt;Node9 -->
<g id="edge10" class="edge">
<title>Node1&#45;&gt;Node9</title>
<path fill="none" stroke="#191970" d="M213.9808,-165.4179C187.7151,-156.2748 147.0081,-142.1046 117.7621,-131.924"/>
<polygon fill="#191970" stroke="#191970" points="118.5328,-128.4863 107.9379,-128.5042 116.2314,-135.0973 118.5328,-128.4863"/>
</g>
<!-- Node11 -->
<g id="node11" class="node">
<title>Node11</title>
<g id="a_node11"><a xlink:title=" ">
<polygon fill="none" stroke="#bfbfbf" points="450.4844,-110.5 450.4844,-128.5 519.6582,-128.5 519.6582,-110.5 450.4844,-110.5"/>
<text text-anchor="middle" x="485.0713" y="-116.5" font-family="Helvetica,sans-Serif" font-size="10.00" fill="#000000">utils/Entity.h</text>
</a>
</g>
</g>
<!-- Node1&#45;&gt;Node11 -->
<g id="edge13" class="edge">
<title>Node1&#45;&gt;Node11</title>
<path fill="none" stroke="#191970" d="M280.2537,-165.4795C324.3004,-155.5914 394.7743,-139.7708 440.4921,-129.5076"/>
<polygon fill="#191970" stroke="#191970" points="441.4275,-132.8848 450.418,-127.2793 439.8942,-126.0548 441.4275,-132.8848"/>
</g>
<!-- Node3 -->
<g id="node3" class="node">
<title>Node3</title>
<g id="a_node3"><a xlink:href="_box_8h.html" target="_top" xlink:title=" ">
<polygon fill="none" stroke="#000000" points="164.3892,-55.5 164.3892,-73.5 243.7534,-73.5 243.7534,-55.5 164.3892,-55.5"/>
<text text-anchor="middle" x="204.0713" y="-61.5" font-family="Helvetica,sans-Serif" font-size="10.00" fill="#000000">filament/Box.h</text>
</a>
</g>
</g>
<!-- Node2&#45;&gt;Node3 -->
<g id="edge2" class="edge">
<title>Node2&#45;&gt;Node3</title>
<path fill="none" stroke="#191970" d="M234.1266,-110.4179C229.1539,-102.8207 221.9094,-91.7527 215.7789,-82.3866"/>
<polygon fill="#191970" stroke="#191970" points="218.5502,-80.2297 210.1451,-73.7795 212.6933,-84.0633 218.5502,-80.2297"/>
</g>
<!-- Node2&#45;&gt;Node4 -->
<g id="edge7" class="edge">
<title>Node2&#45;&gt;Node4</title>
<path fill="none" stroke="#191970" d="M222.7509,-110.3806C205.5291,-101.2774 178.3863,-86.8336 155.0713,-74 124.0804,-56.9413 88.6571,-36.7967 65.6327,-23.6162"/>
<polygon fill="#191970" stroke="#191970" points="67.2824,-20.5276 56.866,-18.5911 63.8012,-26.6006 67.2824,-20.5276"/>
</g>
<!-- Node2&#45;&gt;Node6 -->
<g id="edge8" class="edge">
<title>Node2&#45;&gt;Node6</title>
<path fill="none" stroke="#191970" d="M244.4085,-110.4982C253.1047,-92.4496 272.8202,-51.5306 284.3098,-27.6843"/>
<polygon fill="#191970" stroke="#191970" points="287.4866,-29.1542 288.6741,-18.6261 281.1804,-26.1157 287.4866,-29.1542"/>
</g>
<!-- Node8 -->
<g id="node8" class="node">
<title>Node8</title>
<g id="a_node8"><a xlink:title=" ">
<polygon fill="none" stroke="#bfbfbf" points="299.8843,-55.5 299.8843,-73.5 394.2583,-73.5 394.2583,-55.5 299.8843,-55.5"/>
<text text-anchor="middle" x="347.0713" y="-61.5" font-family="Helvetica,sans-Serif" font-size="10.00" fill="#000000">utils/unwindows.h</text>
</a>
</g>
</g>
<!-- Node2&#45;&gt;Node8 -->
<g id="edge9" class="edge">
<title>Node2&#45;&gt;Node8</title>
<path fill="none" stroke="#191970" d="M257.7402,-110.4179C274.7776,-101.6603 300.7875,-88.2907 320.3552,-78.2326"/>
<polygon fill="#191970" stroke="#191970" points="322.0824,-81.2801 329.3762,-73.5956 318.8822,-75.0544 322.0824,-81.2801"/>
</g>
<!-- Node3&#45;&gt;Node4 -->
<g id="edge3" class="edge">
<title>Node3&#45;&gt;Node4</title>
<path fill="none" stroke="#191970" d="M177.1552,-55.4179C149.94,-46.2348 107.696,-31.9807 77.497,-21.7909"/>
<polygon fill="#191970" stroke="#191970" points="78.3507,-18.3851 67.7565,-18.5042 76.1126,-25.0177 78.3507,-18.3851"/>
</g>
<!-- Node5 -->
<g id="node5" class="node">
<title>Node5</title>
<g id="a_node5"><a xlink:title=" ">
<polygon fill="none" stroke="#bfbfbf" points="111.6846,-.5 111.6846,-18.5 150.458,-18.5 150.458,-.5 111.6846,-.5"/>
<text text-anchor="middle" x="131.0713" y="-6.5" font-family="Helvetica,sans-Serif" font-size="10.00" fill="#000000">limits</text>
</a>
</g>
</g>
<!-- Node3&#45;&gt;Node5 -->
<g id="edge4" class="edge">
<title>Node3&#45;&gt;Node5</title>
<path fill="none" stroke="#191970" d="M192.0168,-55.4179C180.9879,-47.1084 164.4481,-34.6469 151.3806,-24.8015"/>
<polygon fill="#191970" stroke="#191970" points="153.4807,-22.0016 143.3877,-18.7795 149.2684,-27.5924 153.4807,-22.0016"/>
</g>
<!-- Node3&#45;&gt;Node6 -->
<g id="edge5" class="edge">
<title>Node3&#45;&gt;Node6</title>
<path fill="none" stroke="#191970" d="M218.7678,-55.4179C232.5527,-46.8992 253.399,-34.0166 269.5062,-24.0627"/>
<polygon fill="#191970" stroke="#191970" points="271.6861,-26.83 278.3529,-18.5956 268.0062,-20.8753 271.6861,-26.83"/>
</g>
<!-- Node7 -->
<g id="node7" class="node">
<title>Node7</title>
<g id="a_node7"><a xlink:title=" ">
<polygon fill="none" stroke="#bfbfbf" points="168.835,-.5 168.835,-18.5 239.3076,-18.5 239.3076,-.5 168.835,-.5"/>
<text text-anchor="middle" x="204.0713" y="-6.5" font-family="Helvetica,sans-Serif" font-size="10.00" fill="#000000">math/vec3.h</text>
</a>
</g>
</g>
<!-- Node3&#45;&gt;Node7 -->
<g id="edge6" class="edge">
<title>Node3&#45;&gt;Node7</title>
<path fill="none" stroke="#191970" d="M204.0713,-55.4179C204.0713,-48.2164 204.0713,-37.8962 204.0713,-28.8632"/>
<polygon fill="#191970" stroke="#191970" points="207.5714,-28.7794 204.0713,-18.7795 200.5714,-28.7795 207.5714,-28.7794"/>
</g>
<!-- Node9&#45;&gt;Node4 -->
<g id="edge11" class="edge">
<title>Node9&#45;&gt;Node4</title>
<path fill="none" stroke="#191970" d="M72.502,-110.3899C64.2078,-101.8492 52.6817,-88.2855 47.0713,-74 41.4115,-59.5886 40.1039,-42.0236 40.1043,-28.8648"/>
<polygon fill="#191970" stroke="#191970" points="43.6093,-28.7111 40.3649,-18.6253 36.6115,-28.533 43.6093,-28.7111"/>
</g>
<!-- Node10 -->
<g id="node10" class="node">
<title>Node10</title>
<g id="a_node10"><a xlink:title=" ">
<polygon fill="none" stroke="#bfbfbf" points="56.2808,-55.5 56.2808,-73.5 107.8618,-73.5 107.8618,-55.5 56.2808,-55.5"/>
<text text-anchor="middle" x="82.0713" y="-61.5" font-family="Helvetica,sans-Serif" font-size="10.00" fill="#000000">stddef.h</text>
</a>
</g>
</g>
<!-- Node9&#45;&gt;Node10 -->
<g id="edge12" class="edge">
<title>Node9&#45;&gt;Node10</title>
<path fill="none" stroke="#191970" d="M82.0713,-110.4179C82.0713,-103.2164 82.0713,-92.8962 82.0713,-83.8632"/>
<polygon fill="#191970" stroke="#191970" points="85.5714,-83.7794 82.0713,-73.7795 78.5714,-83.7795 85.5714,-83.7794"/>
</g>
</g>
</svg>
