<?xml version="1.0" encoding="UTF-8" standalone="no"?>
<!DOCTYPE svg PUBLIC "-//W3C//DTD SVG 1.1//EN"
 "http://www.w3.org/Graphics/SVG/1.1/DTD/svg11.dtd">
<!-- Generated by graphviz version 2.40.1 (20161225.0304)
 -->
<!-- Title: include/filament/Camera.h Pages: 1 -->
<svg width="272pt" height="82pt"
 viewBox="0.00 0.00 271.65 82.00" xmlns="http://www.w3.org/2000/svg" xmlns:xlink="http://www.w3.org/1999/xlink">
<g id="graph0" class="graph" transform="scale(1 1) rotate(0) translate(4 78)">
<title>include/filament/Camera.h</title>
<!-- Node1 -->
<g id="node1" class="node">
<title>Node1</title>
<g id="a_node1"><a xlink:title=" ">
<polygon fill="#bfbfbf" stroke="#000000" points="67.7856,-55.5 67.7856,-73.5 199.9526,-73.5 199.9526,-55.5 67.7856,-55.5"/>
<text text-anchor="middle" x="133.8691" y="-61.5" font-family="Helvetica,sans-Serif" font-size="10.00" fill="#000000">include/filament/Camera.h</text>
</a>
</g>
</g>
<!-- Node2 -->
<g id="node2" class="node">
<title>Node2</title>
<g id="a_node2"><a xlink:href="_engine_8h_source.html" target="_top" xlink:title=" ">
<polygon fill="none" stroke="#000000" points="0,-.5 0,-18.5 127.7383,-18.5 127.7383,-.5 0,-.5"/>
<text text-anchor="middle" x="63.8691" y="-6.5" font-family="Helvetica,sans-Serif" font-size="10.00" fill="#000000">include/filament/Engine.h</text>
</a>
</g>
</g>
<!-- Node1&#45;&gt;Node2 -->
<g id="edge1" class="edge">
<title>Node1&#45;&gt;Node2</title>
<path fill="none" stroke="#191970" d="M114.3328,-49.15C101.9109,-39.3899 86.2363,-27.0742 75.6794,-18.7795"/>
<polygon fill="#191970" stroke="#191970" points="112.2845,-51.9917 122.3101,-55.4179 116.6092,-46.4875 112.2845,-51.9917"/>
</g>
<!-- Node3 -->
<g id="node3" class="node">
<title>Node3</title>
<g id="a_node3"><a xlink:href="_view_8h.html" target="_top" xlink:title=" ">
<polygon fill="none" stroke="#000000" points="146.0928,-.5 146.0928,-18.5 263.6455,-18.5 263.6455,-.5 146.0928,-.5"/>
<text text-anchor="middle" x="204.8691" y="-6.5" font-family="Helvetica,sans-Serif" font-size="10.00" fill="#000000">include/filament/View.h</text>
</a>
</g>
</g>
<!-- Node1&#45;&gt;Node3 -->
<g id="edge2" class="edge">
<title>Node1&#45;&gt;Node3</title>
<path fill="none" stroke="#191970" d="M153.6846,-49.15C166.2839,-39.3899 182.1825,-27.0742 192.8902,-18.7795"/>
<polygon fill="#191970" stroke="#191970" points="151.3555,-46.5269 145.5933,-55.4179 155.6423,-52.0608 151.3555,-46.5269"/>
</g>
</g>
</svg>
