<?xml version="1.0" encoding="UTF-8" standalone="no"?>
<!DOCTYPE svg PUBLIC "-//W3C//DTD SVG 1.1//EN"
 "http://www.w3.org/Graphics/SVG/1.1/DTD/svg11.dtd">
<!-- Generated by graphviz version 2.40.1 (20161225.0304)
 -->
<!-- Title: include/filament/Color.h Pages: 1 -->
<svg width="266pt" height="82pt"
 viewBox="0.00 0.00 266.31 82.00" xmlns="http://www.w3.org/2000/svg" xmlns:xlink="http://www.w3.org/1999/xlink">
<g id="graph0" class="graph" transform="scale(1 1) rotate(0) translate(4 78)">
<title>include/filament/Color.h</title>
<!-- Node1 -->
<g id="node1" class="node">
<title>Node1</title>
<g id="a_node1"><a xlink:title=" ">
<polygon fill="#bfbfbf" stroke="#000000" points="75.0962,-55.5 75.0962,-73.5 195.0464,-73.5 195.0464,-55.5 75.0962,-55.5"/>
<text text-anchor="middle" x="135.0713" y="-61.5" font-family="Helvetica,sans-Serif" font-size="10.00" fill="#000000">include/filament/Color.h</text>
</a>
</g>
</g>
<!-- Node2 -->
<g id="node2" class="node">
<title>Node2</title>
<g id="a_node2"><a xlink:title=" ">
<polygon fill="none" stroke="#bfbfbf" points="0,-.5 0,-18.5 82.1426,-18.5 82.1426,-.5 0,-.5"/>
<text text-anchor="middle" x="41.0713" y="-6.5" font-family="Helvetica,sans-Serif" font-size="10.00" fill="#000000">utils/compiler.h</text>
</a>
</g>
</g>
<!-- Node1&#45;&gt;Node2 -->
<g id="edge1" class="edge">
<title>Node1&#45;&gt;Node2</title>
<path fill="none" stroke="#191970" d="M119.5491,-55.4179C104.8538,-46.8195 82.5601,-33.7754 65.4847,-23.7844"/>
<polygon fill="#191970" stroke="#191970" points="67.0152,-20.6249 56.6165,-18.5956 63.4801,-26.6667 67.0152,-20.6249"/>
</g>
<!-- Node3 -->
<g id="node3" class="node">
<title>Node3</title>
<g id="a_node3"><a xlink:title=" ">
<polygon fill="none" stroke="#bfbfbf" points="99.835,-.5 99.835,-18.5 170.3076,-18.5 170.3076,-.5 99.835,-.5"/>
<text text-anchor="middle" x="135.0713" y="-6.5" font-family="Helvetica,sans-Serif" font-size="10.00" fill="#000000">math/vec3.h</text>
</a>
</g>
</g>
<!-- Node1&#45;&gt;Node3 -->
<g id="edge2" class="edge">
<title>Node1&#45;&gt;Node3</title>
<path fill="none" stroke="#191970" d="M135.0713,-55.4179C135.0713,-48.2164 135.0713,-37.8962 135.0713,-28.8632"/>
<polygon fill="#191970" stroke="#191970" points="138.5714,-28.7794 135.0713,-18.7795 131.5714,-28.7795 138.5714,-28.7794"/>
</g>
<!-- Node4 -->
<g id="node4" class="node">
<title>Node4</title>
<g id="a_node4"><a xlink:title=" ">
<polygon fill="none" stroke="#bfbfbf" points="187.835,-.5 187.835,-18.5 258.3076,-18.5 258.3076,-.5 187.835,-.5"/>
<text text-anchor="middle" x="223.0713" y="-6.5" font-family="Helvetica,sans-Serif" font-size="10.00" fill="#000000">math/vec4.h</text>
</a>
</g>
</g>
<!-- Node1&#45;&gt;Node4 -->
<g id="edge3" class="edge">
<title>Node1&#45;&gt;Node4</title>
<path fill="none" stroke="#191970" d="M149.6027,-55.4179C163.2326,-46.8992 183.8448,-34.0166 199.7709,-24.0627"/>
<polygon fill="#191970" stroke="#191970" points="201.8933,-26.8637 208.5183,-18.5956 198.1833,-20.9277 201.8933,-26.8637"/>
</g>
</g>
</svg>
