<?xml version="1.0" encoding="UTF-8" standalone="no"?>
<!DOCTYPE svg PUBLIC "-//W3C//DTD SVG 1.1//EN"
 "http://www.w3.org/Graphics/SVG/1.1/DTD/svg11.dtd">
<!-- Generated by graphviz version 2.40.1 (20161225.0304)
 -->
<!-- Title: include/filament/DebugRegistry.h Pages: 1 -->
<svg width="581pt" height="137pt"
 viewBox="0.00 0.00 581.19 137.00" xmlns="http://www.w3.org/2000/svg" xmlns:xlink="http://www.w3.org/1999/xlink">
<g id="graph0" class="graph" transform="scale(1 1) rotate(0) translate(4 133)">
<title>include/filament/DebugRegistry.h</title>
<!-- Node1 -->
<g id="node1" class="node">
<title>Node1</title>
<g id="a_node1"><a xlink:title=" ">
<polygon fill="#bfbfbf" stroke="#000000" points="245.0684,-110.5 245.0684,-128.5 407.0742,-128.5 407.0742,-110.5 245.0684,-110.5"/>
<text text-anchor="middle" x="326.0713" y="-116.5" font-family="Helvetica,sans-Serif" font-size="10.00" fill="#000000">include/filament/DebugRegistry.h</text>
</a>
</g>
</g>
<!-- Node2 -->
<g id="node2" class="node">
<title>Node2</title>
<g id="a_node2"><a xlink:href="_filament_a_p_i_8h_source.html" target="_top" xlink:title=" ">
<polygon fill="none" stroke="#000000" points="67.7734,-55.5 67.7734,-73.5 184.3691,-73.5 184.3691,-55.5 67.7734,-55.5"/>
<text text-anchor="middle" x="126.0713" y="-61.5" font-family="Helvetica,sans-Serif" font-size="10.00" fill="#000000">filament/FilamentAPI.h</text>
</a>
</g>
</g>
<!-- Node1&#45;&gt;Node2 -->
<g id="edge1" class="edge">
<title>Node1&#45;&gt;Node2</title>
<path fill="none" stroke="#191970" d="M293.0454,-110.4179C259.0717,-101.0751 206.011,-86.4834 168.8458,-76.263"/>
<polygon fill="#191970" stroke="#191970" points="169.384,-72.7811 158.8139,-73.5042 167.5279,-79.5306 169.384,-72.7811"/>
</g>
<!-- Node3 -->
<g id="node3" class="node">
<title>Node3</title>
<g id="a_node3"><a xlink:title=" ">
<polygon fill="none" stroke="#bfbfbf" points="0,-.5 0,-18.5 82.1426,-18.5 82.1426,-.5 0,-.5"/>
<text text-anchor="middle" x="41.0713" y="-6.5" font-family="Helvetica,sans-Serif" font-size="10.00" fill="#000000">utils/compiler.h</text>
</a>
</g>
</g>
<!-- Node1&#45;&gt;Node3 -->
<g id="edge4" class="edge">
<title>Node1&#45;&gt;Node3</title>
<path fill="none" stroke="#191970" d="M244.8278,-115.0812C176.5298,-109.7112 85.8747,-98.167 59.0713,-74 46.5353,-62.6971 42.429,-43.4686 41.2229,-28.9399"/>
<polygon fill="#191970" stroke="#191970" points="44.7018,-28.3759 40.7718,-18.537 37.7084,-28.6792 44.7018,-28.3759"/>
</g>
<!-- Node5 -->
<g id="node5" class="node">
<title>Node5</title>
<g id="a_node5"><a xlink:title=" ">
<polygon fill="none" stroke="#bfbfbf" points="202.835,-55.5 202.835,-73.5 273.3076,-73.5 273.3076,-55.5 202.835,-55.5"/>
<text text-anchor="middle" x="238.0713" y="-61.5" font-family="Helvetica,sans-Serif" font-size="10.00" fill="#000000">math/vec2.h</text>
</a>
</g>
</g>
<!-- Node1&#45;&gt;Node5 -->
<g id="edge5" class="edge">
<title>Node1&#45;&gt;Node5</title>
<path fill="none" stroke="#191970" d="M311.5399,-110.4179C297.9099,-101.8992 277.2978,-89.0166 261.3716,-79.0627"/>
<polygon fill="#191970" stroke="#191970" points="262.9593,-75.9277 252.6243,-73.5956 259.2493,-81.8637 262.9593,-75.9277"/>
</g>
<!-- Node6 -->
<g id="node6" class="node">
<title>Node6</title>
<g id="a_node6"><a xlink:title=" ">
<polygon fill="none" stroke="#bfbfbf" points="290.835,-55.5 290.835,-73.5 361.3076,-73.5 361.3076,-55.5 290.835,-55.5"/>
<text text-anchor="middle" x="326.0713" y="-61.5" font-family="Helvetica,sans-Serif" font-size="10.00" fill="#000000">math/vec3.h</text>
</a>
</g>
</g>
<!-- Node1&#45;&gt;Node6 -->
<g id="edge6" class="edge">
<title>Node1&#45;&gt;Node6</title>
<path fill="none" stroke="#191970" d="M326.0713,-110.4179C326.0713,-103.2164 326.0713,-92.8962 326.0713,-83.8632"/>
<polygon fill="#191970" stroke="#191970" points="329.5714,-83.7794 326.0713,-73.7795 322.5714,-83.7795 329.5714,-83.7794"/>
</g>
<!-- Node7 -->
<g id="node7" class="node">
<title>Node7</title>
<g id="a_node7"><a xlink:title=" ">
<polygon fill="none" stroke="#bfbfbf" points="378.835,-55.5 378.835,-73.5 449.3076,-73.5 449.3076,-55.5 378.835,-55.5"/>
<text text-anchor="middle" x="414.0713" y="-61.5" font-family="Helvetica,sans-Serif" font-size="10.00" fill="#000000">math/vec4.h</text>
</a>
</g>
</g>
<!-- Node1&#45;&gt;Node7 -->
<g id="edge7" class="edge">
<title>Node1&#45;&gt;Node7</title>
<path fill="none" stroke="#191970" d="M340.6027,-110.4179C354.2326,-101.8992 374.8448,-89.0166 390.7709,-79.0627"/>
<polygon fill="#191970" stroke="#191970" points="392.8933,-81.8637 399.5183,-73.5956 389.1833,-75.9277 392.8933,-81.8637"/>
</g>
<!-- Node8 -->
<g id="node8" class="node">
<title>Node8</title>
<g id="a_node8"><a xlink:title=" ">
<polygon fill="none" stroke="#bfbfbf" points="467.6797,-55.5 467.6797,-73.5 506.4629,-73.5 506.4629,-55.5 467.6797,-55.5"/>
<text text-anchor="middle" x="487.0713" y="-61.5" font-family="Helvetica,sans-Serif" font-size="10.00" fill="#000000">utility</text>
</a>
</g>
</g>
<!-- Node1&#45;&gt;Node8 -->
<g id="edge8" class="edge">
<title>Node1&#45;&gt;Node8</title>
<path fill="none" stroke="#191970" d="M352.6572,-110.4179C381.705,-100.4947 428.0864,-84.6501 458.0589,-74.4111"/>
<polygon fill="#191970" stroke="#191970" points="459.2141,-77.7151 467.5457,-71.1702 456.9512,-71.091 459.2141,-77.7151"/>
</g>
<!-- Node9 -->
<g id="node9" class="node">
<title>Node9</title>
<g id="a_node9"><a xlink:title=" ">
<polygon fill="none" stroke="#bfbfbf" points="524.9507,-55.5 524.9507,-73.5 573.1919,-73.5 573.1919,-55.5 524.9507,-55.5"/>
<text text-anchor="middle" x="549.0713" y="-61.5" font-family="Helvetica,sans-Serif" font-size="10.00" fill="#000000">stdint.h</text>
</a>
</g>
</g>
<!-- Node1&#45;&gt;Node9 -->
<g id="edge9" class="edge">
<title>Node1&#45;&gt;Node9</title>
<path fill="none" stroke="#191970" d="M365.6319,-110.4159C401.8479,-102.0017 457.1615,-88.9061 514.5993,-74.0509"/>
<polygon fill="#191970" stroke="#191970" points="515.7877,-77.3584 524.5859,-71.4557 514.027,-70.5835 515.7877,-77.3584"/>
</g>
<!-- Node2&#45;&gt;Node3 -->
<g id="edge2" class="edge">
<title>Node2&#45;&gt;Node3</title>
<path fill="none" stroke="#191970" d="M112.0353,-55.4179C98.87,-46.8992 78.9605,-34.0166 63.5773,-24.0627"/>
<polygon fill="#191970" stroke="#191970" points="65.4253,-21.0897 55.1282,-18.5956 61.6225,-26.9667 65.4253,-21.0897"/>
</g>
<!-- Node4 -->
<g id="node4" class="node">
<title>Node4</title>
<g id="a_node4"><a xlink:title=" ">
<polygon fill="none" stroke="#bfbfbf" points="100.2808,-.5 100.2808,-18.5 151.8618,-18.5 151.8618,-.5 100.2808,-.5"/>
<text text-anchor="middle" x="126.0713" y="-6.5" font-family="Helvetica,sans-Serif" font-size="10.00" fill="#000000">stddef.h</text>
</a>
</g>
</g>
<!-- Node2&#45;&gt;Node4 -->
<g id="edge3" class="edge">
<title>Node2&#45;&gt;Node4</title>
<path fill="none" stroke="#191970" d="M126.0713,-55.4179C126.0713,-48.2164 126.0713,-37.8962 126.0713,-28.8632"/>
<polygon fill="#191970" stroke="#191970" points="129.5714,-28.7794 126.0713,-18.7795 122.5714,-28.7795 129.5714,-28.7794"/>
</g>
</g>
</svg>
