<?xml version="1.0" encoding="UTF-8" standalone="no"?>
<!DOCTYPE svg PUBLIC "-//W3C//DTD SVG 1.1//EN"
 "http://www.w3.org/Graphics/SVG/1.1/DTD/svg11.dtd">
<!-- Generated by graphviz version 2.40.1 (20161225.0304)
 -->
<!-- Title: backend/include/backend/DriverEnums.h Pages: 1 -->
<svg width="2132pt" height="297pt"
 viewBox="0.00 0.00 2132.23 297.00" xmlns="http://www.w3.org/2000/svg" xmlns:xlink="http://www.w3.org/1999/xlink">
<g id="graph0" class="graph" transform="scale(1 1) rotate(0) translate(4 293)">
<title>backend/include/backend/DriverEnums.h</title>
<!-- Node1 -->
<g id="node1" class="node">
<title>Node1</title>
<g id="a_node1"><a xlink:title=" ">
<polygon fill="#bfbfbf" stroke="#000000" points="904.7661,-260.5 904.7661,-288.5 1033.6274,-288.5 1033.6274,-260.5 904.7661,-260.5"/>
<text text-anchor="start" x="912.7661" y="-276.5" font-family="Helvetica,sans-Serif" font-size="10.00" fill="#000000">backend/include/backend</text>
<text text-anchor="middle" x="969.1968" y="-266.5" font-family="Helvetica,sans-Serif" font-size="10.00" fill="#000000">/DriverEnums.h</text>
</a>
</g>
</g>
<!-- Node2 -->
<g id="node2" class="node">
<title>Node2</title>
<g id="a_node2"><a xlink:href="_fence_8h.html" target="_top" xlink:title=" ">
<polygon fill="none" stroke="#000000" points="0,-200.5 0,-218.5 124.3936,-218.5 124.3936,-200.5 0,-200.5"/>
<text text-anchor="middle" x="62.1968" y="-206.5" font-family="Helvetica,sans-Serif" font-size="10.00" fill="#000000">include/filament/Fence.h</text>
</a>
</g>
</g>
<!-- Node1&#45;&gt;Node2 -->
<g id="edge1" class="edge">
<title>Node1&#45;&gt;Node2</title>
<path fill="none" stroke="#191970" d="M894.432,-273.5157C747.8095,-270.8063 412.4708,-260.7656 133.1968,-224 122.844,-222.6371 111.741,-220.6337 101.4625,-218.5485"/>
<polygon fill="#191970" stroke="#191970" points="894.5984,-277.0191 904.6594,-273.6984 894.7235,-270.0202 894.5984,-277.0191"/>
</g>
<!-- Node4 -->
<g id="node4" class="node">
<title>Node4</title>
<g id="a_node4"><a xlink:href="_index_buffer_8h.html" target="_top" xlink:title=" ">
<polygon fill="none" stroke="#000000" points="782.6865,-70.5 782.6865,-88.5 929.707,-88.5 929.707,-70.5 782.6865,-70.5"/>
<text text-anchor="middle" x="856.1968" y="-76.5" font-family="Helvetica,sans-Serif" font-size="10.00" fill="#000000">include/filament/IndexBuffer.h</text>
</a>
</g>
</g>
<!-- Node1&#45;&gt;Node4 -->
<g id="edge3" class="edge">
<title>Node1&#45;&gt;Node4</title>
<path fill="none" stroke="#191970" d="M894.7702,-262.7875C845.8695,-253.8029 787.4957,-240.2107 768.1968,-224 734.7192,-195.8796 715.1759,-166.5309 739.1968,-130 753.6614,-108.0022 779.9598,-95.5434 803.9647,-88.5087"/>
<polygon fill="#191970" stroke="#191970" points="894.2645,-266.2527 904.7262,-264.5782 895.5037,-259.3632 894.2645,-266.2527"/>
</g>
<!-- Node6 -->
<g id="node6" class="node">
<title>Node6</title>
<g id="a_node6"><a xlink:href="_material_8h_source.html" target="_top" xlink:title=" ">
<polygon fill="none" stroke="#000000" points="426.1133,-70.5 426.1133,-88.5 558.2803,-88.5 558.2803,-70.5 426.1133,-70.5"/>
<text text-anchor="middle" x="492.1968" y="-76.5" font-family="Helvetica,sans-Serif" font-size="10.00" fill="#000000">include/filament/Material.h</text>
</a>
</g>
</g>
<!-- Node1&#45;&gt;Node6 -->
<g id="edge5" class="edge">
<title>Node1&#45;&gt;Node6</title>
<path fill="none" stroke="#191970" d="M894.5661,-270.5018C774.804,-263.4346 550.234,-247.2534 522.1968,-224 480.9788,-189.8148 487.0665,-115.1356 490.6911,-88.8666"/>
<polygon fill="#191970" stroke="#191970" points="894.5764,-274.0083 904.7632,-271.0965 894.984,-267.0201 894.5764,-274.0083"/>
</g>
<!-- Node7 -->
<g id="node7" class="node">
<title>Node7</title>
<g id="a_node7"><a xlink:href="_render_target_8h.html" target="_top" xlink:title=" ">
<polygon fill="none" stroke="#000000" points="1822.6011,-200.5 1822.6011,-218.5 1979.7925,-218.5 1979.7925,-200.5 1822.6011,-200.5"/>
<text text-anchor="middle" x="1901.1968" y="-206.5" font-family="Helvetica,sans-Serif" font-size="10.00" fill="#000000">include/filament/RenderTarget.h</text>
</a>
</g>
</g>
<!-- Node1&#45;&gt;Node7 -->
<g id="edge7" class="edge">
<title>Node1&#45;&gt;Node7</title>
<path fill="none" stroke="#191970" d="M1044.0903,-272.368C1190.9961,-267.6611 1527.1346,-254.3008 1808.1968,-224 1821.3567,-222.5813 1835.4993,-220.6087 1848.6853,-218.5748"/>
<polygon fill="#191970" stroke="#191970" points="1043.7278,-268.8776 1033.8434,-272.6921 1043.9491,-275.8741 1043.7278,-268.8776"/>
</g>
<!-- Node8 -->
<g id="node8" class="node">
<title>Node8</title>
<g id="a_node8"><a xlink:href="_stream_8h_source.html" target="_top" xlink:title=" ">
<polygon fill="none" stroke="#000000" points="1069.7808,-135.5 1069.7808,-153.5 1198.6128,-153.5 1198.6128,-135.5 1069.7808,-135.5"/>
<text text-anchor="middle" x="1134.1968" y="-141.5" font-family="Helvetica,sans-Serif" font-size="10.00" fill="#000000">include/filament/Stream.h</text>
</a>
</g>
</g>
<!-- Node1&#45;&gt;Node8 -->
<g id="edge8" class="edge">
<title>Node1&#45;&gt;Node8</title>
<path fill="none" stroke="#191970" d="M975.5985,-250.231C981.3101,-232.8127 991.2786,-209.8797 1007.1968,-195 1030.0776,-173.6119 1063.128,-160.8539 1089.7772,-153.5126"/>
<polygon fill="#191970" stroke="#191970" points="972.1157,-249.6576 972.5771,-260.2424 978.8172,-251.6801 972.1157,-249.6576"/>
</g>
<!-- Node9 -->
<g id="node9" class="node">
<title>Node9</title>
<g id="a_node9"><a xlink:href="_swap_chain_8h_source.html" target="_top" xlink:title=" ">
<polygon fill="none" stroke="#000000" points="142.3252,-200.5 142.3252,-218.5 290.0684,-218.5 290.0684,-200.5 142.3252,-200.5"/>
<text text-anchor="middle" x="216.1968" y="-206.5" font-family="Helvetica,sans-Serif" font-size="10.00" fill="#000000">include/filament/SwapChain.h</text>
</a>
</g>
</g>
<!-- Node1&#45;&gt;Node9 -->
<g id="edge9" class="edge">
<title>Node1&#45;&gt;Node9</title>
<path fill="none" stroke="#191970" d="M894.1552,-271.2399C770.0139,-265.3102 514.2385,-250.8228 299.1968,-224 287.4392,-222.5334 274.8126,-220.5433 263.044,-218.5077"/>
<polygon fill="#191970" stroke="#191970" points="894.155,-274.7437 904.3091,-271.7198 894.4855,-267.7515 894.155,-274.7437"/>
</g>
<!-- Node10 -->
<g id="node10" class="node">
<title>Node10</title>
<g id="a_node10"><a xlink:href="_texture_8h.html" target="_top" xlink:title=" ">
<polygon fill="none" stroke="#000000" points="748.5,-135.5 748.5,-153.5 877.8936,-153.5 877.8936,-135.5 748.5,-135.5"/>
<text text-anchor="middle" x="813.1968" y="-141.5" font-family="Helvetica,sans-Serif" font-size="10.00" fill="#000000">include/filament/Texture.h</text>
</a>
</g>
</g>
<!-- Node1&#45;&gt;Node10 -->
<g id="edge11" class="edge">
<title>Node1&#45;&gt;Node10</title>
<path fill="none" stroke="#191970" d="M894.3358,-264.3209C846.8832,-256.1597 791.7851,-242.9215 777.1968,-224 759.8046,-201.4418 787.3722,-169.1411 803.2447,-153.573"/>
<polygon fill="#191970" stroke="#191970" points="893.8891,-267.7946 904.3283,-265.9856 895.0394,-260.8898 893.8891,-267.7946"/>
</g>
<!-- Node11 -->
<g id="node11" class="node">
<title>Node11</title>
<g id="a_node11"><a xlink:href="_texture_sampler_8h.html" target="_top" xlink:title=" ">
<polygon fill="none" stroke="#000000" points="531.6699,-195.5 531.6699,-223.5 652.7236,-223.5 652.7236,-195.5 531.6699,-195.5"/>
<text text-anchor="start" x="539.6699" y="-211.5" font-family="Helvetica,sans-Serif" font-size="10.00" fill="#000000">include/filament/Texture</text>
<text text-anchor="middle" x="592.1968" y="-201.5" font-family="Helvetica,sans-Serif" font-size="10.00" fill="#000000">Sampler.h</text>
</a>
</g>
</g>
<!-- Node1&#45;&gt;Node11 -->
<g id="edge13" class="edge">
<title>Node1&#45;&gt;Node11</title>
<path fill="none" stroke="#191970" d="M894.6179,-262.4622C833.6582,-252.5086 745.2694,-237.8159 668.1968,-224 663.1725,-223.0994 657.9653,-222.1466 652.7401,-221.1771"/>
<polygon fill="#191970" stroke="#191970" points="894.1041,-265.9246 904.5371,-264.0795 895.2307,-259.0158 894.1041,-265.9246"/>
</g>
<!-- Node13 -->
<g id="node13" class="node">
<title>Node13</title>
<g id="a_node13"><a xlink:href="_vertex_buffer_8h.html" target="_top" xlink:title=" ">
<polygon fill="none" stroke="#000000" points="613.7407,-70.5 613.7407,-88.5 764.6528,-88.5 764.6528,-70.5 613.7407,-70.5"/>
<text text-anchor="middle" x="689.1968" y="-76.5" font-family="Helvetica,sans-Serif" font-size="10.00" fill="#000000">include/filament/VertexBuffer.h</text>
</a>
</g>
</g>
<!-- Node1&#45;&gt;Node13 -->
<g id="edge18" class="edge">
<title>Node1&#45;&gt;Node13</title>
<path fill="none" stroke="#191970" d="M894.7146,-266.3366C835.9569,-258.4657 760.1993,-244.6769 737.1968,-224 696.1084,-187.0657 690.1167,-114.1262 689.3016,-88.5886"/>
<polygon fill="#191970" stroke="#191970" points="894.3592,-269.8198 904.7281,-267.6434 895.2651,-262.8787 894.3592,-269.8198"/>
</g>
<!-- Node14 -->
<g id="node14" class="node">
<title>Node14</title>
<g id="a_node14"><a xlink:href="_view_8h.html" target="_top" xlink:title=" ">
<polygon fill="none" stroke="#000000" points="934.4204,-135.5 934.4204,-153.5 1051.9731,-153.5 1051.9731,-135.5 934.4204,-135.5"/>
<text text-anchor="middle" x="993.1968" y="-141.5" font-family="Helvetica,sans-Serif" font-size="10.00" fill="#000000">include/filament/View.h</text>
</a>
</g>
</g>
<!-- Node1&#45;&gt;Node14 -->
<g id="edge20" class="edge">
<title>Node1&#45;&gt;Node14</title>
<path fill="none" stroke="#191970" d="M968.8679,-250.1976C969.1065,-234.3252 970.2842,-213.2374 974.1968,-195 977.4193,-179.9793 984.3105,-163.4787 988.8475,-153.5587"/>
<polygon fill="#191970" stroke="#191970" points="965.3678,-250.2409 968.8307,-260.2539 972.3677,-250.2669 965.3678,-250.2409"/>
</g>
<!-- Node15 -->
<g id="node15" class="node">
<title>Node15</title>
<g id="a_node15"><a xlink:href="_viewport_8h.html" target="_top" xlink:title=" ">
<polygon fill="none" stroke="#000000" points="786.5313,-200.5 786.5313,-218.5 921.8623,-218.5 921.8623,-200.5 786.5313,-200.5"/>
<text text-anchor="middle" x="854.1968" y="-206.5" font-family="Helvetica,sans-Serif" font-size="10.00" fill="#000000">include/filament/Viewport.h</text>
</a>
</g>
</g>
<!-- Node1&#45;&gt;Node15 -->
<g id="edge21" class="edge">
<title>Node1&#45;&gt;Node15</title>
<path fill="none" stroke="#191970" d="M935.4028,-255.3991C913.904,-243.2475 887.0452,-228.0665 870.2513,-218.5743"/>
<polygon fill="#191970" stroke="#191970" points="933.8156,-258.5223 944.2435,-260.396 937.2601,-252.4284 933.8156,-258.5223"/>
</g>
<!-- Node17 -->
<g id="node17" class="node">
<title>Node17</title>
<g id="a_node17"><a xlink:href="_pipeline_state_8h_source.html" target="_top" xlink:title=" ">
<polygon fill="none" stroke="#000000" points="1637.7661,-195.5 1637.7661,-223.5 1766.6274,-223.5 1766.6274,-195.5 1637.7661,-195.5"/>
<text text-anchor="start" x="1645.7661" y="-211.5" font-family="Helvetica,sans-Serif" font-size="10.00" fill="#000000">backend/include/backend</text>
<text text-anchor="middle" x="1702.1968" y="-201.5" font-family="Helvetica,sans-Serif" font-size="10.00" fill="#000000">/PipelineState.h</text>
</a>
</g>
</g>
<!-- Node1&#45;&gt;Node17 -->
<g id="edge25" class="edge">
<title>Node1&#45;&gt;Node17</title>
<path fill="none" stroke="#191970" d="M1044.0318,-271.619C1166.5806,-266.262 1417.5185,-252.6131 1628.1968,-224 1631.3102,-223.5772 1634.4902,-223.1062 1637.697,-222.5997"/>
<polygon fill="#191970" stroke="#191970" points="1043.8444,-268.1237 1034.0045,-272.0513 1044.146,-275.1172 1043.8444,-268.1237"/>
</g>
<!-- Node18 -->
<g id="node18" class="node">
<title>Node18</title>
<g id="a_node18"><a xlink:href="_command_stream_8h_source.html" target="_top" xlink:title=" ">
<polygon fill="none" stroke="#000000" points="1417.165,-65.5 1417.165,-93.5 1563.2285,-93.5 1563.2285,-65.5 1417.165,-65.5"/>
<text text-anchor="start" x="1425.165" y="-81.5" font-family="Helvetica,sans-Serif" font-size="10.00" fill="#000000">backend/include/private</text>
<text text-anchor="middle" x="1490.1968" y="-71.5" font-family="Helvetica,sans-Serif" font-size="10.00" fill="#000000">/backend/CommandStream.h</text>
</a>
</g>
</g>
<!-- Node1&#45;&gt;Node18 -->
<g id="edge43" class="edge">
<title>Node1&#45;&gt;Node18</title>
<path fill="none" stroke="#191970" d="M1043.9684,-272.558C1239.0892,-267.1281 1750.3686,-250.4324 1775.1968,-224 1844.7017,-150.0039 1669.2009,-107.9594 1563.4588,-89.9978"/>
<polygon fill="#191970" stroke="#191970" points="1043.7025,-269.0639 1033.803,-272.8387 1043.8958,-276.0613 1043.7025,-269.0639"/>
</g>
<!-- Node20 -->
<g id="node20" class="node">
<title>Node20</title>
<g id="a_node20"><a xlink:href="_driver_8h_source.html" target="_top" xlink:title=" ">
<polygon fill="none" stroke="#000000" points="1340.6626,-130.5 1340.6626,-158.5 1461.731,-158.5 1461.731,-130.5 1340.6626,-130.5"/>
<text text-anchor="start" x="1348.6626" y="-146.5" font-family="Helvetica,sans-Serif" font-size="10.00" fill="#000000">backend/include/private</text>
<text text-anchor="middle" x="1401.1968" y="-136.5" font-family="Helvetica,sans-Serif" font-size="10.00" fill="#000000">/backend/Driver.h</text>
</a>
</g>
</g>
<!-- Node1&#45;&gt;Node20 -->
<g id="edge44" class="edge">
<title>Node1&#45;&gt;Node20</title>
<path fill="none" stroke="#191970" d="M1044.1294,-267.5491C1127.2248,-259.0568 1255.4631,-243.396 1300.1968,-224 1302.5768,-222.968 1354.8156,-181.4682 1383.2057,-158.8501"/>
<polygon fill="#191970" stroke="#191970" points="1043.5747,-264.0872 1033.9768,-268.574 1044.2778,-271.0518 1043.5747,-264.0872"/>
</g>
<!-- Node21 -->
<g id="node21" class="node">
<title>Node21</title>
<g id="a_node21"><a xlink:href="_pixel_buffer_descriptor_8h.html" target="_top" xlink:title=" ">
<polygon fill="none" stroke="#000000" points="1015.7661,-195.5 1015.7661,-223.5 1144.6274,-223.5 1144.6274,-195.5 1015.7661,-195.5"/>
<text text-anchor="start" x="1023.7661" y="-211.5" font-family="Helvetica,sans-Serif" font-size="10.00" fill="#000000">backend/include/backend</text>
<text text-anchor="middle" x="1080.1968" y="-201.5" font-family="Helvetica,sans-Serif" font-size="10.00" fill="#000000">/PixelBufferDescriptor.h</text>
</a>
</g>
</g>
<!-- Node1&#45;&gt;Node21 -->
<g id="edge31" class="edge">
<title>Node1&#45;&gt;Node21</title>
<path fill="none" stroke="#191970" d="M1001.992,-255.2956C1019.3606,-245.1248 1040.3138,-232.8549 1056.1584,-223.5765"/>
<polygon fill="#191970" stroke="#191970" points="1000.1428,-252.3224 993.2821,-260.396 1003.6801,-258.363 1000.1428,-252.3224"/>
</g>
<!-- Node22 -->
<g id="node22" class="node">
<title>Node22</title>
<g id="a_node22"><a xlink:href="_platform_8h.html" target="_top" xlink:title=" ">
<polygon fill="none" stroke="#000000" points="307.7661,-195.5 307.7661,-223.5 436.6274,-223.5 436.6274,-195.5 307.7661,-195.5"/>
<text text-anchor="start" x="315.7661" y="-211.5" font-family="Helvetica,sans-Serif" font-size="10.00" fill="#000000">backend/include/backend</text>
<text text-anchor="middle" x="372.1968" y="-201.5" font-family="Helvetica,sans-Serif" font-size="10.00" fill="#000000">/Platform.h</text>
</a>
</g>
</g>
<!-- Node1&#45;&gt;Node22 -->
<g id="edge36" class="edge">
<title>Node1&#45;&gt;Node22</title>
<path fill="none" stroke="#191970" d="M894.5529,-269.283C793.5061,-261.7543 607.7061,-246.2605 450.1968,-224 445.8326,-223.3832 441.3407,-222.6941 436.8212,-221.9603"/>
<polygon fill="#191970" stroke="#191970" points="894.4283,-272.7833 904.6593,-270.0305 894.9447,-265.8023 894.4283,-272.7833"/>
</g>
<!-- Node24 -->
<g id="node24" class="node">
<title>Node24</title>
<g id="a_node24"><a xlink:href="_target_buffer_info_8h_source.html" target="_top" xlink:title=" ">
<polygon fill="none" stroke="#000000" points="1162.7661,-195.5 1162.7661,-223.5 1291.6274,-223.5 1291.6274,-195.5 1162.7661,-195.5"/>
<text text-anchor="start" x="1170.7661" y="-211.5" font-family="Helvetica,sans-Serif" font-size="10.00" fill="#000000">backend/include/backend</text>
<text text-anchor="middle" x="1227.1968" y="-201.5" font-family="Helvetica,sans-Serif" font-size="10.00" fill="#000000">/TargetBufferInfo.h</text>
</a>
</g>
</g>
<!-- Node1&#45;&gt;Node24 -->
<g id="edge39" class="edge">
<title>Node1&#45;&gt;Node24</title>
<path fill="none" stroke="#191970" d="M1034.7511,-257.9844C1076.8922,-247.3674 1131.0616,-233.7201 1171.1873,-223.6109"/>
<polygon fill="#191970" stroke="#191970" points="1033.7032,-254.6389 1024.8613,-260.476 1035.4134,-261.4268 1033.7032,-254.6389"/>
</g>
<!-- Node25 -->
<g id="node25" class="node">
<title>Node25</title>
<g id="a_node25"><a xlink:href="_backend_utils_8h_source.html" target="_top" xlink:title=" ">
<polygon fill="none" stroke="#000000" points="1998.165,-195.5 1998.165,-223.5 2124.2285,-223.5 2124.2285,-195.5 1998.165,-195.5"/>
<text text-anchor="start" x="2006.165" y="-211.5" font-family="Helvetica,sans-Serif" font-size="10.00" fill="#000000">backend/include/private</text>
<text text-anchor="middle" x="2061.1968" y="-201.5" font-family="Helvetica,sans-Serif" font-size="10.00" fill="#000000">/backend/BackendUtils.h</text>
</a>
</g>
</g>
<!-- Node1&#45;&gt;Node25 -->
<g id="edge42" class="edge">
<title>Node1&#45;&gt;Node25</title>
<path fill="none" stroke="#191970" d="M1044.0051,-272.2476C1247.1771,-265.8986 1806.2153,-246.8253 1989.1968,-224 1992.1069,-223.637 1995.0754,-223.2222 1998.0681,-222.7677"/>
<polygon fill="#191970" stroke="#191970" points="1043.6203,-268.7578 1033.734,-272.5672 1043.8381,-275.7544 1043.6203,-268.7578"/>
</g>
<!-- Node26 -->
<g id="node26" class="node">
<title>Node26</title>
<g id="a_node26"><a xlink:href="_program_8h_source.html" target="_top" xlink:title=" ">
<polygon fill="none" stroke="#000000" points="1347.6626,-195.5 1347.6626,-223.5 1468.731,-223.5 1468.731,-195.5 1347.6626,-195.5"/>
<text text-anchor="start" x="1355.6626" y="-211.5" font-family="Helvetica,sans-Serif" font-size="10.00" fill="#000000">backend/include/private</text>
<text text-anchor="middle" x="1408.1968" y="-201.5" font-family="Helvetica,sans-Serif" font-size="10.00" fill="#000000">/backend/Program.h</text>
</a>
</g>
</g>
<!-- Node1&#45;&gt;Node26 -->
<g id="edge45" class="edge">
<title>Node1&#45;&gt;Node26</title>
<path fill="none" stroke="#191970" d="M1043.906,-265.3142C1117.6119,-255.9743 1233.4109,-240.5559 1333.1968,-224 1337.7759,-223.2403 1342.5048,-222.4172 1347.2569,-221.5624"/>
<polygon fill="#191970" stroke="#191970" points="1043.274,-261.8662 1033.7912,-266.5913 1044.1509,-268.811 1043.274,-261.8662"/>
</g>
<!-- Node27 -->
<g id="node27" class="node">
<title>Node27</title>
<g id="a_node27"><a xlink:href="_sampler_group_8h_source.html" target="_top" xlink:title=" ">
<polygon fill="none" stroke="#000000" points="1486.8301,-195.5 1486.8301,-223.5 1619.5635,-223.5 1619.5635,-195.5 1486.8301,-195.5"/>
<text text-anchor="start" x="1494.8301" y="-211.5" font-family="Helvetica,sans-Serif" font-size="10.00" fill="#000000">backend/include/private</text>
<text text-anchor="middle" x="1553.1968" y="-201.5" font-family="Helvetica,sans-Serif" font-size="10.00" fill="#000000">/backend/SamplerGroup.h</text>
</a>
</g>
</g>
<!-- Node1&#45;&gt;Node27 -->
<g id="edge48" class="edge">
<title>Node1&#45;&gt;Node27</title>
<path fill="none" stroke="#191970" d="M1043.9565,-269.2492C1143.4174,-261.769 1324.5867,-246.4205 1478.1968,-224 1480.9526,-223.5978 1483.761,-223.164 1486.5947,-222.7065"/>
<polygon fill="#191970" stroke="#191970" points="1043.4206,-265.7794 1033.7088,-270.0138 1043.9415,-272.76 1043.4206,-265.7794"/>
</g>
<!-- Node3 -->
<g id="node3" class="node">
<title>Node3</title>
<g id="a_node3"><a xlink:href="_engine_8h_source.html" target="_top" xlink:title=" ">
<polygon fill="none" stroke="#000000" points="148.3276,-135.5 148.3276,-153.5 276.0659,-153.5 276.0659,-135.5 148.3276,-135.5"/>
<text text-anchor="middle" x="212.1968" y="-141.5" font-family="Helvetica,sans-Serif" font-size="10.00" fill="#000000">include/filament/Engine.h</text>
</a>
</g>
</g>
<!-- Node2&#45;&gt;Node3 -->
<g id="edge2" class="edge">
<title>Node2&#45;&gt;Node3</title>
<path fill="none" stroke="#191970" d="M92.3807,-196.4203C121.6461,-183.7386 165.2879,-164.8272 191.0335,-153.6708"/>
<polygon fill="#191970" stroke="#191970" points="90.8376,-193.2744 83.0536,-200.462 93.6208,-199.6973 90.8376,-193.2744"/>
</g>
<!-- Node5 -->
<g id="node5" class="node">
<title>Node5</title>
<g id="a_node5"><a xlink:href="_renderable_manager_8h_source.html" target="_top" xlink:title=" ">
<polygon fill="none" stroke="#000000" points="619.2144,-.5 619.2144,-28.5 759.1792,-28.5 759.1792,-.5 619.2144,-.5"/>
<text text-anchor="start" x="627.2144" y="-16.5" font-family="Helvetica,sans-Serif" font-size="10.00" fill="#000000">include/filament/Renderable</text>
<text text-anchor="middle" x="689.1968" y="-6.5" font-family="Helvetica,sans-Serif" font-size="10.00" fill="#000000">Manager.h</text>
</a>
</g>
</g>
<!-- Node4&#45;&gt;Node5 -->
<g id="edge4" class="edge">
<title>Node4&#45;&gt;Node5</title>
<path fill="none" stroke="#191970" d="M823.5561,-66.7955C795.3367,-55.812 754.5986,-39.9558 725.3883,-28.5865"/>
<polygon fill="#191970" stroke="#191970" points="822.3876,-70.0965 832.9761,-70.462 824.9267,-63.5732 822.3876,-70.0965"/>
</g>
<!-- Node6&#45;&gt;Node5 -->
<g id="edge6" class="edge">
<title>Node6&#45;&gt;Node5</title>
<path fill="none" stroke="#191970" d="M529.4004,-67.2247C562.7283,-56.2282 611.5947,-40.1047 646.5038,-28.5865"/>
<polygon fill="#191970" stroke="#191970" points="527.9885,-64.0049 519.5888,-70.462 530.1819,-70.6524 527.9885,-64.0049"/>
</g>
<!-- Node9&#45;&gt;Node3 -->
<g id="edge10" class="edge">
<title>Node9&#45;&gt;Node3</title>
<path fill="none" stroke="#191970" d="M215.0046,-190.1265C214.2677,-178.1522 213.355,-163.3205 212.7741,-153.8821"/>
<polygon fill="#191970" stroke="#191970" points="211.5329,-190.6959 215.6406,-200.462 218.5197,-190.2659 211.5329,-190.6959"/>
</g>
<!-- Node10&#45;&gt;Node6 -->
<g id="edge12" class="edge">
<title>Node10&#45;&gt;Node6</title>
<path fill="none" stroke="#191970" d="M758.4865,-133.4216C695.9136,-120.7511 594.6612,-100.2482 536.7092,-88.5134"/>
<polygon fill="#191970" stroke="#191970" points="758.0674,-136.9077 768.5631,-135.462 759.4567,-130.0469 758.0674,-136.9077"/>
</g>
<!-- Node11&#45;&gt;Node6 -->
<g id="edge14" class="edge">
<title>Node11&#45;&gt;Node6</title>
<path fill="none" stroke="#191970" d="M556.319,-190.0755C543.8163,-181.8588 530.5828,-171.3169 521.1968,-159 504.4557,-137.0313 496.6632,-104.4543 493.7046,-88.6977"/>
<polygon fill="#191970" stroke="#191970" points="554.4684,-193.0462 564.8017,-195.3858 558.1827,-187.1129 554.4684,-193.0462"/>
</g>
<!-- Node12 -->
<g id="node12" class="node">
<title>Node12</title>
<g id="a_node12"><a xlink:href="_material_instance_8h_source.html" target="_top" xlink:title=" ">
<polygon fill="none" stroke="#000000" points="530.2832,-130.5 530.2832,-158.5 654.1104,-158.5 654.1104,-130.5 530.2832,-130.5"/>
<text text-anchor="start" x="538.2832" y="-146.5" font-family="Helvetica,sans-Serif" font-size="10.00" fill="#000000">include/filament/Material</text>
<text text-anchor="middle" x="592.1968" y="-136.5" font-family="Helvetica,sans-Serif" font-size="10.00" fill="#000000">Instance.h</text>
</a>
</g>
</g>
<!-- Node11&#45;&gt;Node12 -->
<g id="edge15" class="edge">
<title>Node11&#45;&gt;Node12</title>
<path fill="none" stroke="#191970" d="M592.1968,-185.1081C592.1968,-176.1539 592.1968,-166.3227 592.1968,-158.5765"/>
<polygon fill="#191970" stroke="#191970" points="588.6969,-185.3959 592.1968,-195.396 595.6969,-185.396 588.6969,-185.3959"/>
</g>
<!-- Node12&#45;&gt;Node5 -->
<g id="edge17" class="edge">
<title>Node12&#45;&gt;Node5</title>
<path fill="none" stroke="#191970" d="M591.0216,-120.1082C591.374,-103.2892 594.2523,-81.1427 605.1968,-65 616.2733,-48.6625 634.5588,-36.762 651.2459,-28.6321"/>
<polygon fill="#191970" stroke="#191970" points="587.5228,-120.3005 591.0953,-130.2748 594.5226,-120.2496 587.5228,-120.3005"/>
</g>
<!-- Node12&#45;&gt;Node6 -->
<g id="edge16" class="edge">
<title>Node12&#45;&gt;Node6</title>
<path fill="none" stroke="#191970" d="M562.0571,-124.9092C543.492,-112.8419 520.565,-97.9394 506.1572,-88.5743"/>
<polygon fill="#191970" stroke="#191970" points="560.2063,-127.8806 570.4983,-130.396 564.0213,-122.0115 560.2063,-127.8806"/>
</g>
<!-- Node13&#45;&gt;Node5 -->
<g id="edge19" class="edge">
<title>Node13&#45;&gt;Node5</title>
<path fill="none" stroke="#191970" d="M689.1968,-60.2652C689.1968,-50.2384 689.1968,-38.1782 689.1968,-28.9559"/>
<polygon fill="#191970" stroke="#191970" points="685.6969,-60.462 689.1968,-70.462 692.6969,-60.4621 685.6969,-60.462"/>
</g>
<!-- Node15&#45;&gt;Node14 -->
<g id="edge24" class="edge">
<title>Node15&#45;&gt;Node14</title>
<path fill="none" stroke="#191970" d="M882.8776,-196.0881C909.9886,-183.4103 949.9353,-164.7302 973.5855,-153.6708"/>
<polygon fill="#191970" stroke="#191970" points="881.1,-193.0555 873.5241,-200.462 884.0653,-199.3965 881.1,-193.0555"/>
</g>
<!-- Node16 -->
<g id="node16" class="node">
<title>Node16</title>
<g id="a_node16"><a xlink:href="_renderer_8h.html" target="_top" xlink:title=" ">
<polygon fill="none" stroke="#000000" points="947.3252,-70.5 947.3252,-88.5 1085.0684,-88.5 1085.0684,-70.5 947.3252,-70.5"/>
<text text-anchor="middle" x="1016.1968" y="-76.5" font-family="Helvetica,sans-Serif" font-size="10.00" fill="#000000">include/filament/Renderer.h</text>
</a>
</g>
</g>
<!-- Node15&#45;&gt;Node16 -->
<g id="edge22" class="edge">
<title>Node15&#45;&gt;Node16</title>
<path fill="none" stroke="#191970" d="M866.8806,-192.1739C880.0895,-174.9487 902.0536,-148.4949 925.1968,-130 947.2158,-112.4034 976.1909,-97.5001 995.4679,-88.5419"/>
<polygon fill="#191970" stroke="#191970" points="864.0215,-190.1525 860.8114,-200.2494 869.6174,-194.3582 864.0215,-190.1525"/>
</g>
<!-- Node16&#45;&gt;Node5 -->
<g id="edge23" class="edge">
<title>Node16&#45;&gt;Node5</title>
<path fill="none" stroke="#191970" d="M960.7282,-68.4741C905.2267,-57.4417 819.6619,-40.4334 759.4469,-28.4641"/>
<polygon fill="#191970" stroke="#191970" points="960.2383,-71.9452 970.7288,-70.462 961.6031,-65.0795 960.2383,-71.9452"/>
</g>
<!-- Node17&#45;&gt;Node18 -->
<g id="edge26" class="edge">
<title>Node17&#45;&gt;Node18</title>
<path fill="none" stroke="#191970" d="M1670.431,-190.021C1627.3206,-163.5853 1551.3127,-116.9767 1513.2596,-93.6423"/>
<polygon fill="#191970" stroke="#191970" points="1668.751,-193.0964 1679.1055,-195.3402 1672.4103,-187.129 1668.751,-193.0964"/>
</g>
<!-- Node17&#45;&gt;Node20 -->
<g id="edge29" class="edge">
<title>Node17&#45;&gt;Node20</title>
<path fill="none" stroke="#191970" d="M1627.6278,-193.3971C1576.537,-182.3642 1509.6276,-167.9153 1461.8165,-157.5906"/>
<polygon fill="#191970" stroke="#191970" points="1627.1112,-196.8661 1637.6247,-195.5559 1628.5888,-190.0238 1627.1112,-196.8661"/>
</g>
<!-- Node19 -->
<g id="node19" class="node">
<title>Node19</title>
<g id="a_node19"><a xlink:href="_driver_api_8h_source.html" target="_top" xlink:title=" ">
<polygon fill="none" stroke="#000000" points="1429.6626,-.5 1429.6626,-28.5 1550.731,-28.5 1550.731,-.5 1429.6626,-.5"/>
<text text-anchor="start" x="1437.6626" y="-16.5" font-family="Helvetica,sans-Serif" font-size="10.00" fill="#000000">backend/include/private</text>
<text text-anchor="middle" x="1490.1968" y="-6.5" font-family="Helvetica,sans-Serif" font-size="10.00" fill="#000000">/backend/DriverApi.h</text>
</a>
</g>
</g>
<!-- Node18&#45;&gt;Node19 -->
<g id="edge27" class="edge">
<title>Node18&#45;&gt;Node19</title>
<path fill="none" stroke="#191970" d="M1483.6514,-55.4029C1483.2023,-46.3703 1483.4924,-36.4078 1484.522,-28.5765"/>
<polygon fill="#191970" stroke="#191970" points="1480.1671,-55.7359 1484.5184,-65.396 1487.1409,-55.1309 1480.1671,-55.7359"/>
</g>
<!-- Node19&#45;&gt;Node18 -->
<g id="edge28" class="edge">
<title>Node19&#45;&gt;Node18</title>
<path fill="none" stroke="#191970" d="M1496.7405,-38.5653C1497.1914,-47.5958 1496.903,-57.5597 1495.8752,-65.396"/>
<polygon fill="#191970" stroke="#191970" points="1500.2252,-38.2355 1495.8716,-28.5765 1493.2515,-38.8422 1500.2252,-38.2355"/>
</g>
<!-- Node20&#45;&gt;Node18 -->
<g id="edge30" class="edge">
<title>Node20&#45;&gt;Node18</title>
<path fill="none" stroke="#191970" d="M1428.6483,-124.4511C1442.3399,-114.4517 1458.5682,-102.5995 1470.9228,-93.5765"/>
<polygon fill="#191970" stroke="#191970" points="1426.5198,-121.6716 1420.5085,-130.396 1430.6483,-127.3245 1426.5198,-121.6716"/>
</g>
<!-- Node21&#45;&gt;Node8 -->
<g id="edge32" class="edge">
<title>Node21&#45;&gt;Node8</title>
<path fill="none" stroke="#191970" d="M1098.5439,-187.4155C1108.1568,-175.8445 1119.406,-162.3037 1126.6581,-153.5743"/>
<polygon fill="#191970" stroke="#191970" points="1095.612,-185.4675 1091.914,-195.396 1100.9964,-189.9406 1095.612,-185.4675"/>
</g>
<!-- Node21&#45;&gt;Node10 -->
<g id="edge33" class="edge">
<title>Node21&#45;&gt;Node10</title>
<path fill="none" stroke="#191970" d="M1012.8514,-193.105C961.2822,-180.5507 892.0881,-163.7058 850.1724,-153.5016"/>
<polygon fill="#191970" stroke="#191970" points="1012.0463,-196.5112 1022.5905,-195.476 1013.7022,-189.7099 1012.0463,-196.5112"/>
</g>
<!-- Node21&#45;&gt;Node18 -->
<g id="edge34" class="edge">
<title>Node21&#45;&gt;Node18</title>
<path fill="none" stroke="#191970" d="M1125.1281,-191.6291C1180.2824,-169.7488 1268.4683,-134.969 1284.1968,-130 1330.0183,-115.5238 1382.6547,-102.6836 1423.2508,-93.5732"/>
<polygon fill="#191970" stroke="#191970" points="1123.5768,-188.4792 1115.5735,-195.4216 1126.1594,-194.9854 1123.5768,-188.4792"/>
</g>
<!-- Node21&#45;&gt;Node20 -->
<g id="edge35" class="edge">
<title>Node21&#45;&gt;Node20</title>
<path fill="none" stroke="#191970" d="M1154.7128,-194.4111C1211.1762,-182.9777 1287.7837,-167.4653 1340.5303,-156.7845"/>
<polygon fill="#191970" stroke="#191970" points="1153.8762,-191.0094 1144.7698,-196.4245 1155.2655,-197.8701 1153.8762,-191.0094"/>
</g>
<!-- Node22&#45;&gt;Node3 -->
<g id="edge37" class="edge">
<title>Node22&#45;&gt;Node3</title>
<path fill="none" stroke="#191970" d="M327.9608,-191.5291C297.6168,-179.2019 258.6291,-163.3631 234.5335,-153.5743"/>
<polygon fill="#191970" stroke="#191970" points="326.8971,-194.8748 337.4792,-195.396 329.5318,-188.3895 326.8971,-194.8748"/>
</g>
<!-- Node23 -->
<g id="node23" class="node">
<title>Node23</title>
<g id="a_node23"><a xlink:href="_open_g_l_platform_8h_source.html" target="_top" xlink:title=" ">
<polygon fill="none" stroke="#000000" points="293.8276,-130.5 293.8276,-158.5 436.5659,-158.5 436.5659,-130.5 293.8276,-130.5"/>
<text text-anchor="start" x="301.8276" y="-146.5" font-family="Helvetica,sans-Serif" font-size="10.00" fill="#000000">backend/include/private</text>
<text text-anchor="middle" x="365.1968" y="-136.5" font-family="Helvetica,sans-Serif" font-size="10.00" fill="#000000">/backend/OpenGLPlatform.h</text>
</a>
</g>
</g>
<!-- Node22&#45;&gt;Node23 -->
<g id="edge38" class="edge">
<title>Node22&#45;&gt;Node23</title>
<path fill="none" stroke="#191970" d="M369.6017,-185.4029C368.629,-176.3703 367.5561,-166.4078 366.7127,-158.5765"/>
<polygon fill="#191970" stroke="#191970" points="366.1272,-185.8282 370.6779,-195.396 373.0869,-185.0787 366.1272,-185.8282"/>
</g>
<!-- Node24&#45;&gt;Node18 -->
<g id="edge40" class="edge">
<title>Node24&#45;&gt;Node18</title>
<path fill="none" stroke="#191970" d="M1249.9021,-188.4082C1269.9753,-170.7178 1300.7245,-145.8681 1331.1968,-130 1362.0232,-113.9475 1398.8864,-101.848 1429.3535,-93.5228"/>
<polygon fill="#191970" stroke="#191970" points="1247.355,-185.991 1242.2418,-195.2703 1252.0256,-191.2049 1247.355,-185.991"/>
</g>
<!-- Node24&#45;&gt;Node20 -->
<g id="edge41" class="edge">
<title>Node24&#45;&gt;Node20</title>
<path fill="none" stroke="#191970" d="M1274.5287,-191.8185C1302.4968,-181.3707 1337.4242,-168.3231 1363.5151,-158.5765"/>
<polygon fill="#191970" stroke="#191970" points="1273.0951,-188.6178 1264.9522,-195.396 1275.5447,-195.1752 1273.0951,-188.6178"/>
</g>
<!-- Node26&#45;&gt;Node18 -->
<g id="edge46" class="edge">
<title>Node26&#45;&gt;Node18</title>
<path fill="none" stroke="#191970" d="M1441.1146,-189.5806C1452.1676,-181.3837 1463.6031,-170.9828 1471.1968,-159 1484.0341,-138.7427 1488.2025,-110.5847 1489.553,-93.7858"/>
<polygon fill="#191970" stroke="#191970" points="1438.983,-186.8005 1432.8068,-195.409 1443.0033,-192.531 1438.983,-186.8005"/>
</g>
<!-- Node26&#45;&gt;Node20 -->
<g id="edge47" class="edge">
<title>Node26&#45;&gt;Node20</title>
<path fill="none" stroke="#191970" d="M1405.6017,-185.4029C1404.629,-176.3703 1403.5561,-166.4078 1402.7127,-158.5765"/>
<polygon fill="#191970" stroke="#191970" points="1402.1272,-185.8282 1406.6779,-195.396 1409.0869,-185.0787 1402.1272,-185.8282"/>
</g>
<!-- Node27&#45;&gt;Node18 -->
<g id="edge49" class="edge">
<title>Node27&#45;&gt;Node18</title>
<path fill="none" stroke="#191970" d="M1541.928,-186.2469C1528.8906,-159.3443 1507.8381,-115.9028 1497.0503,-93.6423"/>
<polygon fill="#191970" stroke="#191970" points="1538.824,-187.8677 1546.3347,-195.3402 1545.1233,-184.8149 1538.824,-187.8677"/>
</g>
<!-- Node27&#45;&gt;Node20 -->
<g id="edge50" class="edge">
<title>Node27&#45;&gt;Node20</title>
<path fill="none" stroke="#191970" d="M1510.886,-191.4066C1486.6193,-181.0294 1456.6076,-168.1954 1434.1141,-158.5765"/>
<polygon fill="#191970" stroke="#191970" points="1509.6443,-194.6821 1520.215,-195.396 1512.3966,-188.2459 1509.6443,-194.6821"/>
</g>
</g>
</svg>
