<?xml version="1.0" encoding="UTF-8" standalone="no"?>
<!DOCTYPE svg PUBLIC "-//W3C//DTD SVG 1.1//EN"
 "http://www.w3.org/Graphics/SVG/1.1/DTD/svg11.dtd">
<!-- Generated by graphviz version 2.40.1 (20161225.0304)
 -->
<!-- Title: include/filament/IndexBuffer.h Pages: 1 -->
<svg width="543pt" height="137pt"
 viewBox="0.00 0.00 542.77 137.00" xmlns="http://www.w3.org/2000/svg" xmlns:xlink="http://www.w3.org/1999/xlink">
<g id="graph0" class="graph" transform="scale(1 1) rotate(0) translate(4 133)">
<title>include/filament/IndexBuffer.h</title>
<!-- Node1 -->
<g id="node1" class="node">
<title>Node1</title>
<g id="a_node1"><a xlink:title=" ">
<polygon fill="#bfbfbf" stroke="#000000" points="83.8705,-110.5 83.8705,-128.5 230.891,-128.5 230.891,-110.5 83.8705,-110.5"/>
<text text-anchor="middle" x="157.3808" y="-116.5" font-family="Helvetica,sans-Serif" font-size="10.00" fill="#000000">include/filament/IndexBuffer.h</text>
</a>
</g>
</g>
<!-- Node2 -->
<g id="node2" class="node">
<title>Node2</title>
<g id="a_node2"><a xlink:href="_filament_a_p_i_8h_source.html" target="_top" xlink:title=" ">
<polygon fill="none" stroke="#000000" points="13.0829,-55.5 13.0829,-73.5 129.6786,-73.5 129.6786,-55.5 13.0829,-55.5"/>
<text text-anchor="middle" x="71.3808" y="-61.5" font-family="Helvetica,sans-Serif" font-size="10.00" fill="#000000">filament/FilamentAPI.h</text>
</a>
</g>
</g>
<!-- Node1&#45;&gt;Node2 -->
<g id="edge1" class="edge">
<title>Node1&#45;&gt;Node2</title>
<path fill="none" stroke="#191970" d="M143.1796,-110.4179C129.8594,-101.8992 109.7157,-89.0166 94.1516,-79.0627"/>
<polygon fill="#191970" stroke="#191970" points="95.9133,-76.0348 85.603,-73.5956 92.1418,-81.932 95.9133,-76.0348"/>
</g>
<!-- Node3 -->
<g id="node3" class="node">
<title>Node3</title>
<g id="a_node3"><a xlink:title=" ">
<polygon fill="none" stroke="#bfbfbf" points="30.3095,-.5 30.3095,-18.5 112.4521,-18.5 112.4521,-.5 30.3095,-.5"/>
<text text-anchor="middle" x="71.3808" y="-6.5" font-family="Helvetica,sans-Serif" font-size="10.00" fill="#000000">utils/compiler.h</text>
</a>
</g>
</g>
<!-- Node1&#45;&gt;Node3 -->
<g id="edge14" class="edge">
<title>Node1&#45;&gt;Node3</title>
<path fill="none" stroke="#191970" d="M103.6106,-110.499C64.5394,-102.7346 16.4761,-90.2158 4.3808,-74 -10.2777,-54.3479 16.0245,-35.3167 39.8536,-23.0836"/>
<polygon fill="#191970" stroke="#191970" points="41.6457,-26.1042 49.1107,-18.5859 38.5866,-19.808 41.6457,-26.1042"/>
</g>
<!-- Node4 -->
<g id="node4" class="node">
<title>Node4</title>
<g id="a_node4"><a xlink:title=" ">
<polygon fill="none" stroke="#bfbfbf" points="145.5902,-.5 145.5902,-18.5 197.1713,-18.5 197.1713,-.5 145.5902,-.5"/>
<text text-anchor="middle" x="171.3808" y="-6.5" font-family="Helvetica,sans-Serif" font-size="10.00" fill="#000000">stddef.h</text>
</a>
</g>
</g>
<!-- Node1&#45;&gt;Node4 -->
<g id="edge15" class="edge">
<title>Node1&#45;&gt;Node4</title>
<path fill="none" stroke="#191970" d="M158.5264,-110.4982C160.7928,-92.6913 165.8924,-52.6225 168.9433,-28.6515"/>
<polygon fill="#191970" stroke="#191970" points="172.4286,-28.988 170.2193,-18.6261 165.4846,-28.1042 172.4286,-28.988"/>
</g>
<!-- Node5 -->
<g id="node5" class="node">
<title>Node5</title>
<g id="a_node5"><a xlink:href="_driver_enums_8h.html" target="_top" xlink:title=" ">
<polygon fill="none" stroke="#000000" points="340.0238,-55.5 340.0238,-73.5 462.7377,-73.5 462.7377,-55.5 340.0238,-55.5"/>
<text text-anchor="middle" x="401.3808" y="-61.5" font-family="Helvetica,sans-Serif" font-size="10.00" fill="#000000">backend/DriverEnums.h</text>
</a>
</g>
</g>
<!-- Node1&#45;&gt;Node5 -->
<g id="edge4" class="edge">
<title>Node1&#45;&gt;Node5</title>
<path fill="none" stroke="#191970" d="M197.3992,-110.4795C239.5064,-100.9881 305.8637,-86.0305 351.3884,-75.7688"/>
<polygon fill="#191970" stroke="#191970" points="352.3549,-79.1388 361.3405,-73.5255 350.8156,-72.3101 352.3549,-79.1388"/>
</g>
<!-- Node10 -->
<g id="node10" class="node">
<title>Node10</title>
<g id="a_node10"><a xlink:href="_buffer_descriptor_8h.html" target="_top" xlink:title=" ">
<polygon fill="none" stroke="#000000" points="185.1562,-55.5 185.1562,-73.5 321.6054,-73.5 321.6054,-55.5 185.1562,-55.5"/>
<text text-anchor="middle" x="253.3808" y="-61.5" font-family="Helvetica,sans-Serif" font-size="10.00" fill="#000000">backend/BufferDescriptor.h</text>
</a>
</g>
</g>
<!-- Node1&#45;&gt;Node10 -->
<g id="edge10" class="edge">
<title>Node1&#45;&gt;Node10</title>
<path fill="none" stroke="#191970" d="M173.2332,-110.4179C188.2412,-101.8195 211.0092,-88.7754 228.448,-78.7844"/>
<polygon fill="#191970" stroke="#191970" points="230.5678,-81.6037 237.5048,-73.5956 227.088,-75.5299 230.5678,-81.6037"/>
</g>
<!-- Node2&#45;&gt;Node3 -->
<g id="edge2" class="edge">
<title>Node2&#45;&gt;Node3</title>
<path fill="none" stroke="#191970" d="M71.3808,-55.4179C71.3808,-48.2164 71.3808,-37.8962 71.3808,-28.8632"/>
<polygon fill="#191970" stroke="#191970" points="74.8809,-28.7794 71.3808,-18.7795 67.8809,-28.7795 74.8809,-28.7794"/>
</g>
<!-- Node2&#45;&gt;Node4 -->
<g id="edge3" class="edge">
<title>Node2&#45;&gt;Node4</title>
<path fill="none" stroke="#191970" d="M87.8937,-55.4179C103.6718,-46.7399 127.6836,-33.5334 145.9123,-23.5077"/>
<polygon fill="#191970" stroke="#191970" points="147.7678,-26.4816 154.8433,-18.5956 144.3944,-20.3481 147.7678,-26.4816"/>
</g>
<!-- Node5&#45;&gt;Node4 -->
<g id="edge8" class="edge">
<title>Node5&#45;&gt;Node4</title>
<path fill="none" stroke="#191970" d="M363.6585,-55.4795C320.3321,-45.1188 249.7685,-28.2449 207.2412,-18.0753"/>
<polygon fill="#191970" stroke="#191970" points="207.8644,-14.6257 197.3246,-15.704 206.2363,-21.4338 207.8644,-14.6257"/>
</g>
<!-- Node6 -->
<g id="node6" class="node">
<title>Node6</title>
<g id="a_node6"><a xlink:title=" ">
<polygon fill="none" stroke="#bfbfbf" points="295.1938,-.5 295.1938,-18.5 389.5678,-18.5 389.5678,-.5 295.1938,-.5"/>
<text text-anchor="middle" x="342.3808" y="-6.5" font-family="Helvetica,sans-Serif" font-size="10.00" fill="#000000">utils/unwindows.h</text>
</a>
</g>
</g>
<!-- Node5&#45;&gt;Node6 -->
<g id="edge5" class="edge">
<title>Node5&#45;&gt;Node6</title>
<path fill="none" stroke="#191970" d="M391.6381,-55.4179C382.979,-47.3458 370.1168,-35.3556 359.7071,-25.6517"/>
<polygon fill="#191970" stroke="#191970" points="362.0364,-23.0381 352.3351,-18.7795 357.2632,-28.1584 362.0364,-23.0381"/>
</g>
<!-- Node7 -->
<g id="node7" class="node">
<title>Node7</title>
<g id="a_node7"><a xlink:title=" ">
<polygon fill="none" stroke="#bfbfbf" points="407.1444,-.5 407.1444,-18.5 477.6171,-18.5 477.6171,-.5 407.1444,-.5"/>
<text text-anchor="middle" x="442.3808" y="-6.5" font-family="Helvetica,sans-Serif" font-size="10.00" fill="#000000">math/vec4.h</text>
</a>
</g>
</g>
<!-- Node5&#45;&gt;Node7 -->
<g id="edge6" class="edge">
<title>Node5&#45;&gt;Node7</title>
<path fill="none" stroke="#191970" d="M408.1511,-55.4179C413.9324,-47.6624 422.41,-36.29 429.4818,-26.8035"/>
<polygon fill="#191970" stroke="#191970" points="432.2928,-28.8888 435.4634,-18.7795 426.6805,-24.7051 432.2928,-28.8888"/>
</g>
<!-- Node8 -->
<g id="node8" class="node">
<title>Node8</title>
<g id="a_node8"><a xlink:title=" ">
<polygon fill="none" stroke="#bfbfbf" points="495.9892,-.5 495.9892,-18.5 534.7724,-18.5 534.7724,-.5 495.9892,-.5"/>
<text text-anchor="middle" x="515.3808" y="-6.5" font-family="Helvetica,sans-Serif" font-size="10.00" fill="#000000">array</text>
</a>
</g>
</g>
<!-- Node5&#45;&gt;Node8 -->
<g id="edge7" class="edge">
<title>Node5&#45;&gt;Node8</title>
<path fill="none" stroke="#191970" d="M420.2055,-55.4179C438.5226,-46.5807 466.5737,-33.0473 487.4838,-22.9591"/>
<polygon fill="#191970" stroke="#191970" points="489.0423,-26.0933 496.528,-18.5956 486.0006,-19.7887 489.0423,-26.0933"/>
</g>
<!-- Node9 -->
<g id="node9" class="node">
<title>Node9</title>
<g id="a_node9"><a xlink:title=" ">
<polygon fill="none" stroke="#bfbfbf" points="229.2602,-.5 229.2602,-18.5 277.5014,-18.5 277.5014,-.5 229.2602,-.5"/>
<text text-anchor="middle" x="253.3808" y="-6.5" font-family="Helvetica,sans-Serif" font-size="10.00" fill="#000000">stdint.h</text>
</a>
</g>
</g>
<!-- Node5&#45;&gt;Node9 -->
<g id="edge9" class="edge">
<title>Node5&#45;&gt;Node9</title>
<path fill="none" stroke="#191970" d="M376.9416,-55.4179C352.5188,-46.3419 314.7666,-32.3123 287.4176,-22.1488"/>
<polygon fill="#191970" stroke="#191970" points="288.4492,-18.7984 277.8563,-18.5956 286.0107,-25.3599 288.4492,-18.7984"/>
</g>
<!-- Node10&#45;&gt;Node3 -->
<g id="edge11" class="edge">
<title>Node10&#45;&gt;Node3</title>
<path fill="none" stroke="#191970" d="M223.3272,-55.4179C192.6754,-46.155 144.95,-31.7325 111.1759,-21.526"/>
<polygon fill="#191970" stroke="#191970" points="111.7615,-18.0467 101.1765,-18.5042 109.7365,-24.7474 111.7615,-18.0467"/>
</g>
<!-- Node10&#45;&gt;Node4 -->
<g id="edge12" class="edge">
<title>Node10&#45;&gt;Node4</title>
<path fill="none" stroke="#191970" d="M239.8401,-55.4179C227.2582,-46.9788 208.2912,-34.257 193.5097,-24.3426"/>
<polygon fill="#191970" stroke="#191970" points="195.1961,-21.2593 184.9415,-18.5956 191.2968,-27.0727 195.1961,-21.2593"/>
</g>
<!-- Node10&#45;&gt;Node9 -->
<g id="edge13" class="edge">
<title>Node10&#45;&gt;Node9</title>
<path fill="none" stroke="#191970" d="M253.3808,-55.4179C253.3808,-48.2164 253.3808,-37.8962 253.3808,-28.8632"/>
<polygon fill="#191970" stroke="#191970" points="256.8809,-28.7794 253.3808,-18.7795 249.8809,-28.7795 256.8809,-28.7794"/>
</g>
</g>
</svg>
