<?xml version="1.0" encoding="UTF-8" standalone="no"?>
<!DOCTYPE svg PUBLIC "-//W3C//DTD SVG 1.1//EN"
 "http://www.w3.org/Graphics/SVG/1.1/DTD/svg11.dtd">
<!-- Generated by graphviz version 2.40.1 (20161225.0304)
 -->
<!-- Title: /Users/lawrie/Project/cppProjects/filament/libs/filabridge/include/filament/MaterialEnums.h Pages: 1 -->
<svg width="213pt" height="112pt"
 viewBox="0.00 0.00 212.52 112.00" xmlns="http://www.w3.org/2000/svg" xmlns:xlink="http://www.w3.org/1999/xlink">
<g id="graph0" class="graph" transform="scale(1 1) rotate(0) translate(4 108)">
<title>/Users/lawrie/Project/cppProjects/filament/libs/filabridge/include/filament/MaterialEnums.h</title>
<!-- Node1 -->
<g id="node1" class="node">
<title>Node1</title>
<g id="a_node1"><a xlink:title=" ">
<polygon fill="#bfbfbf" stroke="#000000" points="46.6011,-55.5 46.6011,-103.5 178.2017,-103.5 178.2017,-55.5 46.6011,-55.5"/>
<text text-anchor="start" x="54.6011" y="-91.5" font-family="Helvetica,sans-Serif" font-size="10.00" fill="#000000">/Users/lawrie/Project</text>
<text text-anchor="start" x="54.6011" y="-81.5" font-family="Helvetica,sans-Serif" font-size="10.00" fill="#000000">/cppProjects/filament</text>
<text text-anchor="start" x="54.6011" y="-71.5" font-family="Helvetica,sans-Serif" font-size="10.00" fill="#000000">/libs/filabridge/include</text>
<text text-anchor="middle" x="112.4014" y="-61.5" font-family="Helvetica,sans-Serif" font-size="10.00" fill="#000000">/filament/MaterialEnums.h</text>
</a>
</g>
</g>
<!-- Node2 -->
<g id="node2" class="node">
<title>Node2</title>
<g id="a_node2"><a xlink:title=" ">
<polygon fill="none" stroke="#bfbfbf" points="0,-.5 0,-18.5 68.8027,-18.5 68.8027,-.5 0,-.5"/>
<text text-anchor="middle" x="34.4014" y="-6.5" font-family="Helvetica,sans-Serif" font-size="10.00" fill="#000000">utils/bitset.h</text>
</a>
</g>
</g>
<!-- Node1&#45;&gt;Node2 -->
<g id="edge1" class="edge">
<title>Node1&#45;&gt;Node2</title>
<path fill="none" stroke="#191970" d="M85.5582,-55.41C74.5413,-45.523 62.0863,-34.3455 52.2243,-25.495"/>
<polygon fill="#191970" stroke="#191970" points="54.4187,-22.7615 44.6386,-18.6872 49.7433,-27.9712 54.4187,-22.7615"/>
</g>
<!-- Node3 -->
<g id="node3" class="node">
<title>Node3</title>
<g id="a_node3"><a xlink:title=" ">
<polygon fill="none" stroke="#bfbfbf" points="86.6108,-.5 86.6108,-18.5 138.1919,-18.5 138.1919,-.5 86.6108,-.5"/>
<text text-anchor="middle" x="112.4014" y="-6.5" font-family="Helvetica,sans-Serif" font-size="10.00" fill="#000000">stddef.h</text>
</a>
</g>
</g>
<!-- Node1&#45;&gt;Node3 -->
<g id="edge2" class="edge">
<title>Node1&#45;&gt;Node3</title>
<path fill="none" stroke="#191970" d="M112.4014,-55.41C112.4014,-46.7094 112.4014,-37.0095 112.4014,-28.7754"/>
<polygon fill="#191970" stroke="#191970" points="115.9015,-28.6872 112.4014,-18.6872 108.9015,-28.6873 115.9015,-28.6872"/>
</g>
<!-- Node4 -->
<g id="node4" class="node">
<title>Node4</title>
<g id="a_node4"><a xlink:title=" ">
<polygon fill="none" stroke="#bfbfbf" points="156.2808,-.5 156.2808,-18.5 204.522,-18.5 204.522,-.5 156.2808,-.5"/>
<text text-anchor="middle" x="180.4014" y="-6.5" font-family="Helvetica,sans-Serif" font-size="10.00" fill="#000000">stdint.h</text>
</a>
</g>
</g>
<!-- Node1&#45;&gt;Node4 -->
<g id="edge3" class="edge">
<title>Node1&#45;&gt;Node4</title>
<path fill="none" stroke="#191970" d="M135.8031,-55.41C145.2155,-45.7207 155.8319,-34.7921 164.3449,-26.0288"/>
<polygon fill="#191970" stroke="#191970" points="167.0192,-28.2988 171.4766,-18.6872 161.9982,-23.4213 167.0192,-28.2988"/>
</g>
</g>
</svg>
