<?xml version="1.0" encoding="UTF-8" standalone="no"?>
<!DOCTYPE svg PUBLIC "-//W3C//DTD SVG 1.1//EN"
 "http://www.w3.org/Graphics/SVG/1.1/DTD/svg11.dtd">
<!-- Generated by graphviz version 2.40.1 (20161225.0304)
 -->
<!-- Title: backend/include/backend/Platform.h Pages: 1 -->
<svg width="296pt" height="102pt"
 viewBox="0.00 0.00 296.24 102.00" xmlns="http://www.w3.org/2000/svg" xmlns:xlink="http://www.w3.org/1999/xlink">
<g id="graph0" class="graph" transform="scale(1 1) rotate(0) translate(4 98)">
<title>backend/include/backend/Platform.h</title>
<!-- Node1 -->
<g id="node1" class="node">
<title>Node1</title>
<g id="a_node1"><a xlink:title=" ">
<polygon fill="#bfbfbf" stroke="#000000" points="75.4385,-65.5 75.4385,-93.5 204.2998,-93.5 204.2998,-65.5 75.4385,-65.5"/>
<text text-anchor="start" x="83.4385" y="-81.5" font-family="Helvetica,sans-Serif" font-size="10.00" fill="#000000">backend/include/backend</text>
<text text-anchor="middle" x="139.8691" y="-71.5" font-family="Helvetica,sans-Serif" font-size="10.00" fill="#000000">/Platform.h</text>
</a>
</g>
</g>
<!-- Node2 -->
<g id="node2" class="node">
<title>Node2</title>
<g id="a_node2"><a xlink:href="_engine_8h_source.html" target="_top" xlink:title=" ">
<polygon fill="none" stroke="#000000" points="0,-5.5 0,-23.5 127.7383,-23.5 127.7383,-5.5 0,-5.5"/>
<text text-anchor="middle" x="63.8691" y="-11.5" font-family="Helvetica,sans-Serif" font-size="10.00" fill="#000000">include/filament/Engine.h</text>
</a>
</g>
</g>
<!-- Node1&#45;&gt;Node2 -->
<g id="edge1" class="edge">
<title>Node1&#45;&gt;Node2</title>
<path fill="none" stroke="#191970" d="M115.6126,-58.7543C101.7562,-46.9034 85.0822,-32.6427 74.4791,-23.5743"/>
<polygon fill="#191970" stroke="#191970" points="113.5037,-61.5561 123.3783,-65.396 118.0535,-56.2364 113.5037,-61.5561"/>
</g>
<!-- Node3 -->
<g id="node3" class="node">
<title>Node3</title>
<g id="a_node3"><a xlink:href="_open_g_l_platform_8h_source.html" target="_top" xlink:title=" ">
<polygon fill="none" stroke="#000000" points="145.5,-.5 145.5,-28.5 288.2383,-28.5 288.2383,-.5 145.5,-.5"/>
<text text-anchor="start" x="153.5" y="-16.5" font-family="Helvetica,sans-Serif" font-size="10.00" fill="#000000">backend/include/private</text>
<text text-anchor="middle" x="216.8691" y="-6.5" font-family="Helvetica,sans-Serif" font-size="10.00" fill="#000000">/backend/OpenGLPlatform.h</text>
</a>
</g>
</g>
<!-- Node1&#45;&gt;Node3 -->
<g id="edge2" class="edge">
<title>Node1&#45;&gt;Node3</title>
<path fill="none" stroke="#191970" d="M164.2921,-58.8832C175.9935,-49.0054 189.7067,-37.4293 200.1939,-28.5765"/>
<polygon fill="#191970" stroke="#191970" points="161.9607,-56.2709 156.577,-65.396 166.4761,-61.6199 161.9607,-56.2709"/>
</g>
</g>
</svg>
