<?xml version="1.0" encoding="UTF-8" standalone="no"?>
<!DOCTYPE svg PUBLIC "-//W3C//DTD SVG 1.1//EN"
 "http://www.w3.org/Graphics/SVG/1.1/DTD/svg11.dtd">
<!-- Generated by graphviz version 2.40.1 (20161225.0304)
 -->
<!-- Title: include/filament/Scene.h Pages: 1 -->
<svg width="280pt" height="137pt"
 viewBox="0.00 0.00 279.66 137.00" xmlns="http://www.w3.org/2000/svg" xmlns:xlink="http://www.w3.org/1999/xlink">
<g id="graph0" class="graph" transform="scale(1 1) rotate(0) translate(4 133)">
<title>include/filament/Scene.h</title>
<!-- Node1 -->
<g id="node1" class="node">
<title>Node1</title>
<g id="a_node1"><a xlink:title=" ">
<polygon fill="#bfbfbf" stroke="#000000" points="63.5938,-110.5 63.5938,-128.5 188.5488,-128.5 188.5488,-110.5 63.5938,-110.5"/>
<text text-anchor="middle" x="126.0713" y="-116.5" font-family="Helvetica,sans-Serif" font-size="10.00" fill="#000000">include/filament/Scene.h</text>
</a>
</g>
</g>
<!-- Node2 -->
<g id="node2" class="node">
<title>Node2</title>
<g id="a_node2"><a xlink:href="_filament_a_p_i_8h_source.html" target="_top" xlink:title=" ">
<polygon fill="none" stroke="#000000" points="67.7734,-55.5 67.7734,-73.5 184.3691,-73.5 184.3691,-55.5 67.7734,-55.5"/>
<text text-anchor="middle" x="126.0713" y="-61.5" font-family="Helvetica,sans-Serif" font-size="10.00" fill="#000000">filament/FilamentAPI.h</text>
</a>
</g>
</g>
<!-- Node1&#45;&gt;Node2 -->
<g id="edge1" class="edge">
<title>Node1&#45;&gt;Node2</title>
<path fill="none" stroke="#191970" d="M126.0713,-110.4179C126.0713,-103.2164 126.0713,-92.8962 126.0713,-83.8632"/>
<polygon fill="#191970" stroke="#191970" points="129.5714,-83.7794 126.0713,-73.7795 122.5714,-83.7795 129.5714,-83.7794"/>
</g>
<!-- Node3 -->
<g id="node3" class="node">
<title>Node3</title>
<g id="a_node3"><a xlink:title=" ">
<polygon fill="none" stroke="#bfbfbf" points="0,-.5 0,-18.5 82.1426,-18.5 82.1426,-.5 0,-.5"/>
<text text-anchor="middle" x="41.0713" y="-6.5" font-family="Helvetica,sans-Serif" font-size="10.00" fill="#000000">utils/compiler.h</text>
</a>
</g>
</g>
<!-- Node1&#45;&gt;Node3 -->
<g id="edge4" class="edge">
<title>Node1&#45;&gt;Node3</title>
<path fill="none" stroke="#191970" d="M105.6053,-110.4343C90.6103,-102.7826 70.8882,-90.4412 59.0713,-74 49.5297,-60.7245 45.0393,-42.5711 42.9299,-28.9047"/>
<polygon fill="#191970" stroke="#191970" points="46.3666,-28.1776 41.6594,-18.6858 39.42,-29.0413 46.3666,-28.1776"/>
</g>
<!-- Node5 -->
<g id="node5" class="node">
<title>Node5</title>
<g id="a_node5"><a xlink:title=" ">
<polygon fill="none" stroke="#bfbfbf" points="202.4844,-55.5 202.4844,-73.5 271.6582,-73.5 271.6582,-55.5 202.4844,-55.5"/>
<text text-anchor="middle" x="237.0713" y="-61.5" font-family="Helvetica,sans-Serif" font-size="10.00" fill="#000000">utils/Entity.h</text>
</a>
</g>
</g>
<!-- Node1&#45;&gt;Node5 -->
<g id="edge5" class="edge">
<title>Node1&#45;&gt;Node5</title>
<path fill="none" stroke="#191970" d="M144.4007,-110.4179C162.1554,-101.6205 189.3027,-88.1691 209.6329,-78.0956"/>
<polygon fill="#191970" stroke="#191970" points="211.3083,-81.1716 218.7147,-73.5956 208.2003,-74.8994 211.3083,-81.1716"/>
</g>
<!-- Node2&#45;&gt;Node3 -->
<g id="edge2" class="edge">
<title>Node2&#45;&gt;Node3</title>
<path fill="none" stroke="#191970" d="M112.0353,-55.4179C98.87,-46.8992 78.9605,-34.0166 63.5773,-24.0627"/>
<polygon fill="#191970" stroke="#191970" points="65.4253,-21.0897 55.1282,-18.5956 61.6225,-26.9667 65.4253,-21.0897"/>
</g>
<!-- Node4 -->
<g id="node4" class="node">
<title>Node4</title>
<g id="a_node4"><a xlink:title=" ">
<polygon fill="none" stroke="#bfbfbf" points="100.2808,-.5 100.2808,-18.5 151.8618,-18.5 151.8618,-.5 100.2808,-.5"/>
<text text-anchor="middle" x="126.0713" y="-6.5" font-family="Helvetica,sans-Serif" font-size="10.00" fill="#000000">stddef.h</text>
</a>
</g>
</g>
<!-- Node2&#45;&gt;Node4 -->
<g id="edge3" class="edge">
<title>Node2&#45;&gt;Node4</title>
<path fill="none" stroke="#191970" d="M126.0713,-55.4179C126.0713,-48.2164 126.0713,-37.8962 126.0713,-28.8632"/>
<polygon fill="#191970" stroke="#191970" points="129.5714,-28.7794 126.0713,-18.7795 122.5714,-28.7795 129.5714,-28.7794"/>
</g>
</g>
</svg>
