<?xml version="1.0" encoding="UTF-8" standalone="no"?>
<!DOCTYPE svg PUBLIC "-//W3C//DTD SVG 1.1//EN"
 "http://www.w3.org/Graphics/SVG/1.1/DTD/svg11.dtd">
<!-- Generated by graphviz version 2.40.1 (20161225.0304)
 -->
<!-- Title: include/filament/VertexBuffer.h Pages: 1 -->
<svg width="668pt" height="137pt"
 viewBox="0.00 0.00 668.14 137.00" xmlns="http://www.w3.org/2000/svg" xmlns:xlink="http://www.w3.org/1999/xlink">
<g id="graph0" class="graph" transform="scale(1 1) rotate(0) translate(4 133)">
<title>include/filament/VertexBuffer.h</title>
<!-- Node1 -->
<g id="node1" class="node">
<title>Node1</title>
<g id="a_node1"><a xlink:title=" ">
<polygon fill="#bfbfbf" stroke="#000000" points="141.2909,-110.5 141.2909,-128.5 292.203,-128.5 292.203,-110.5 141.2909,-110.5"/>
<text text-anchor="middle" x="216.747" y="-116.5" font-family="Helvetica,sans-Serif" font-size="10.00" fill="#000000">include/filament/VertexBuffer.h</text>
</a>
</g>
</g>
<!-- Node2 -->
<g id="node2" class="node">
<title>Node2</title>
<g id="a_node2"><a xlink:href="_filament_a_p_i_8h_source.html" target="_top" xlink:title=" ">
<polygon fill="none" stroke="#000000" points="13.4491,-55.5 13.4491,-73.5 130.0448,-73.5 130.0448,-55.5 13.4491,-55.5"/>
<text text-anchor="middle" x="71.747" y="-61.5" font-family="Helvetica,sans-Serif" font-size="10.00" fill="#000000">filament/FilamentAPI.h</text>
</a>
</g>
</g>
<!-- Node1&#45;&gt;Node2 -->
<g id="edge1" class="edge">
<title>Node1&#45;&gt;Node2</title>
<path fill="none" stroke="#191970" d="M192.8032,-110.4179C168.8755,-101.3419 131.8885,-87.3123 105.0938,-77.1488"/>
<polygon fill="#191970" stroke="#191970" points="106.3176,-73.8697 95.7263,-73.5956 103.835,-80.4147 106.3176,-73.8697"/>
</g>
<!-- Node3 -->
<g id="node3" class="node">
<title>Node3</title>
<g id="a_node3"><a xlink:title=" ">
<polygon fill="none" stroke="#bfbfbf" points="30.6757,-.5 30.6757,-18.5 112.8182,-18.5 112.8182,-.5 30.6757,-.5"/>
<text text-anchor="middle" x="71.747" y="-6.5" font-family="Helvetica,sans-Serif" font-size="10.00" fill="#000000">utils/compiler.h</text>
</a>
</g>
</g>
<!-- Node1&#45;&gt;Node3 -->
<g id="edge18" class="edge">
<title>Node1&#45;&gt;Node3</title>
<path fill="none" stroke="#191970" d="M141.1369,-113.1954C87.4094,-106.9639 21.8716,-95.19 4.747,-74 -10.8213,-54.7359 16.3263,-35.3987 40.5868,-22.9932"/>
<polygon fill="#191970" stroke="#191970" points="42.182,-26.1095 49.6484,-18.5927 39.1241,-19.8127 42.182,-26.1095"/>
</g>
<!-- Node5 -->
<g id="node5" class="node">
<title>Node5</title>
<g id="a_node5"><a xlink:href="_material_enums_8h.html" target="_top" xlink:title=" ">
<polygon fill="none" stroke="#000000" points="303.3358,-55.5 303.3358,-73.5 432.1581,-73.5 432.1581,-55.5 303.3358,-55.5"/>
<text text-anchor="middle" x="367.747" y="-61.5" font-family="Helvetica,sans-Serif" font-size="10.00" fill="#000000">filament/MaterialEnums.h</text>
</a>
</g>
</g>
<!-- Node1&#45;&gt;Node5 -->
<g id="edge4" class="edge">
<title>Node1&#45;&gt;Node5</title>
<path fill="none" stroke="#191970" d="M241.6815,-110.4179C266.6739,-101.3147 305.3476,-87.2283 333.2706,-77.0576"/>
<polygon fill="#191970" stroke="#191970" points="334.8281,-80.2153 343.0263,-73.5042 332.4323,-73.6381 334.8281,-80.2153"/>
</g>
<!-- Node8 -->
<g id="node8" class="node">
<title>Node8</title>
<g id="a_node8"><a xlink:href="_buffer_descriptor_8h.html" target="_top" xlink:title=" ">
<polygon fill="none" stroke="#000000" points="148.5223,-55.5 148.5223,-73.5 284.9716,-73.5 284.9716,-55.5 148.5223,-55.5"/>
<text text-anchor="middle" x="216.747" y="-61.5" font-family="Helvetica,sans-Serif" font-size="10.00" fill="#000000">backend/BufferDescriptor.h</text>
</a>
</g>
</g>
<!-- Node1&#45;&gt;Node8 -->
<g id="edge8" class="edge">
<title>Node1&#45;&gt;Node8</title>
<path fill="none" stroke="#191970" d="M216.747,-110.4179C216.747,-103.2164 216.747,-92.8962 216.747,-83.8632"/>
<polygon fill="#191970" stroke="#191970" points="220.2471,-83.7794 216.747,-73.7795 213.2471,-83.7795 220.2471,-83.7794"/>
</g>
<!-- Node9 -->
<g id="node9" class="node">
<title>Node9</title>
<g id="a_node9"><a xlink:href="_driver_enums_8h.html" target="_top" xlink:title=" ">
<polygon fill="none" stroke="#000000" points="450.39,-55.5 450.39,-73.5 573.1039,-73.5 573.1039,-55.5 450.39,-55.5"/>
<text text-anchor="middle" x="511.747" y="-61.5" font-family="Helvetica,sans-Serif" font-size="10.00" fill="#000000">backend/DriverEnums.h</text>
</a>
</g>
</g>
<!-- Node1&#45;&gt;Node9 -->
<g id="edge12" class="edge">
<title>Node1&#45;&gt;Node9</title>
<path fill="none" stroke="#191970" d="M265.1299,-110.4795C316.6799,-100.8684 398.2925,-85.6525 453.3746,-75.383"/>
<polygon fill="#191970" stroke="#191970" points="454.1485,-78.7991 463.3376,-73.5255 452.8655,-71.9177 454.1485,-78.7991"/>
</g>
<!-- Node2&#45;&gt;Node3 -->
<g id="edge2" class="edge">
<title>Node2&#45;&gt;Node3</title>
<path fill="none" stroke="#191970" d="M71.747,-55.4179C71.747,-48.2164 71.747,-37.8962 71.747,-28.8632"/>
<polygon fill="#191970" stroke="#191970" points="75.2471,-28.7794 71.747,-18.7795 68.2471,-28.7795 75.2471,-28.7794"/>
</g>
<!-- Node4 -->
<g id="node4" class="node">
<title>Node4</title>
<g id="a_node4"><a xlink:title=" ">
<polygon fill="none" stroke="#bfbfbf" points="193.9564,-.5 193.9564,-18.5 245.5375,-18.5 245.5375,-.5 193.9564,-.5"/>
<text text-anchor="middle" x="219.747" y="-6.5" font-family="Helvetica,sans-Serif" font-size="10.00" fill="#000000">stddef.h</text>
</a>
</g>
</g>
<!-- Node2&#45;&gt;Node4 -->
<g id="edge3" class="edge">
<title>Node2&#45;&gt;Node4</title>
<path fill="none" stroke="#191970" d="M96.1861,-55.4179C120.6089,-46.3419 158.3611,-32.3123 185.7101,-22.1488"/>
<polygon fill="#191970" stroke="#191970" points="187.117,-25.3599 195.2715,-18.5956 184.6786,-18.7984 187.117,-25.3599"/>
</g>
<!-- Node5&#45;&gt;Node4 -->
<g id="edge6" class="edge">
<title>Node5&#45;&gt;Node4</title>
<path fill="none" stroke="#191970" d="M343.3078,-55.4179C318.885,-46.3419 281.1328,-32.3123 253.7838,-22.1488"/>
<polygon fill="#191970" stroke="#191970" points="254.8154,-18.7984 244.2225,-18.5956 252.3769,-25.3599 254.8154,-18.7984"/>
</g>
<!-- Node6 -->
<g id="node6" class="node">
<title>Node6</title>
<g id="a_node6"><a xlink:title=" ">
<polygon fill="none" stroke="#bfbfbf" points="333.3456,-.5 333.3456,-18.5 402.1483,-18.5 402.1483,-.5 333.3456,-.5"/>
<text text-anchor="middle" x="367.747" y="-6.5" font-family="Helvetica,sans-Serif" font-size="10.00" fill="#000000">utils/bitset.h</text>
</a>
</g>
</g>
<!-- Node5&#45;&gt;Node6 -->
<g id="edge5" class="edge">
<title>Node5&#45;&gt;Node6</title>
<path fill="none" stroke="#191970" d="M367.747,-55.4179C367.747,-48.2164 367.747,-37.8962 367.747,-28.8632"/>
<polygon fill="#191970" stroke="#191970" points="371.2471,-28.7794 367.747,-18.7795 364.2471,-28.7795 371.2471,-28.7794"/>
</g>
<!-- Node7 -->
<g id="node7" class="node">
<title>Node7</title>
<g id="a_node7"><a xlink:title=" ">
<polygon fill="none" stroke="#bfbfbf" points="266.6264,-.5 266.6264,-18.5 314.8676,-18.5 314.8676,-.5 266.6264,-.5"/>
<text text-anchor="middle" x="290.747" y="-6.5" font-family="Helvetica,sans-Serif" font-size="10.00" fill="#000000">stdint.h</text>
</a>
</g>
</g>
<!-- Node5&#45;&gt;Node7 -->
<g id="edge7" class="edge">
<title>Node5&#45;&gt;Node7</title>
<path fill="none" stroke="#191970" d="M355.032,-55.4179C343.3287,-47.0584 325.7422,-34.4966 311.9204,-24.6239"/>
<polygon fill="#191970" stroke="#191970" points="313.6525,-21.56 303.4808,-18.5956 309.5838,-27.2561 313.6525,-21.56"/>
</g>
<!-- Node8&#45;&gt;Node3 -->
<g id="edge9" class="edge">
<title>Node8&#45;&gt;Node3</title>
<path fill="none" stroke="#191970" d="M192.8032,-55.4179C168.8755,-46.3419 131.8885,-32.3123 105.0938,-22.1488"/>
<polygon fill="#191970" stroke="#191970" points="106.3176,-18.8697 95.7263,-18.5956 103.835,-25.4147 106.3176,-18.8697"/>
</g>
<!-- Node8&#45;&gt;Node4 -->
<g id="edge10" class="edge">
<title>Node8&#45;&gt;Node4</title>
<path fill="none" stroke="#191970" d="M217.2423,-55.4179C217.6352,-48.2164 218.1981,-37.8962 218.6908,-28.8632"/>
<polygon fill="#191970" stroke="#191970" points="222.1909,-28.9553 219.2408,-18.7795 215.2013,-28.574 222.1909,-28.9553"/>
</g>
<!-- Node8&#45;&gt;Node7 -->
<g id="edge11" class="edge">
<title>Node8&#45;&gt;Node7</title>
<path fill="none" stroke="#191970" d="M228.9666,-55.4179C240.2139,-47.0584 257.1151,-34.4966 270.3984,-24.6239"/>
<polygon fill="#191970" stroke="#191970" points="272.5711,-27.37 278.5092,-18.5956 268.3954,-21.7518 272.5711,-27.37"/>
</g>
<!-- Node9&#45;&gt;Node4 -->
<g id="edge16" class="edge">
<title>Node9&#45;&gt;Node4</title>
<path fill="none" stroke="#191970" d="M455.0379,-55.4716C403.4202,-46.9859 325.2059,-33.4571 257.747,-19 257.1444,-18.8709 256.5368,-18.739 255.9254,-18.6046"/>
<polygon fill="#191970" stroke="#191970" points="256.3897,-15.1197 245.858,-16.2748 254.8114,-21.9394 256.3897,-15.1197"/>
</g>
<!-- Node9&#45;&gt;Node7 -->
<g id="edge17" class="edge">
<title>Node9&#45;&gt;Node7</title>
<path fill="none" stroke="#191970" d="M472.9715,-55.4688C437.1568,-47.0374 382.2417,-33.8834 325.1595,-19.0409"/>
<polygon fill="#191970" stroke="#191970" points="325.7941,-15.5893 315.2342,-16.4485 324.0251,-22.3621 325.7941,-15.5893"/>
</g>
<!-- Node10 -->
<g id="node10" class="node">
<title>Node10</title>
<g id="a_node10"><a xlink:title=" ">
<polygon fill="none" stroke="#bfbfbf" points="420.5599,-.5 420.5599,-18.5 514.934,-18.5 514.934,-.5 420.5599,-.5"/>
<text text-anchor="middle" x="467.747" y="-6.5" font-family="Helvetica,sans-Serif" font-size="10.00" fill="#000000">utils/unwindows.h</text>
</a>
</g>
</g>
<!-- Node9&#45;&gt;Node10 -->
<g id="edge13" class="edge">
<title>Node9&#45;&gt;Node10</title>
<path fill="none" stroke="#191970" d="M504.4813,-55.4179C498.2769,-47.6624 489.179,-36.29 481.5898,-26.8035"/>
<polygon fill="#191970" stroke="#191970" points="484.1506,-24.4017 475.1705,-18.7795 478.6845,-28.7746 484.1506,-24.4017"/>
</g>
<!-- Node11 -->
<g id="node11" class="node">
<title>Node11</title>
<g id="a_node11"><a xlink:title=" ">
<polygon fill="none" stroke="#bfbfbf" points="532.5106,-.5 532.5106,-18.5 602.9833,-18.5 602.9833,-.5 532.5106,-.5"/>
<text text-anchor="middle" x="567.747" y="-6.5" font-family="Helvetica,sans-Serif" font-size="10.00" fill="#000000">math/vec4.h</text>
</a>
</g>
</g>
<!-- Node9&#45;&gt;Node11 -->
<g id="edge14" class="edge">
<title>Node9&#45;&gt;Node11</title>
<path fill="none" stroke="#191970" d="M520.9942,-55.4179C529.1324,-47.425 541.1822,-35.5903 551.0103,-25.9377"/>
<polygon fill="#191970" stroke="#191970" points="553.6168,-28.2836 558.2988,-18.7795 548.7118,-23.2895 553.6168,-28.2836"/>
</g>
<!-- Node12 -->
<g id="node12" class="node">
<title>Node12</title>
<g id="a_node12"><a xlink:title=" ">
<polygon fill="none" stroke="#bfbfbf" points="621.3554,-.5 621.3554,-18.5 660.1386,-18.5 660.1386,-.5 621.3554,-.5"/>
<text text-anchor="middle" x="640.747" y="-6.5" font-family="Helvetica,sans-Serif" font-size="10.00" fill="#000000">array</text>
</a>
</g>
</g>
<!-- Node9&#45;&gt;Node12 -->
<g id="edge15" class="edge">
<title>Node9&#45;&gt;Node12</title>
<path fill="none" stroke="#191970" d="M533.0487,-55.4179C554.5591,-46.2467 587.9326,-32.0177 611.8261,-21.8306"/>
<polygon fill="#191970" stroke="#191970" points="613.2803,-25.0155 621.1064,-17.8739 610.5349,-18.5763 613.2803,-25.0155"/>
</g>
</g>
</svg>
