<?xml version="1.0" encoding="UTF-8" standalone="no"?>
<!DOCTYPE svg PUBLIC "-//W3C//DTD SVG 1.1//EN"
 "http://www.w3.org/Graphics/SVG/1.1/DTD/svg11.dtd">
<!-- Generated by graphviz version 2.40.1 (20161225.0304)
 -->
<!-- Title: include/filament/Viewport.h Pages: 1 -->
<svg width="647pt" height="137pt"
 viewBox="0.00 0.00 647.42 137.00" xmlns="http://www.w3.org/2000/svg" xmlns:xlink="http://www.w3.org/1999/xlink">
<g id="graph0" class="graph" transform="scale(1 1) rotate(0) translate(4 133)">
<title>include/filament/Viewport.h</title>
<!-- Node1 -->
<g id="node1" class="node">
<title>Node1</title>
<g id="a_node1"><a xlink:title=" ">
<polygon fill="#bfbfbf" stroke="#000000" points="313.5215,-110.5 313.5215,-128.5 448.8525,-128.5 448.8525,-110.5 313.5215,-110.5"/>
<text text-anchor="middle" x="381.187" y="-116.5" font-family="Helvetica,sans-Serif" font-size="10.00" fill="#000000">include/filament/Viewport.h</text>
</a>
</g>
</g>
<!-- Node2 -->
<g id="node2" class="node">
<title>Node2</title>
<g id="a_node2"><a xlink:href="_driver_enums_8h.html" target="_top" xlink:title=" ">
<polygon fill="none" stroke="#000000" points="158.8301,-55.5 158.8301,-73.5 281.5439,-73.5 281.5439,-55.5 158.8301,-55.5"/>
<text text-anchor="middle" x="220.187" y="-61.5" font-family="Helvetica,sans-Serif" font-size="10.00" fill="#000000">backend/DriverEnums.h</text>
</a>
</g>
</g>
<!-- Node1&#45;&gt;Node2 -->
<g id="edge1" class="edge">
<title>Node1&#45;&gt;Node2</title>
<path fill="none" stroke="#191970" d="M354.6011,-110.4179C327.7199,-101.2348 285.9943,-86.9807 256.1658,-76.7909"/>
<polygon fill="#191970" stroke="#191970" points="257.1393,-73.4249 246.5448,-73.5042 254.8764,-80.0491 257.1393,-73.4249"/>
</g>
<!-- Node6 -->
<g id="node6" class="node">
<title>Node6</title>
<g id="a_node6"><a xlink:title=" ">
<polygon fill="none" stroke="#bfbfbf" points="257.3965,-.5 257.3965,-18.5 308.9775,-18.5 308.9775,-.5 257.3965,-.5"/>
<text text-anchor="middle" x="283.187" y="-6.5" font-family="Helvetica,sans-Serif" font-size="10.00" fill="#000000">stddef.h</text>
</a>
</g>
</g>
<!-- Node1&#45;&gt;Node6 -->
<g id="edge10" class="edge">
<title>Node1&#45;&gt;Node6</title>
<path fill="none" stroke="#191970" d="M373.1673,-110.4982C356.7286,-92.0467 318.9948,-49.6924 297.988,-26.1134"/>
<polygon fill="#191970" stroke="#191970" points="300.583,-23.7645 291.3176,-18.6261 295.3564,-28.421 300.583,-23.7645"/>
</g>
<!-- Node7 -->
<g id="node7" class="node">
<title>Node7</title>
<g id="a_node7"><a xlink:title=" ">
<polygon fill="none" stroke="#bfbfbf" points="327.0664,-.5 327.0664,-18.5 375.3076,-18.5 375.3076,-.5 327.0664,-.5"/>
<text text-anchor="middle" x="351.187" y="-6.5" font-family="Helvetica,sans-Serif" font-size="10.00" fill="#000000">stdint.h</text>
</a>
</g>
</g>
<!-- Node1&#45;&gt;Node7 -->
<g id="edge11" class="edge">
<title>Node1&#45;&gt;Node7</title>
<path fill="none" stroke="#191970" d="M377.8358,-110.1644C374.6182,-101.0195 369.7363,-86.6533 366.187,-74 361.9603,-58.9316 357.9874,-41.651 355.1935,-28.7714"/>
<polygon fill="#191970" stroke="#191970" points="358.5667,-27.8064 353.065,-18.752 351.7195,-29.261 358.5667,-27.8064"/>
</g>
<!-- Node8 -->
<g id="node8" class="node">
<title>Node8</title>
<g id="a_node8"><a xlink:title=" ">
<polygon fill="none" stroke="#bfbfbf" points="375.1157,-55.5 375.1157,-73.5 457.2583,-73.5 457.2583,-55.5 375.1157,-55.5"/>
<text text-anchor="middle" x="416.187" y="-61.5" font-family="Helvetica,sans-Serif" font-size="10.00" fill="#000000">utils/compiler.h</text>
</a>
</g>
</g>
<!-- Node1&#45;&gt;Node8 -->
<g id="edge7" class="edge">
<title>Node1&#45;&gt;Node8</title>
<path fill="none" stroke="#191970" d="M386.9665,-110.4179C391.8011,-102.8207 398.8444,-91.7527 404.8046,-82.3866"/>
<polygon fill="#191970" stroke="#191970" points="407.8659,-84.0952 410.2819,-73.7795 401.9603,-80.337 407.8659,-84.0952"/>
</g>
<!-- Node9 -->
<g id="node9" class="node">
<title>Node9</title>
<g id="a_node9"><a xlink:title=" ">
<polygon fill="none" stroke="#bfbfbf" points="475.4482,-55.5 475.4482,-73.5 550.9258,-73.5 550.9258,-55.5 475.4482,-55.5"/>
<text text-anchor="middle" x="513.187" y="-61.5" font-family="Helvetica,sans-Serif" font-size="10.00" fill="#000000">math/scalar.h</text>
</a>
</g>
</g>
<!-- Node1&#45;&gt;Node9 -->
<g id="edge8" class="edge">
<title>Node1&#45;&gt;Node9</title>
<path fill="none" stroke="#191970" d="M402.9841,-110.4179C424.48,-101.4613 457.5535,-87.6806 481.8622,-77.552"/>
<polygon fill="#191970" stroke="#191970" points="483.4729,-80.6726 491.3575,-73.5956 480.7806,-74.2111 483.4729,-80.6726"/>
</g>
<!-- Node10 -->
<g id="node10" class="node">
<title>Node10</title>
<g id="a_node10"><a xlink:title=" ">
<polygon fill="none" stroke="#bfbfbf" points="568.9507,-55.5 568.9507,-73.5 639.4233,-73.5 639.4233,-55.5 568.9507,-55.5"/>
<text text-anchor="middle" x="604.187" y="-61.5" font-family="Helvetica,sans-Serif" font-size="10.00" fill="#000000">math/vec2.h</text>
</a>
</g>
</g>
<!-- Node1&#45;&gt;Node10 -->
<g id="edge9" class="edge">
<title>Node1&#45;&gt;Node10</title>
<path fill="none" stroke="#191970" d="M418.0109,-110.4179C456.6391,-100.8907 517.3977,-85.9054 558.9258,-75.6631"/>
<polygon fill="#191970" stroke="#191970" points="559.9118,-79.0249 568.7827,-73.232 558.2355,-72.2285 559.9118,-79.0249"/>
</g>
<!-- Node3 -->
<g id="node3" class="node">
<title>Node3</title>
<g id="a_node3"><a xlink:title=" ">
<polygon fill="none" stroke="#bfbfbf" points="0,-.5 0,-18.5 94.374,-18.5 94.374,-.5 0,-.5"/>
<text text-anchor="middle" x="47.187" y="-6.5" font-family="Helvetica,sans-Serif" font-size="10.00" fill="#000000">utils/unwindows.h</text>
</a>
</g>
</g>
<!-- Node2&#45;&gt;Node3 -->
<g id="edge2" class="edge">
<title>Node2&#45;&gt;Node3</title>
<path fill="none" stroke="#191970" d="M191.6196,-55.4179C162.6091,-46.1949 117.509,-31.8567 85.4301,-21.6582"/>
<polygon fill="#191970" stroke="#191970" points="86.0998,-18.1985 75.5093,-18.5042 83.9789,-24.8695 86.0998,-18.1985"/>
</g>
<!-- Node4 -->
<g id="node4" class="node">
<title>Node4</title>
<g id="a_node4"><a xlink:title=" ">
<polygon fill="none" stroke="#bfbfbf" points="111.9507,-.5 111.9507,-18.5 182.4233,-18.5 182.4233,-.5 111.9507,-.5"/>
<text text-anchor="middle" x="147.187" y="-6.5" font-family="Helvetica,sans-Serif" font-size="10.00" fill="#000000">math/vec4.h</text>
</a>
</g>
</g>
<!-- Node2&#45;&gt;Node4 -->
<g id="edge3" class="edge">
<title>Node2&#45;&gt;Node4</title>
<path fill="none" stroke="#191970" d="M208.1325,-55.4179C197.1037,-47.1084 180.5638,-34.6469 167.4963,-24.8015"/>
<polygon fill="#191970" stroke="#191970" points="169.5964,-22.0016 159.5034,-18.7795 165.3841,-27.5924 169.5964,-22.0016"/>
</g>
<!-- Node5 -->
<g id="node5" class="node">
<title>Node5</title>
<g id="a_node5"><a xlink:title=" ">
<polygon fill="none" stroke="#bfbfbf" points="200.7954,-.5 200.7954,-18.5 239.5786,-18.5 239.5786,-.5 200.7954,-.5"/>
<text text-anchor="middle" x="220.187" y="-6.5" font-family="Helvetica,sans-Serif" font-size="10.00" fill="#000000">array</text>
</a>
</g>
</g>
<!-- Node2&#45;&gt;Node5 -->
<g id="edge4" class="edge">
<title>Node2&#45;&gt;Node5</title>
<path fill="none" stroke="#191970" d="M220.187,-55.4179C220.187,-48.2164 220.187,-37.8962 220.187,-28.8632"/>
<polygon fill="#191970" stroke="#191970" points="223.6871,-28.7794 220.187,-18.7795 216.6871,-28.7795 223.6871,-28.7794"/>
</g>
<!-- Node2&#45;&gt;Node6 -->
<g id="edge5" class="edge">
<title>Node2&#45;&gt;Node6</title>
<path fill="none" stroke="#191970" d="M230.5902,-55.4179C239.927,-47.2667 253.8403,-35.1201 265.0122,-25.3669"/>
<polygon fill="#191970" stroke="#191970" points="267.3264,-27.9927 272.5578,-18.7795 262.7228,-22.7194 267.3264,-27.9927"/>
</g>
<!-- Node2&#45;&gt;Node7 -->
<g id="edge6" class="edge">
<title>Node2&#45;&gt;Node7</title>
<path fill="none" stroke="#191970" d="M241.819,-55.4179C263.152,-46.4613 295.9749,-32.6806 320.0995,-22.552"/>
<polygon fill="#191970" stroke="#191970" points="321.6575,-25.6939 329.5229,-18.5956 318.9476,-19.2397 321.6575,-25.6939"/>
</g>
</g>
</svg>
