<?xml version="1.0" encoding="UTF-8" standalone="no"?>
<!DOCTYPE svg PUBLIC "-//W3C//DTD SVG 1.1//EN"
 "http://www.w3.org/Graphics/SVG/1.1/DTD/svg11.dtd">
<!-- Generated by graphviz version 2.40.1 (20161225.0304)
 -->
<!-- Title: Graphical Class Hierarchy Pages: 1 -->
<svg width="232pt" height="101pt"
 viewBox="0.00 0.00 232.20 101.00" xmlns="http://www.w3.org/2000/svg" xmlns:xlink="http://www.w3.org/1999/xlink">
<g id="graph0" class="graph" transform="scale(1 1) rotate(0) translate(4 97)">
<title>Graphical Class Hierarchy</title>
<!-- Node0 -->
<g id="node1" class="node">
<title>Node0</title>
<g id="a_node1"><a xlink:href="classfilament_1_1backend_1_1_handle_base.html" target="_top" xlink:title=" ">
<polygon fill="none" stroke="#000000" points="0,-37.5 0,-55.5 70.4824,-55.5 70.4824,-37.5 0,-37.5"/>
<text text-anchor="middle" x="35.2412" y="-43.5" font-family="Helvetica,sans-Serif" font-size="10.00" fill="#000000">HandleBase</text>
</a>
</g>
</g>
<!-- Node1 -->
<g id="node2" class="node">
<title>Node1</title>
<g id="a_node2"><a xlink:href="structfilament_1_1backend_1_1_handle.html" target="_top" xlink:title=" ">
<polygon fill="none" stroke="#000000" points="129.998,-74.5 129.998,-92.5 200.6807,-92.5 200.6807,-74.5 129.998,-74.5"/>
<text text-anchor="middle" x="165.3394" y="-80.5" font-family="Helvetica,sans-Serif" font-size="10.00" fill="#000000">Handle&lt; T &gt;</text>
</a>
</g>
</g>
<!-- Node0&#45;&gt;Node1 -->
<g id="edge1" class="edge">
<title>Node0&#45;&gt;Node1</title>
<path fill="none" stroke="#191970" d="M76.8989,-58.3475C95.2045,-63.5536 116.3613,-69.5706 133.3914,-74.414"/>
<polygon fill="#191970" stroke="#191970" points="77.6428,-54.9203 67.0668,-55.5512 75.7279,-61.6533 77.6428,-54.9203"/>
</g>
<!-- Node2 -->
<g id="node3" class="node">
<title>Node2</title>
<g id="a_node3"><a xlink:href="structfilament_1_1backend_1_1_handle.html" target="_top" xlink:title=" ">
<polygon fill="none" stroke="#000000" points="106.4824,-37.5 106.4824,-55.5 224.1963,-55.5 224.1963,-37.5 106.4824,-37.5"/>
<text text-anchor="middle" x="165.3394" y="-43.5" font-family="Helvetica,sans-Serif" font-size="10.00" fill="#000000">Handle&lt; HwProgram &gt;</text>
</a>
</g>
</g>
<!-- Node0&#45;&gt;Node2 -->
<g id="edge2" class="edge">
<title>Node0&#45;&gt;Node2</title>
<path fill="none" stroke="#191970" d="M80.9057,-46.5C89.1176,-46.5 97.7831,-46.5 106.3095,-46.5"/>
<polygon fill="#191970" stroke="#191970" points="80.7911,-43.0001 70.7911,-46.5 80.7911,-50.0001 80.7911,-43.0001"/>
</g>
<!-- Node3 -->
<g id="node4" class="node">
<title>Node3</title>
<g id="a_node4"><a xlink:href="structfilament_1_1backend_1_1_handle.html" target="_top" xlink:title=" ">
<polygon fill="none" stroke="#000000" points="109.2583,-.5 109.2583,-18.5 221.4204,-18.5 221.4204,-.5 109.2583,-.5"/>
<text text-anchor="middle" x="165.3394" y="-6.5" font-family="Helvetica,sans-Serif" font-size="10.00" fill="#000000">Handle&lt; HwTexture &gt;</text>
</a>
</g>
</g>
<!-- Node0&#45;&gt;Node3 -->
<g id="edge3" class="edge">
<title>Node0&#45;&gt;Node3</title>
<path fill="none" stroke="#191970" d="M76.8989,-34.6525C95.2045,-29.4464 116.3613,-23.4294 133.3914,-18.586"/>
<polygon fill="#191970" stroke="#191970" points="75.7279,-31.3467 67.0668,-37.4488 77.6428,-38.0797 75.7279,-31.3467"/>
</g>
</g>
</svg>
